<svg aria-hidden="true" style="position: absolute; width: 0; height: 0; overflow: hidden;" version="1.1" xmlns="http://www.w3.org/2000/svg" xmlns:xlink="http://www.w3.org/1999/xlink">
<defs>
<symbol id="icon-pencil" viewBox="0 0 24 28">
<title>pencil</title>
<path d="M5.672 24l1.422-1.422-3.672-3.672-1.422 1.422v1.672h2v2h1.672zM13.844 9.5c0-0.203-0.141-0.344-0.344-0.344-0.094 0-0.187 0.031-0.266 0.109l-8.469 8.469c-0.078 0.078-0.109 0.172-0.109 0.266 0 0.203 0.141 0.344 0.344 0.344 0.094 0 0.187-0.031 0.266-0.109l8.469-8.469c0.078-0.078 0.109-0.172 0.109-0.266zM13 6.5l6.5 6.5-13 13h-6.5v-6.5zM23.672 8c0 0.531-0.219 1.047-0.578 1.406l-2.594 2.594-6.5-6.5 2.594-2.578c0.359-0.375 0.875-0.594 1.406-0.594s1.047 0.219 1.422 0.594l3.672 3.656c0.359 0.375 0.578 0.891 0.578 1.422z"></path>
</symbol>
<symbol id="icon-calendar" viewBox="0 0 28 28">
<title>calendar</title>
<path d="M8.75 10.5h3.5v3.5h-3.5zM14 10.5h3.5v3.5h-3.5zM19.25 10.5h3.5v3.5h-3.5zM3.5 21h3.5v3.5h-3.5zM8.75 21h3.5v3.5h-3.5zM14 21h3.5v3.5h-3.5zM8.75 15.75h3.5v3.5h-3.5zM14 15.75h3.5v3.5h-3.5zM19.25 15.75h3.5v3.5h-3.5zM3.5 15.75h3.5v3.5h-3.5zM22.75 0v1.75h-3.5v-1.75h-12.25v1.75h-3.5v-1.75h-3.5v28h26.25v-28h-3.5zM24.5 26.25h-22.75v-19.25h22.75v19.25z"></path>
</symbol>
<symbol id="icon-placeholder-community" viewBox="0 0 28 28">
<title>placeholder-community</title>
<path d="M25.298 25.985v0c0.818-0.564 1.356-1.511 1.356-2.585 0-0.040-0.001-0.080-0.002-0.12h-0.015c-0.003-0.221-0.029-0.437-0.077-0.646-0.337-1.347-1.542-2.347-2.979-2.367v-0.059c-0.026-0.001-0.051-0.001-0.077-0.001-0.375 0-0.735 0.066-1.068 0.186v0c1.435 1.527 2.45 3.451 2.862 5.591zM23.581 28.126h-4.094c-0.040-2.944-2.447-5.328-5.413-5.328s-5.374 2.384-5.413 5.328h-4.156v1.844c0 0 0.006 0-0.001 0.001-3.618 0-6.53-2.951-6.53-6.591 0-1.556 0.533-2.985 1.426-4.113 1.206-1.534 3.089-2.517 5.204-2.517 1.545 0 2.966 0.526 4.089 1.408v0c1.611-0.866 3.457-1.357 5.419-1.357 1.928 0 3.744 0.475 5.336 1.315 1.115-0.857 2.516-1.366 4.036-1.366 2.115 0 3.998 0.983 5.204 2.517 0.893 1.127 1.426 2.557 1.426 4.113 0 3.64-2.913 6.591-6.53 6.591-0.007-0-0.001-0.001-0.001-0.001v-1.844zM2.907 26.063c0.397-2.155 1.405-4.093 2.838-5.633-0.36-0.143-0.753-0.222-1.164-0.222-0.026 0-0.051 0-0.077 0.001v0.059c-1.437 0.020-2.642 1.020-2.979 2.367-0.047 0.208-0.074 0.424-0.077 0.646h-0.015c-0.001 0.040-0.002 0.080-0.002 0.12 0 1.125 0.59 2.111 1.475 2.663v0zM14.104 15.86c2.664 0 4.824-2.154 4.824-4.81s-2.16-4.81-4.824-4.81c-2.664 0-4.824 2.154-4.824 4.81s2.16 4.81 4.824 4.81zM4.924 15.922c1.339 0 2.424-1.079 2.424-2.41s-1.085-2.41-2.424-2.41c-1.339 0-2.424 1.079-2.424 2.41s1.085 2.41 2.424 2.41zM23.324 15.922c1.339 0 2.424-1.079 2.424-2.41s-1.085-2.41-2.424-2.41c-1.339 0-2.424 1.079-2.424 2.41s1.085 2.41 2.424 2.41z"></path>
</symbol>
<symbol id="icon-placeholder-user" viewBox="0 0 28 28">
<title>placeholder-user</title>
<path d="M8.753 28.075c0.040-2.944 2.446-5.328 5.413-5.328s5.373 2.384 5.413 5.328h6.014c0 0 0.001 0.023 0.001 0.010 0-6.274-5.1-11.336-11.391-11.336s-11.391 5.050-11.391 11.324c0 0.013 0.001 0.002 0.001 0.002h5.94zM14.204 15.922c2.664 0 4.824-2.154 4.824-4.81s-2.16-4.81-4.824-4.81c-2.664 0-4.824 2.154-4.824 4.81s2.16 4.81 4.824 4.81z"></path>
</symbol>
<symbol id="icon-magnifying-glass" viewBox="0 0 29 28">
<title>magnifying-glass</title>
<path fill="#444" style="fill: var(--color1, #444)" d="M12.084 22.913c-6.281 0-11.391-5.11-11.391-11.39s5.11-11.391 11.391-11.391c6.281 0 11.39 5.11 11.39 11.391s-5.11 11.39-11.39 11.39v0zM12.079 1.577c-5.482 0-9.941 4.459-9.941 9.941 0 5.48 4.459 9.939 9.941 9.939 5.48 0 9.939-4.459 9.939-9.939 0-5.482-4.459-9.941-9.939-9.941zM26.105 27.627c0.278 0.278 0.642 0.416 1.006 0.416s0.727-0.138 1.005-0.416c0.556-0.555 0.556-1.457 0-2.012l-6.631-6.436c-0.556-0.556-1.456-0.556-2.012 0s-0.556 1.457 0 2.012l6.631 6.436z"></path>
</symbol>
<symbol id="icon-menu-toggle" viewBox="0 0 6 28">
<title>menu-toggle</title>
<path fill="#444" style="fill: var(--color1, #444)" d="M3.182 6.462c1.757 0 3.182-1.446 3.182-3.231s-1.425-3.231-3.182-3.231c-1.757 0-3.182 1.446-3.182 3.231s1.425 3.231 3.182 3.231zM3.182 17.231c1.757 0 3.182-1.446 3.182-3.231s-1.425-3.231-3.182-3.231c-1.757 0-3.182 1.446-3.182 3.231s1.425 3.231 3.182 3.231zM3.182 28c1.757 0 3.182-1.446 3.182-3.231s-1.425-3.231-3.182-3.231c-1.757 0-3.182 1.446-3.182 3.231s1.425 3.231 3.182 3.231z"></path>
</symbol>
<symbol id="icon-notification" viewBox="0 0 28 28">
<title>notification</title>
<path fill="#444" style="fill: var(--color1, #444)" d="M8.27 27.885c-0.243 0-0.473-0.115-0.627-0.314l-3.793-4.872h-2.547c-0.628 0-1.14-0.542-1.14-1.21v-20.107c0-0.667 0.511-1.21 1.14-1.21h25.395c0.628 0 1.14 0.543 1.14 1.21v20.107c0 0.668-0.511 1.21-1.14 1.21h-14.007l-3.793 4.872c-0.155 0.198-0.385 0.314-0.627 0.314v0zM3.898 21.233c0.628 0 0.741 0.159 0.962 0.362l3.41 4.305 3.076-4.305c0.217-0.216 0.5-0.362 0.963-0.362h14.235v-19.717h-25.088v19.717h2.442zM16.33 16.456c-0.363 0-0.691-0.253-0.825-0.641l-1.687-4.879-1.354 3.887c-0.121 0.347-0.4 0.59-0.725 0.632-0.327 0.045-0.644-0.124-0.83-0.431l-1.531-2.529-1.378 1.898c-0.313 0.431-0.873 0.49-1.25 0.133s-0.429-0.998-0.116-1.429l2.126-2.927c0.177-0.244 0.443-0.385 0.722-0.365 0.277 0.014 0.533 0.175 0.691 0.436l1.254 2.072 1.569-4.504c0.134-0.386 0.461-0.639 0.825-0.639h0.001c0.364 0.001 0.69 0.255 0.824 0.641l1.576 4.559 1.727-6.471c0.106-0.398 0.415-0.682 0.778-0.715 0.358-0.034 0.707 0.19 0.868 0.565l1.885 4.39c0.216 0.503 0.034 1.111-0.406 1.358s-0.972 0.038-1.188-0.464l-0.894-2.084-1.812 6.791c-0.11 0.412-0.436 0.7-0.814 0.717-0.012 0.001-0.024 0.001-0.036 0.001v0z"></path>
</symbol>
<symbol id="icon-newspaper" viewBox="0 0 39 28">
<title>newspaper</title>
<path fill="#444" style="fill: var(--color1, #444)" d="M33.792 10.785c0.003-0.364 0.008-0.653 0.014-0.815 0.008-0.185-0.059-0.365-0.186-0.499s-0.3-0.208-0.482-0.206c-0.518 0.003-3.453 0.012-5.763 0.012-0.699 0-1.342-0.001-1.843-0.003-0.251-0.001-0.466-0.003-0.633-0.004-0.168-0.002-0.292-0.004-0.348-0.005-0.246-0.009-0.462 0.123-0.583 0.321-0.089 0.123-0.141 0.276-0.131 0.439 0 0.001 0.001 0.023 0.002 0.051 0.002 0.103 0.004 0.317 0.006 0.596 0.001 0.28 0.001 0.629 0.001 1.018 0 1.78-0.009 4.381-0.009 5.015 0 0.114-0.003 0.193-0.006 0.27-0.003 0.078-0.007 0.155-0.007 0.249 0 0.125 0.008 0.268 0.030 0.449 0.038 0.332 0.307 0.585 0.636 0.596 0.928 0.032 2.018 0.035 2.933 0.035h0.014c0.389 0 1.044 0.011 1.778 0.021 0.735 0.011 1.552 0.022 2.279 0.022 0.345 0 0.67-0.003 0.959-0.009s0.538-0.015 0.742-0.031c0.345-0.027 0.612-0.32 0.613-0.673 0.001-0.035 0.001-0.074 0.001-0.115 0-0.909-0.021-3.501-0.021-5.443 0.001-0.482 0.003-0.925 0.006-1.29v0zM32.424 16.986c-0.274 0.005-0.592 0.008-0.931 0.008-0.715 0-1.527-0.011-2.261-0.020-0.735-0.011-1.388-0.022-1.796-0.022h-0.014c-0.708 0-1.516-0.003-2.263-0.018 0.002-0.065 0.004-0.139 0.004-0.228 0-0.627 0.009-3.234 0.009-5.015 0-0.411 0-0.774-0.002-1.065 0.537 0.003 1.325 0.005 2.207 0.005 1.797 0 3.964-0.005 5.091-0.010-0.001 0.051-0.002 0.099-0.002 0.152-0.003 0.37-0.004 0.817-0.004 1.304 0 1.647 0.014 3.752 0.018 4.908-0.018 0.001-0.036 0.001-0.056 0.002v0z"></path>
<path fill="#444" style="fill: var(--color1, #444)" d="M37.89 6.411c-0.006-0.355-0.279-0.645-0.627-0.664-1.888-0.104-3.794-0.17-5.707-0.211l-1.982-5.090c-0.069-0.176-0.208-0.316-0.38-0.383s-0.368-0.057-0.533 0.027c0 0-0.036 0.018-0.106 0.054-0.523 0.265-2.912 1.469-5.512 2.673-1.3 0.602-2.652 1.205-3.846 1.689-0.596 0.242-1.153 0.454-1.64 0.622s-0.906 0.289-1.209 0.349c-0.102 0.021-0.191 0.067-0.269 0.127-3.072 0.050-6.113 0.097-9.085 0.097h-0.15c-0.118 0-0.228 0.034-0.324 0.090-0.015 0.009-0.032 0.016-0.047 0.025-0.002 0.002-0.003 0.003-0.004 0.004-0.174 0.123-0.288 0.326-0.288 0.558 0 1.229 0.005 2.497 0.014 3.781-0.098-0.003-0.198 0.014-0.293 0.059-1.674 0.782-3.349 1.558-5.030 2.315-0.011 0.005-0.020 0.012-0.029 0.017-0.021 0.011-0.041 0.023-0.061 0.035-0.018 0.012-0.035 0.025-0.052 0.038s-0.033 0.027-0.047 0.043c-0.016 0.016-0.032 0.032-0.045 0.050-0.013 0.016-0.025 0.032-0.037 0.049-0.013 0.018-0.024 0.037-0.035 0.056-0.011 0.018-0.020 0.038-0.028 0.058s-0.016 0.039-0.023 0.059c-0.007 0.020-0.013 0.042-0.017 0.064s-0.009 0.043-0.012 0.065c-0.003 0.020-0.004 0.041-0.005 0.062-0.001 0.024 0 0.049 0.002 0.073 0.001 0.011-0.001 0.022 0.001 0.034 0.142 1.161 0.565 2.322 1.046 3.439 0.483 1.115 1.029 2.186 1.438 3.118 0.516 1.179 1.153 2.484 1.795 3.781 0.63 1.273 1.265 2.537 1.794 3.655 0.017 0.361 0.307 0.643 0.661 0.643 10.848 0 30.247-0.009 30.247-0.009 0.177 0 0.346-0.072 0.471-0.201s0.194-0.302 0.193-0.482c-0.001 0.001-0.124-14.48-0.237-20.77v0zM21.475 5.008c2.799-1.229 5.836-2.73 7.133-3.38l1.512 3.884c-1.182-0.016-2.367-0.024-3.554-0.024-2.113 0-4.228 0.023-6.335 0.053 0.405-0.17 0.821-0.348 1.244-0.533v0zM4.176 19.241c-0.433-0.987-0.976-2.049-1.435-3.112-0.382-0.881-0.701-1.761-0.863-2.571 1.448-0.656 2.89-1.321 4.328-1.993 0.041 4.278 0.126 8.657 0.238 12.408-0.166-0.335-0.333-0.671-0.499-1.008-0.639-1.292-1.268-2.583-1.768-3.725v0zM7.855 26.521c-0.197-5.422-0.339-12.913-0.348-19.466 6.202-0.011 12.653-0.213 19.059-0.213 3.365 0 6.716 0.057 10.010 0.227 0.053 3.172 0.107 7.979 0.149 12.101 0.023 2.203 0.041 4.209 0.055 5.665 0.006 0.701 0.011 1.272 0.015 1.678h-0.187c-3.776 0.001-19.198 0.007-28.753 0.008v0z"></path>
<path fill="#444" style="fill: var(--color1, #444)" d="M10.669 11.266h11.057c0.366 0 0.663-0.303 0.663-0.677s-0.296-0.677-0.663-0.677h-11.057c-0.366 0-0.663 0.303-0.663 0.677 0 0.373 0.297 0.677 0.663 0.677v0z"></path>
<path fill="#444" style="fill: var(--color1, #444)" d="M22.23 13.492c0-0.373-0.296-0.676-0.663-0.676-3.218 0-6.75 0.161-10.266 0.16-0.366 0-0.663 0.303-0.663 0.678 0 0.373 0.297 0.676 0.663 0.676 3.555 0 7.091-0.162 10.266-0.162 0.367-0.001 0.663-0.303 0.663-0.677v0z"></path>
<path fill="#444" style="fill: var(--color1, #444)" d="M21.094 15.718c-3.219 0.001-6.75 0.162-10.268 0.162-0.366 0-0.663 0.303-0.663 0.677s0.297 0.677 0.663 0.677c3.557-0.001 7.092-0.162 10.268-0.161 0.366 0 0.663-0.304 0.663-0.678s-0.297-0.677-0.663-0.677v0z"></path>
<path fill="#444" style="fill: var(--color1, #444)" d="M32.783 19.588c-2.876 0-6.692 0.038-10.407 0.038-2.413 0-4.783-0.016-6.821-0.069-1.019-0.026-1.954-0.062-2.768-0.109s-1.506-0.106-2.032-0.177c-0.363-0.049-0.696 0.213-0.744 0.584s0.208 0.71 0.571 0.759c0.578 0.078 1.296 0.137 2.13 0.186 2.498 0.145 6.033 0.18 9.664 0.18 3.723 0 7.543-0.037 10.407-0.037 0.365 0 0.662-0.303 0.662-0.678s-0.296-0.676-0.662-0.676v0z"></path>
<path fill="#444" style="fill: var(--color1, #444)" d="M32.783 22.976c-6.607 0-22.12 0.161-22.121 0.161-0.366 0.004-0.66 0.31-0.656 0.684s0.303 0.674 0.67 0.67c0.001 0 0.242-0.003 0.679-0.008 3.058-0.031 15.661-0.153 21.428-0.153 0.365 0 0.662-0.303 0.662-0.677s-0.296-0.677-0.662-0.677v0z"></path>
</symbol>
<symbol id="icon-file-o" viewBox="0 0 28 28">
<title>file-o</title>
<path d="M22.937 5.938q0.438 0.438 0.75 1.188t0.313 1.375v18q0 0.625-0.438 1.062t-1.062 0.438h-21q-0.625 0-1.062-0.438t-0.438-1.062v-25q0-0.625 0.438-1.062t1.062-0.438h14q0.625 0 1.375 0.313t1.188 0.75zM16 2.125v5.875h5.875q-0.156-0.453-0.344-0.641l-4.891-4.891q-0.187-0.187-0.641-0.344zM22 26v-16h-6.5q-0.625 0-1.062-0.438t-0.438-1.062v-6.5h-12v24h20z"></path>
</symbol>
<symbol id="icon-file-text-o" viewBox="0 0 28 28">
<title>file-text-o</title>
<path d="M22.937 5.938q0.438 0.438 0.75 1.188t0.313 1.375v18q0 0.625-0.438 1.062t-1.062 0.438h-21q-0.625 0-1.062-0.438t-0.438-1.062v-25q0-0.625 0.438-1.062t1.062-0.438h14q0.625 0 1.375 0.313t1.188 0.75zM16 2.125v5.875h5.875q-0.156-0.453-0.344-0.641l-4.891-4.891q-0.187-0.187-0.641-0.344zM22 26v-16h-6.5q-0.625 0-1.062-0.438t-0.438-1.062v-6.5h-12v24h20zM6 12.5q0-0.219 0.141-0.359t0.359-0.141h11q0.219 0 0.359 0.141t0.141 0.359v1q0 0.219-0.141 0.359t-0.359 0.141h-11q-0.219 0-0.359-0.141t-0.141-0.359v-1zM17.5 16q0.219 0 0.359 0.141t0.141 0.359v1q0 0.219-0.141 0.359t-0.359 0.141h-11q-0.219 0-0.359-0.141t-0.141-0.359v-1q0-0.219 0.141-0.359t0.359-0.141h11zM17.5 20q0.219 0 0.359 0.141t0.141 0.359v1q0 0.219-0.141 0.359t-0.359 0.141h-11q-0.219 0-0.359-0.141t-0.141-0.359v-1q0-0.219 0.141-0.359t0.359-0.141h11z"></path>
</symbol>
<symbol id="icon-file-pdf-o" viewBox="0 0 28 28">
<title>file-pdf-o</title>
<path d="M22.937 5.938q0.438 0.438 0.75 1.188t0.313 1.375v18q0 0.625-0.438 1.062t-1.062 0.438h-21q-0.625 0-1.062-0.438t-0.438-1.062v-25q0-0.625 0.438-1.062t1.062-0.438h14q0.625 0 1.375 0.313t1.188 0.75zM16 2.125v5.875h5.875q-0.156-0.453-0.344-0.641l-4.891-4.891q-0.187-0.187-0.641-0.344zM22 26v-16h-6.5q-0.625 0-1.062-0.438t-0.438-1.062v-6.5h-12v24h20zM13.969 16.734q0.516 0.406 1.312 0.875 0.922-0.109 1.828-0.109 2.297 0 2.766 0.766 0.25 0.344 0.031 0.812 0 0.016-0.016 0.031l-0.031 0.031v0.016q-0.094 0.594-1.109 0.594-0.75 0-1.797-0.313t-2.031-0.828q-3.453 0.375-6.125 1.297-2.391 4.094-3.781 4.094-0.234 0-0.438-0.109l-0.375-0.187q-0.016-0.016-0.094-0.078-0.156-0.156-0.094-0.562 0.141-0.625 0.875-1.43t2.063-1.508q0.219-0.141 0.359 0.094 0.031 0.031 0.031 0.063 0.812-1.328 1.672-3.078 1.062-2.125 1.625-4.094-0.375-1.281-0.477-2.492t0.102-1.992q0.172-0.625 0.656-0.625h0.344q0.359 0 0.547 0.234 0.281 0.328 0.141 1.062-0.031 0.094-0.063 0.125 0.016 0.047 0.016 0.125v0.469q-0.031 1.922-0.219 3 0.859 2.562 2.281 3.719zM4.969 23.156q0.812-0.375 2.141-2.469-0.797 0.625-1.367 1.313t-0.773 1.156zM11.188 8.781q-0.234 0.656-0.031 2.063 0.016-0.109 0.109-0.688 0-0.047 0.109-0.672 0.016-0.063 0.063-0.125-0.016-0.016-0.016-0.031t-0.008-0.023-0.008-0.023q-0.016-0.344-0.203-0.562 0 0.016-0.016 0.031v0.031zM9.25 19.109q2.109-0.844 4.438-1.266-0.031-0.016-0.203-0.148t-0.25-0.211q-1.188-1.047-1.984-2.75-0.422 1.344-1.297 3.078-0.469 0.875-0.703 1.297zM19.344 18.859q-0.375-0.375-2.188-0.375 1.188 0.438 1.937 0.438 0.219 0 0.281-0.016 0-0.016-0.031-0.047z"></path>
</symbol>
<symbol id="icon-file-word-o" viewBox="0 0 28 28">
<title>file-word-o</title>
<path d="M22.937 5.938q0.438 0.438 0.75 1.188t0.313 1.375v18q0 0.625-0.438 1.062t-1.062 0.438h-21q-0.625 0-1.062-0.438t-0.438-1.062v-25q0-0.625 0.438-1.062t1.062-0.438h14q0.625 0 1.375 0.313t1.188 0.75zM16 2.125v5.875h5.875q-0.156-0.453-0.344-0.641l-4.891-4.891q-0.187-0.187-0.641-0.344zM22 26v-16h-6.5q-0.625 0-1.062-0.438t-0.438-1.062v-6.5h-12v24h20zM3.641 12v1.672h1.094l2.562 10.328h2.484l2-7.578q0.109-0.313 0.156-0.719 0.031-0.25 0.031-0.375h0.063l0.047 0.375q0.016 0.047 0.055 0.313t0.086 0.406l2 7.578h2.484l2.562-10.328h1.094v-1.672h-4.688v1.672h1.406l-1.547 6.844q-0.078 0.313-0.109 0.719l-0.031 0.328h-0.063l-0.047-0.328q-0.016-0.078-0.063-0.328t-0.078-0.391l-2.25-8.516h-1.781l-2.25 8.516q-0.031 0.141-0.070 0.383t-0.055 0.336l-0.063 0.328h-0.063l-0.031-0.328q-0.031-0.406-0.109-0.719l-1.547-6.844h1.406v-1.672h-4.688z"></path>
</symbol>
<symbol id="icon-file-excel-o" viewBox="0 0 28 28">
<title>file-excel-o</title>
<path d="M22.937 5.938q0.438 0.438 0.75 1.188t0.313 1.375v18q0 0.625-0.438 1.062t-1.062 0.438h-21q-0.625 0-1.062-0.438t-0.438-1.062v-25q0-0.625 0.438-1.062t1.062-0.438h14q0.625 0 1.375 0.313t1.188 0.75zM16 2.125v5.875h5.875q-0.156-0.453-0.344-0.641l-4.891-4.891q-0.187-0.187-0.641-0.344zM22 26v-16h-6.5q-0.625 0-1.062-0.438t-0.438-1.062v-6.5h-12v24h20zM6.703 22.344v1.656h4.391v-1.656h-1.172l1.609-2.516q0.078-0.109 0.156-0.258t0.117-0.211 0.055-0.063h0.031q0.016 0.063 0.078 0.156 0.031 0.063 0.070 0.117t0.094 0.125 0.102 0.133l1.672 2.516h-1.188v1.656h4.547v-1.656h-1.062l-3-4.266 3.047-4.406h1.047v-1.672h-4.359v1.672h1.156l-1.609 2.484q-0.063 0.109-0.156 0.258t-0.141 0.211l-0.031 0.047h-0.031q-0.016-0.063-0.078-0.156-0.094-0.172-0.266-0.359l-1.656-2.484h1.188v-1.672h-4.531v1.672h1.062l2.953 4.25-3.031 4.422h-1.062z"></path>
</symbol>
<symbol id="icon-file-powerpoint-o" viewBox="0 0 28 28">
<title>file-powerpoint-o</title>
<path d="M22.937 5.938q0.438 0.438 0.75 1.188t0.313 1.375v18q0 0.625-0.438 1.062t-1.062 0.438h-21q-0.625 0-1.062-0.438t-0.438-1.062v-25q0-0.625 0.438-1.062t1.062-0.438h14q0.625 0 1.375 0.313t1.188 0.75zM16 2.125v5.875h5.875q-0.156-0.453-0.344-0.641l-4.891-4.891q-0.187-0.187-0.641-0.344zM22 26v-16h-6.5q-0.625 0-1.062-0.438t-0.438-1.062v-6.5h-12v24h20zM6.5 22.344v1.656h5.109v-1.656h-1.453v-2.609h2.141q1.188 0 1.844-0.234 1.047-0.359 1.664-1.359t0.617-2.281q0-1.266-0.578-2.203t-1.563-1.359q-0.75-0.297-2.031-0.297h-5.75v1.672h1.437v8.672h-1.437zM12.016 17.969h-1.859v-4.188h1.875q0.812 0 1.297 0.281 0.875 0.516 0.875 1.797 0 1.391-0.969 1.875-0.484 0.234-1.219 0.234z"></path>
</symbol>
<symbol id="icon-file-image-o" viewBox="0 0 28 28">
<title>file-image-o</title>
<path d="M22.937 5.938q0.438 0.438 0.75 1.188t0.313 1.375v18q0 0.625-0.438 1.062t-1.062 0.438h-21q-0.625 0-1.062-0.438t-0.438-1.062v-25q0-0.625 0.438-1.062t1.062-0.438h14q0.625 0 1.375 0.313t1.188 0.75zM16 2.125v5.875h5.875q-0.156-0.453-0.344-0.641l-4.891-4.891q-0.187-0.187-0.641-0.344zM22 26v-16h-6.5q-0.625 0-1.062-0.438t-0.438-1.062v-6.5h-12v24h20zM20 19v5h-16v-3l3-3 2 2 6-6zM7 16q-1.25 0-2.125-0.875t-0.875-2.125 0.875-2.125 2.125-0.875 2.125 0.875 0.875 2.125-0.875 2.125-2.125 0.875z"></path>
</symbol>
<symbol id="icon-file-archive-o" viewBox="0 0 28 28">
<title>file-archive-o</title>
<path d="M10 6v-2h-2v2h2zM12 8v-2h-2v2h2zM10 10v-2h-2v2h2zM12 12v-2h-2v2h2zM22.937 5.938q0.438 0.438 0.75 1.188t0.313 1.375v18q0 0.625-0.438 1.062t-1.062 0.438h-21q-0.625 0-1.062-0.438t-0.438-1.062v-25q0-0.625 0.438-1.062t1.062-0.438h14q0.625 0 1.375 0.313t1.188 0.75zM16 2.125v5.875h5.875q-0.156-0.453-0.344-0.641l-4.891-4.891q-0.187-0.187-0.641-0.344zM22 26v-16h-6.5q-0.625 0-1.062-0.438t-0.438-1.062v-6.5h-2v2h-2v-2h-8v24h20zM12.203 14.734l1.672 5.453q0.125 0.422 0.125 0.812 0 1.297-1.133 2.148t-2.867 0.852-2.867-0.852-1.133-2.148q0-0.391 0.125-0.812 0.328-0.984 1.875-6.188v-2h2v2h1.234q0.344 0 0.609 0.203t0.359 0.531zM10 22q0.828 0 1.414-0.297t0.586-0.703-0.586-0.703-1.414-0.297-1.414 0.297-0.586 0.703 0.586 0.703 1.414 0.297z"></path>
</symbol>
<symbol id="icon-file-audio-o" viewBox="0 0 28 28">
<title>file-audio-o</title>
<path d="M22.937 5.938q0.438 0.438 0.75 1.188t0.313 1.375v18q0 0.625-0.438 1.062t-1.062 0.438h-21q-0.625 0-1.062-0.438t-0.438-1.062v-25q0-0.625 0.438-1.062t1.062-0.438h14q0.625 0 1.375 0.313t1.188 0.75zM16 2.125v5.875h5.875q-0.156-0.453-0.344-0.641l-4.891-4.891q-0.187-0.187-0.641-0.344zM22 26v-16h-6.5q-0.625 0-1.062-0.438t-0.438-1.062v-6.5h-12v24h20zM9.688 13.281q0.313 0.125 0.313 0.469v8.5q0 0.344-0.313 0.469-0.125 0.031-0.187 0.031-0.187 0-0.359-0.141l-2.594-2.609h-2.047q-0.219 0-0.359-0.141t-0.141-0.359v-3q0-0.219 0.141-0.359t0.359-0.141h2.047l2.594-2.609q0.25-0.234 0.547-0.109zM16.203 24.047q0.484 0 0.781-0.375 2.016-2.484 2.016-5.672t-2.016-5.672q-0.25-0.328-0.672-0.375t-0.734 0.219q-0.328 0.266-0.367 0.68t0.227 0.742q1.563 1.922 1.563 4.406t-1.563 4.406q-0.266 0.328-0.227 0.742t0.367 0.664q0.281 0.234 0.625 0.234zM12.906 21.734q0.422 0 0.734-0.313 1.359-1.453 1.359-3.422t-1.359-3.422q-0.281-0.297-0.703-0.313t-0.719 0.266-0.313 0.695 0.281 0.727q0.812 0.891 0.812 2.047t-0.812 2.047q-0.297 0.313-0.281 0.727t0.313 0.695q0.313 0.266 0.688 0.266z"></path>
</symbol>
<symbol id="icon-file-movie-o" viewBox="0 0 28 28">
<title>file-movie-o</title>
<path d="M22.937 5.938q0.438 0.438 0.75 1.188t0.313 1.375v18q0 0.625-0.438 1.062t-1.062 0.438h-21q-0.625 0-1.062-0.438t-0.438-1.062v-25q0-0.625 0.438-1.062t1.062-0.438h14q0.625 0 1.375 0.313t1.188 0.75zM16 2.125v5.875h5.875q-0.156-0.453-0.344-0.641l-4.891-4.891q-0.187-0.187-0.641-0.344zM22 26v-16h-6.5q-0.625 0-1.062-0.438t-0.438-1.062v-6.5h-12v24h20zM12 12q0.812 0 1.406 0.594t0.594 1.406v6q0 0.812-0.594 1.406t-1.406 0.594h-6q-0.812 0-1.406-0.594t-0.594-1.406v-6q0-0.812 0.594-1.406t1.406-0.594h6zM19.688 12.031q0.313 0.125 0.313 0.469v9q0 0.344-0.313 0.469-0.125 0.031-0.187 0.031-0.219 0-0.359-0.141l-4.141-4.156v-1.406l4.141-4.156q0.141-0.141 0.359-0.141 0.063 0 0.187 0.031z"></path>
</symbol>
<symbol id="icon-star" viewBox="0 0 26 28">
<title>star</title>
<path d="M26 10.109q0 0.344-0.406 0.75l-5.672 5.531 1.344 7.812q0.016 0.109 0.016 0.313 0 0.328-0.164 0.555t-0.477 0.227q-0.297 0-0.625-0.187l-7.016-3.687-7.016 3.687q-0.344 0.187-0.625 0.187-0.328 0-0.492-0.227t-0.164-0.555q0-0.094 0.031-0.313l1.344-7.812-5.688-5.531q-0.391-0.422-0.391-0.75 0-0.578 0.875-0.719l7.844-1.141 3.516-7.109q0.297-0.641 0.766-0.641t0.766 0.641l3.516 7.109 7.844 1.141q0.875 0.141 0.875 0.719z"></path>
</symbol>
<symbol id="icon-user" viewBox="0 0 22 28">
<title>user</title>
<path d="M22 21.953q0 1.875-1.141 2.961t-3.031 1.086h-13.656q-1.891 0-3.031-1.086t-1.141-2.961q0-0.828 0.055-1.617t0.219-1.703 0.414-1.695 0.672-1.523 0.969-1.266 1.336-0.836 1.742-0.313q0.141 0 0.656 0.336t1.164 0.75 1.687 0.75 2.086 0.336 2.086-0.336 1.687-0.75 1.164-0.75 0.656-0.336q0.953 0 1.742 0.313t1.336 0.836 0.969 1.266 0.672 1.523 0.414 1.695 0.219 1.703 0.055 1.617zM17 8q0 2.484-1.758 4.242t-4.242 1.758-4.242-1.758-1.758-4.242 1.758-4.242 4.242-1.758 4.242 1.758 1.758 4.242z"></path>
</symbol>
<symbol id="icon-cog" viewBox="0 0 28 28">
<title>cog</title>
<path d="M16 14q0-1.656-1.172-2.828t-2.828-1.172-2.828 1.172-1.172 2.828 1.172 2.828 2.828 1.172 2.828-1.172 1.172-2.828zM24 12.297v3.469q0 0.187-0.125 0.359t-0.313 0.203l-2.891 0.438q-0.297 0.844-0.609 1.422 0.547 0.781 1.672 2.156 0.156 0.187 0.156 0.391t-0.141 0.359q-0.422 0.578-1.547 1.687t-1.469 1.109q-0.187 0-0.406-0.141l-2.156-1.687q-0.688 0.359-1.422 0.594-0.25 2.125-0.453 2.906-0.109 0.438-0.562 0.438h-3.469q-0.219 0-0.383-0.133t-0.18-0.336l-0.438-2.875q-0.766-0.25-1.406-0.578l-2.203 1.672q-0.156 0.141-0.391 0.141-0.219 0-0.391-0.172-1.969-1.781-2.578-2.625-0.109-0.156-0.109-0.359 0-0.187 0.125-0.359 0.234-0.328 0.797-1.039t0.844-1.102q-0.422-0.781-0.641-1.547l-2.859-0.422q-0.203-0.031-0.328-0.195t-0.125-0.367v-3.469q0-0.187 0.125-0.359t0.297-0.203l2.906-0.438q0.219-0.719 0.609-1.437-0.625-0.891-1.672-2.156-0.156-0.187-0.156-0.375 0-0.156 0.141-0.359 0.406-0.562 1.539-1.68t1.477-1.117q0.203 0 0.406 0.156l2.156 1.672q0.688-0.359 1.422-0.594 0.25-2.125 0.453-2.906 0.109-0.437 0.562-0.437h3.469q0.219 0 0.383 0.133t0.18 0.336l0.438 2.875q0.766 0.25 1.406 0.578l2.219-1.672q0.141-0.141 0.375-0.141 0.203 0 0.391 0.156 2.016 1.859 2.578 2.656 0.109 0.125 0.109 0.344 0 0.187-0.125 0.359-0.234 0.328-0.797 1.039t-0.844 1.102q0.406 0.781 0.641 1.531l2.859 0.438q0.203 0.031 0.328 0.195t0.125 0.367z"></path>
</symbol>
<symbol id="icon-home" viewBox="0 0 26 28">
<title>home</title>
<path d="M22 15.5v7.5q0 0.406-0.297 0.703t-0.703 0.297h-6v-6h-4v6h-6q-0.406 0-0.703-0.297t-0.297-0.703v-7.5q0-0.016 0.008-0.047t0.008-0.047l8.984-7.406 8.984 7.406q0.016 0.031 0.016 0.094zM25.484 14.422l-0.969 1.156q-0.125 0.141-0.328 0.172h-0.047q-0.203 0-0.328-0.109l-10.813-9.016-10.813 9.016q-0.187 0.125-0.375 0.109-0.203-0.031-0.328-0.172l-0.969-1.156q-0.125-0.156-0.109-0.367t0.172-0.336l11.234-9.359q0.5-0.406 1.188-0.406t1.188 0.406l3.813 3.187v-3.047q0-0.219 0.141-0.359t0.359-0.141h3q0.219 0 0.359 0.141t0.141 0.359v6.375l3.422 2.844q0.156 0.125 0.172 0.336t-0.109 0.367z"></path>
</symbol>
<symbol id="icon-camera" viewBox="0 0 30 28">
<title>camera</title>
<path d="M15 10.5q1.859 0 3.18 1.32t1.32 3.18-1.32 3.18-3.18 1.32-3.18-1.32-1.32-3.18 1.32-3.18 3.18-1.32zM26 4q1.656 0 2.828 1.172t1.172 2.828v14q0 1.656-1.172 2.828t-2.828 1.172h-22q-1.656 0-2.828-1.172t-1.172-2.828v-14q0-1.656 1.172-2.828t2.828-1.172h3.5l0.797-2.125q0.297-0.766 1.086-1.32t1.617-0.555h8q0.828 0 1.617 0.555t1.086 1.32l0.797 2.125h3.5zM15 22q2.891 0 4.945-2.055t2.055-4.945-2.055-4.945-4.945-2.055-4.945 2.055-2.055 4.945 2.055 4.945 4.945 2.055z"></path>
</symbol>
<symbol id="icon-plus-circle" viewBox="0 0 28 28">
<title>plus-circle</title>
<path d="M19 15v-2q0-0.406-0.297-0.703t-0.703-0.297h-4v-4q0-0.406-0.297-0.703t-0.703-0.297h-2q-0.406 0-0.703 0.297t-0.297 0.703v4h-4q-0.406 0-0.703 0.297t-0.297 0.703v2q0 0.406 0.297 0.703t0.703 0.297h4v4q0 0.406 0.297 0.703t0.703 0.297h2q0.406 0 0.703-0.297t0.297-0.703v-4h4q0.406 0 0.703-0.297t0.297-0.703zM24 14q0 3.266-1.609 6.023t-4.367 4.367-6.023 1.609-6.023-1.609-4.367-4.367-1.609-6.023 1.609-6.023 4.367-4.367 6.023-1.609 6.023 1.609 4.367 4.367 1.609 6.023z"></path>
</symbol>
<symbol id="icon-minus-circle" viewBox="0 0 28 28">
<title>minus-circle</title>
<path d="M19 15v-2q0-0.406-0.297-0.703t-0.703-0.297h-12q-0.406 0-0.703 0.297t-0.297 0.703v2q0 0.406 0.297 0.703t0.703 0.297h12q0.406 0 0.703-0.297t0.297-0.703zM24 14q0 3.266-1.609 6.023t-4.367 4.367-6.023 1.609-6.023-1.609-4.367-4.367-1.609-6.023 1.609-6.023 4.367-4.367 6.023-1.609 6.023 1.609 4.367 4.367 1.609 6.023z"></path>
</symbol>
<symbol id="icon-times-circle" viewBox="0 0 28 28">
<title>times-circle</title>
<path d="M17.953 17.531q0-0.406-0.297-0.703l-2.828-2.828 2.828-2.828q0.297-0.297 0.297-0.703 0-0.422-0.297-0.719l-1.406-1.406q-0.297-0.297-0.719-0.297-0.406 0-0.703 0.297l-2.828 2.828-2.828-2.828q-0.297-0.297-0.703-0.297-0.422 0-0.719 0.297l-1.406 1.406q-0.297 0.297-0.297 0.719 0 0.406 0.297 0.703l2.828 2.828-2.828 2.828q-0.297 0.297-0.297 0.703 0 0.422 0.297 0.719l1.406 1.406q0.297 0.297 0.719 0.297 0.406 0 0.703-0.297l2.828-2.828 2.828 2.828q0.297 0.297 0.703 0.297 0.422 0 0.719-0.297l1.406-1.406q0.297-0.297 0.297-0.719zM24 14q0 3.266-1.609 6.023t-4.367 4.367-6.023 1.609-6.023-1.609-4.367-4.367-1.609-6.023 1.609-6.023 4.367-4.367 6.023-1.609 6.023 1.609 4.367 4.367 1.609 6.023z"></path>
</symbol>
<symbol id="icon-check-circle" viewBox="0 0 28 28">
<title>check-circle</title>
<path d="M20.062 11.469q0-0.438-0.281-0.719l-1.422-1.406q-0.297-0.297-0.703-0.297t-0.703 0.297l-6.375 6.359-3.531-3.531q-0.297-0.297-0.703-0.297t-0.703 0.297l-1.422 1.406q-0.281 0.281-0.281 0.719 0 0.422 0.281 0.703l5.656 5.656q0.297 0.297 0.703 0.297 0.422 0 0.719-0.297l8.484-8.484q0.281-0.281 0.281-0.703zM24 14q0 3.266-1.609 6.023t-4.367 4.367-6.023 1.609-6.023-1.609-4.367-4.367-1.609-6.023 1.609-6.023 4.367-4.367 6.023-1.609 6.023 1.609 4.367 4.367 1.609 6.023z"></path>
</symbol>
<symbol id="icon-question-circle" viewBox="0 0 28 28">
<title>question-circle</title>
<path d="M14 21.5v-3q0-0.219-0.141-0.359t-0.359-0.141h-3q-0.219 0-0.359 0.141t-0.141 0.359v3q0 0.219 0.141 0.359t0.359 0.141h3q0.219 0 0.359-0.141t0.141-0.359zM18 11q0-1.375-0.867-2.547t-2.164-1.813-2.656-0.641q-3.797 0-5.797 3.328-0.234 0.375 0.125 0.656l2.063 1.563q0.109 0.094 0.297 0.094 0.25 0 0.391-0.187 0.828-1.062 1.344-1.437 0.531-0.375 1.344-0.375 0.75 0 1.336 0.406t0.586 0.922q0 0.594-0.313 0.953t-1.062 0.703q-0.984 0.438-1.805 1.352t-0.82 1.961v0.562q0 0.219 0.141 0.359t0.359 0.141h3q0.219 0 0.359-0.141t0.141-0.359q0-0.297 0.336-0.773t0.852-0.773q0.5-0.281 0.766-0.445t0.719-0.547 0.695-0.75 0.438-0.945 0.195-1.266zM24 14q0 3.266-1.609 6.023t-4.367 4.367-6.023 1.609-6.023-1.609-4.367-4.367-1.609-6.023 1.609-6.023 4.367-4.367 6.023-1.609 6.023 1.609 4.367 4.367 1.609 6.023z"></path>
</symbol>
<symbol id="icon-times-circle-o" viewBox="0 0 28 28">
<title>times-circle-o</title>
<path d="M17.141 16.859l-2.281 2.281q-0.156 0.156-0.359 0.156t-0.359-0.156l-2.141-2.141-2.141 2.141q-0.156 0.156-0.359 0.156t-0.359-0.156l-2.281-2.281q-0.156-0.156-0.156-0.359t0.156-0.359l2.141-2.141-2.141-2.141q-0.156-0.156-0.156-0.359t0.156-0.359l2.281-2.281q0.156-0.156 0.359-0.156t0.359 0.156l2.141 2.141 2.141-2.141q0.156-0.156 0.359-0.156t0.359 0.156l2.281 2.281q0.156 0.156 0.156 0.359t-0.156 0.359l-2.141 2.141 2.141 2.141q0.156 0.156 0.156 0.359t-0.156 0.359zM20.5 14q0-2.312-1.141-4.266t-3.094-3.094-4.266-1.141-4.266 1.141-3.094 3.094-1.141 4.266 1.141 4.266 3.094 3.094 4.266 1.141 4.266-1.141 3.094-3.094 1.141-4.266zM24 14q0 3.266-1.609 6.023t-4.367 4.367-6.023 1.609-6.023-1.609-4.367-4.367-1.609-6.023 1.609-6.023 4.367-4.367 6.023-1.609 6.023 1.609 4.367 4.367 1.609 6.023z"></path>
</symbol>
<symbol id="icon-thumbs-o-up" viewBox="0 0 28 28">
<title>thumbs-o-up</title>
<path d="M4 21q0-0.406-0.297-0.703t-0.703-0.297-0.703 0.297-0.297 0.703 0.297 0.703 0.703 0.297 0.703-0.297 0.297-0.703zM22 12q0-0.797-0.609-1.398t-1.391-0.602h-5.5q0-0.906 0.75-2.492t0.75-2.508q0-1.531-0.5-2.266t-2-0.734q-0.406 0.406-0.594 1.328t-0.477 1.961-0.93 1.711q-0.344 0.359-1.203 1.422-0.063 0.078-0.359 0.469t-0.492 0.641-0.539 0.664-0.625 0.688-0.602 0.555-0.625 0.422-0.555 0.141h-0.5v10h0.5q0.203 0 0.492 0.047t0.516 0.102 0.594 0.172 0.547 0.18 0.555 0.195 0.453 0.164q3.297 1.141 5.344 1.141h1.891q3 0 3-2.609 0-0.406-0.078-0.875 0.469-0.25 0.742-0.82t0.273-1.148-0.281-1.078q0.828-0.781 0.828-1.859 0-0.391-0.156-0.867t-0.391-0.742q0.5-0.016 0.836-0.734t0.336-1.266zM24 11.984q0 1.391-0.766 2.547 0.141 0.516 0.141 1.078 0 1.203-0.594 2.25 0.047 0.328 0.047 0.672 0 1.578-0.938 2.781 0.016 2.172-1.328 3.43t-3.547 1.258h-2.016q-1.5 0-2.961-0.352t-3.383-1.023q-1.813-0.625-2.156-0.625h-4.5q-0.828 0-1.414-0.586t-0.586-1.414v-10q0-0.828 0.586-1.414t1.414-0.586h4.281q0.562-0.375 2.141-2.422 0.906-1.172 1.672-2 0.375-0.391 0.555-1.336t0.477-1.977 0.969-1.687q0.609-0.578 1.406-0.578 1.313 0 2.359 0.508t1.594 1.586 0.547 2.906q0 1.453-0.75 3h2.75q1.625 0 2.812 1.188t1.188 2.797z"></path>
</symbol>
<symbol id="icon-group" viewBox="0 0 30 28">
<title>group</title>
<path d="M9.266 14q-2.531 0.078-4.141 2h-2.094q-1.281 0-2.156-0.633t-0.875-1.852q0-5.516 1.937-5.516 0.094 0 0.68 0.328t1.523 0.664 1.859 0.336q1.047 0 2.078-0.359-0.078 0.578-0.078 1.031 0 2.172 1.266 4zM26 23.953q0 1.875-1.141 2.961t-3.031 1.086h-13.656q-1.891 0-3.031-1.086t-1.141-2.961q0-0.828 0.055-1.617t0.219-1.703 0.414-1.695 0.672-1.523 0.969-1.266 1.336-0.836 1.742-0.313q0.156 0 0.672 0.336t1.141 0.75 1.672 0.75 2.109 0.336 2.109-0.336 1.672-0.75 1.141-0.75 0.672-0.336q0.953 0 1.742 0.313t1.336 0.836 0.969 1.266 0.672 1.523 0.414 1.695 0.219 1.703 0.055 1.617zM10 4q0 1.656-1.172 2.828t-2.828 1.172-2.828-1.172-1.172-2.828 1.172-2.828 2.828-1.172 2.828 1.172 1.172 2.828zM21 10q0 2.484-1.758 4.242t-4.242 1.758-4.242-1.758-1.758-4.242 1.758-4.242 4.242-1.758 4.242 1.758 1.758 4.242zM30 13.516q0 1.219-0.875 1.852t-2.156 0.633h-2.094q-1.609-1.922-4.141-2 1.266-1.828 1.266-4 0-0.453-0.078-1.031 1.031 0.359 2.078 0.359 0.922 0 1.859-0.336t1.523-0.664 0.68-0.328q1.937 0 1.937 5.516zM28 4q0 1.656-1.172 2.828t-2.828 1.172-2.828-1.172-1.172-2.828 1.172-2.828 2.828-1.172 2.828 1.172 1.172 2.828z"></path>
</symbol>
<symbol id="icon-caret-down" viewBox="0 0 16 28">
<title>caret-down</title>
<path d="M16 11q0 0.406-0.297 0.703l-7 7q-0.297 0.297-0.703 0.297t-0.703-0.297l-7-7q-0.297-0.297-0.297-0.703t0.297-0.703 0.703-0.297h14q0.406 0 0.703 0.297t0.297 0.703z"></path>
</symbol>
<symbol id="icon-caret-up" viewBox="0 0 16 28">
<title>caret-up</title>
<path d="M16 19q0 0.406-0.297 0.703t-0.703 0.297h-14q-0.406 0-0.703-0.297t-0.297-0.703 0.297-0.703l7-7q0.297-0.297 0.703-0.297t0.703 0.297l7 7q0.297 0.297 0.297 0.703z"></path>
</symbol>
<symbol id="icon-caret-left" viewBox="0 0 10 28">
<title>caret-left</title>
<path d="M10 7v14q0 0.406-0.297 0.703t-0.703 0.297-0.703-0.297l-7-7q-0.297-0.297-0.297-0.703t0.297-0.703l7-7q0.297-0.297 0.703-0.297t0.703 0.297 0.297 0.703z"></path>
</symbol>
<symbol id="icon-caret-right" viewBox="0 0 10 28">
<title>caret-right</title>
<path d="M9 14q0 0.406-0.297 0.703l-7 7q-0.297 0.297-0.703 0.297t-0.703-0.297-0.297-0.703v-14q0-0.406 0.297-0.703t0.703-0.297 0.703 0.297l7 7q0.297 0.297 0.297 0.703z"></path>
</symbol>
<symbol id="icon-bell" viewBox="0 0 28 28">
<title>bell</title>
<path d="M14.25 26.5q0-0.25-0.25-0.25-0.922 0-1.586-0.664t-0.664-1.586q0-0.25-0.25-0.25t-0.25 0.25q0 1.141 0.805 1.945t1.945 0.805q0.25 0 0.25-0.25zM27 22q0 0.812-0.594 1.406t-1.406 0.594h-7q0 1.656-1.172 2.828t-2.828 1.172-2.828-1.172-1.172-2.828h-7q-0.812 0-1.406-0.594t-0.594-1.406q0.781-0.656 1.422-1.375t1.328-1.867 1.164-2.477 0.781-3.219 0.305-4.062q0-2.375 1.828-4.414t4.797-2.477q-0.125-0.297-0.125-0.609 0-0.625 0.438-1.062t1.062-0.438 1.062 0.438 0.438 1.062q0 0.313-0.125 0.609 2.969 0.438 4.797 2.477t1.828 4.414q0 2.172 0.305 4.062t0.781 3.219 1.164 2.477 1.328 1.867 1.422 1.375z"></path>
</symbol>
<symbol id="icon-angle-right" viewBox="0 0 10 28">
<title>angle-right</title>
<path d="M9.297 15q0 0.203-0.156 0.359l-7.281 7.281q-0.156 0.156-0.359 0.156t-0.359-0.156l-0.781-0.781q-0.156-0.156-0.156-0.359t0.156-0.359l6.141-6.141-6.141-6.141q-0.156-0.156-0.156-0.359t0.156-0.359l0.781-0.781q0.156-0.156 0.359-0.156t0.359 0.156l7.281 7.281q0.156 0.156 0.156 0.359z"></path>
</symbol>
<symbol id="icon-angle-down" viewBox="0 0 18 28">
<title>angle-down</title>
<path d="M16.797 11.5q0 0.203-0.156 0.359l-7.281 7.281q-0.156 0.156-0.359 0.156t-0.359-0.156l-7.281-7.281q-0.156-0.156-0.156-0.359t0.156-0.359l0.781-0.781q0.156-0.156 0.359-0.156t0.359 0.156l6.141 6.141 6.141-6.141q0.156-0.156 0.359-0.156t0.359 0.156l0.781 0.781q0.156 0.156 0.156 0.359z"></path>
</symbol>
<symbol id="icon-circle-o" viewBox="0 0 28 28">
<title>circle-o</title>
<path d="M12 5.5q-2.312 0-4.266 1.141t-3.094 3.094-1.141 4.266 1.141 4.266 3.094 3.094 4.266 1.141 4.266-1.141 3.094-3.094 1.141-4.266-1.141-4.266-3.094-3.094-4.266-1.141zM24 14q0 3.266-1.609 6.023t-4.367 4.367-6.023 1.609-6.023-1.609-4.367-4.367-1.609-6.023 1.609-6.023 4.367-4.367 6.023-1.609 6.023 1.609 4.367 4.367 1.609 6.023z"></path>
</symbol>
<symbol id="icon-chevron-circle-left" viewBox="0 0 28 28">
<title>chevron-circle-left</title>
<path d="M14.203 21.797l1.594-1.594q0.297-0.297 0.297-0.703t-0.297-0.703l-4.797-4.797 4.797-4.797q0.297-0.297 0.297-0.703t-0.297-0.703l-1.594-1.594q-0.297-0.297-0.703-0.297t-0.703 0.297l-7.094 7.094q-0.297 0.297-0.297 0.703t0.297 0.703l7.094 7.094q0.297 0.297 0.703 0.297t0.703-0.297zM24 14q0 3.266-1.609 6.023t-4.367 4.367-6.023 1.609-6.023-1.609-4.367-4.367-1.609-6.023 1.609-6.023 4.367-4.367 6.023-1.609 6.023 1.609 4.367 4.367 1.609 6.023z"></path>
</symbol>
<symbol id="icon-chevron-circle-right" viewBox="0 0 28 28">
<title>chevron-circle-right</title>
<path d="M11.203 21.797l7.094-7.094q0.297-0.297 0.297-0.703t-0.297-0.703l-7.094-7.094q-0.297-0.297-0.703-0.297t-0.703 0.297l-1.594 1.594q-0.297 0.297-0.297 0.703t0.297 0.703l4.797 4.797-4.797 4.797q-0.297 0.297-0.297 0.703t0.297 0.703l1.594 1.594q0.297 0.297 0.703 0.297t0.703-0.297zM24 14q0 3.266-1.609 6.023t-4.367 4.367-6.023 1.609-6.023-1.609-4.367-4.367-1.609-6.023 1.609-6.023 4.367-4.367 6.023-1.609 6.023 1.609 4.367 4.367 1.609 6.023z"></path>
</symbol>
<symbol id="icon-chevron-circle-up" viewBox="0 0 28 28">
<title>chevron-circle-up</title>
<path d="M18.203 17.797l1.594-1.594q0.297-0.297 0.297-0.703t-0.297-0.703l-7.094-7.094q-0.297-0.297-0.703-0.297t-0.703 0.297l-7.094 7.094q-0.297 0.297-0.297 0.703t0.297 0.703l1.594 1.594q0.297 0.297 0.703 0.297t0.703-0.297l4.797-4.797 4.797 4.797q0.297 0.297 0.703 0.297t0.703-0.297zM24 14q0 3.266-1.609 6.023t-4.367 4.367-6.023 1.609-6.023-1.609-4.367-4.367-1.609-6.023 1.609-6.023 4.367-4.367 6.023-1.609 6.023 1.609 4.367 4.367 1.609 6.023z"></path>
</symbol>
<symbol id="icon-chevron-circle-down" viewBox="0 0 28 28">
<title>chevron-circle-down</title>
<path d="M12.703 20.297l7.094-7.094q0.297-0.297 0.297-0.703t-0.297-0.703l-1.594-1.594q-0.297-0.297-0.703-0.297t-0.703 0.297l-4.797 4.797-4.797-4.797q-0.297-0.297-0.703-0.297t-0.703 0.297l-1.594 1.594q-0.297 0.297-0.297 0.703t0.297 0.703l7.094 7.094q0.297 0.297 0.703 0.297t0.703-0.297zM24 14q0 3.266-1.609 6.023t-4.367 4.367-6.023 1.609-6.023-1.609-4.367-4.367-1.609-6.023 1.609-6.023 4.367-4.367 6.023-1.609 6.023 1.609 4.367 4.367 1.609 6.023z"></path>
</symbol>
<symbol id="icon-line-chart" viewBox="0 0 32 28">
<title>line-chart</title>
<path d="M32 24v2h-32v-24h2v22h30zM30 4.5v6.797q0 0.328-0.305 0.461t-0.555-0.117l-1.891-1.891-9.891 9.891q-0.156 0.156-0.359 0.156t-0.359-0.156l-3.641-3.641-6.5 6.5-3-3 9.141-9.141q0.156-0.156 0.359-0.156t0.359 0.156l3.641 3.641 7.25-7.25-1.891-1.891q-0.25-0.25-0.117-0.555t0.461-0.305h6.797q0.219 0 0.359 0.141t0.141 0.359z"></path>
</symbol>
<symbol id="icon-search" viewBox="0 0 26 28">
<title>search</title>
<path d="M0 13q0-2.234 0.867-4.273t2.344-3.516 3.516-2.344 4.273-0.867 4.273 0.867 3.516 2.344 2.344 3.516 0.867 4.273q0 3.437-1.937 6.234l5.359 5.359q0.578 0.578 0.578 1.406 0 0.812-0.594 1.406t-1.406 0.594q-0.844 0-1.406-0.594l-5.359-5.344q-2.797 1.937-6.234 1.937-2.234 0-4.273-0.867t-3.516-2.344-2.344-3.516-0.867-4.273zM4 13q0 2.891 2.055 4.945t4.945 2.055 4.945-2.055 2.055-4.945-2.055-4.945-4.945-2.055-4.945 2.055-2.055 4.945z"></path>
</symbol>
<symbol id="icon-check" viewBox="0 0 28 28">
<title>check</title>
<path d="M1.891 14.5q0-0.625 0.438-1.062l2.125-2.125q0.438-0.438 1.062-0.438t1.062 0.438l4.594 4.609 10.25-10.266q0.438-0.438 1.062-0.438t1.062 0.438l2.125 2.125q0.438 0.438 0.438 1.062t-0.438 1.062l-13.438 13.438q-0.438 0.438-1.062 0.438t-1.062-0.438l-7.781-7.781q-0.438-0.438-0.438-1.062z"></path>
</symbol>
<symbol id="icon-times" viewBox="0 0 22 28">
<title>times</title>
<path d="M1.719 20.656q0-0.625 0.438-1.062l4.594-4.594-4.594-4.594q-0.438-0.438-0.438-1.062t0.438-1.062l2.125-2.125q0.438-0.438 1.062-0.438t1.062 0.438l4.594 4.594 4.594-4.594q0.438-0.438 1.062-0.438t1.062 0.438l2.125 2.125q0.438 0.438 0.438 1.062t-0.438 1.062l-4.594 4.594 4.594 4.594q0.438 0.438 0.438 1.062t-0.438 1.062l-2.125 2.125q-0.438 0.438-1.062 0.438t-1.062-0.438l-4.594-4.594-4.594 4.594q-0.438 0.438-1.062 0.438t-1.062-0.438l-2.125-2.125q-0.438-0.438-0.438-1.062z"></path>
</symbol>
<symbol id="icon-comment" viewBox="0 0 28 28">
<title>comment</title>
<path d="M0 14q0-2.031 1.109-3.883t2.984-3.195 4.469-2.133 5.437-0.789q3.813 0 7.031 1.336t5.094 3.641 1.875 5.023-1.875 5.023-5.094 3.641-7.031 1.336q-1.094 0-2.266-0.125-3.094 2.734-7.187 3.781-0.766 0.219-1.781 0.344-0.266 0.031-0.477-0.141t-0.273-0.453v-0.016q-0.047-0.063-0.008-0.187t0.031-0.156 0.070-0.148l0.094-0.141t0.109-0.133 0.125-0.141q0.109-0.125 0.484-0.539t0.539-0.594 0.484-0.617 0.508-0.797 0.422-0.922 0.406-1.188q-2.453-1.391-3.867-3.437t-1.414-4.391z"></path>
</symbol>
<symbol id="icon-bar-chart-o" viewBox="0 0 30 28">
<title>bar-chart-o</title>
<path d="M0 23.5v-19q0-1.031 0.734-1.766t1.766-0.734h25q1.031 0 1.766 0.734t0.734 1.766v19q0 1.031-0.734 1.766t-1.766 0.734h-25q-1.031 0-1.766-0.734t-0.734-1.766zM2 23.5q0 0.203 0.148 0.352t0.352 0.148h25q0.203 0 0.352-0.148t0.148-0.352v-19q0-0.203-0.148-0.352t-0.352-0.148h-25q-0.203 0-0.352 0.148t-0.148 0.352v19zM4 22v-6h4v6h-4zM10 22v-14h4v14h-4zM16 22v-10h4v10h-4zM22 22v-16h4v16h-4z"></path>
</symbol>
<symbol id="icon-navicon" viewBox="0 0 28 28">
<title>navicon</title>
<path d="M0 23v-2q0-0.406 0.297-0.703t0.703-0.297h22q0.406 0 0.703 0.297t0.297 0.703v2q0 0.406-0.297 0.703t-0.703 0.297h-22q-0.406 0-0.703-0.297t-0.297-0.703zM0 15v-2q0-0.406 0.297-0.703t0.703-0.297h22q0.406 0 0.703 0.297t0.297 0.703v2q0 0.406-0.297 0.703t-0.703 0.297h-22q-0.406 0-0.703-0.297t-0.297-0.703zM0 7v-2q0-0.406 0.297-0.703t0.703-0.297h22q0.406 0 0.703 0.297t0.297 0.703v2q0 0.406-0.297 0.703t-0.703 0.297h-22q-0.406 0-0.703-0.297t-0.297-0.703z"></path>
</symbol>
<symbol id="icon-spinner" viewBox="0 0 25 28">
<title>spinner</title>
<path d="M0 14q0-1.031 0.734-1.766t1.766-0.734 1.766 0.734 0.734 1.766-0.734 1.766-1.766 0.734-1.766-0.734-0.734-1.766zM2.75 7q0-1.141 0.805-1.945t1.945-0.805 1.945 0.805 0.805 1.945-0.805 1.945-1.945 0.805-1.945-0.805-0.805-1.945zM3.25 21q0-0.938 0.656-1.594t1.594-0.656q0.922 0 1.586 0.656t0.664 1.594-0.664 1.594-1.586 0.656q-0.938 0-1.594-0.656t-0.656-1.594zM9.5 4q0-1.25 0.875-2.125t2.125-0.875 2.125 0.875 0.875 2.125-0.875 2.125-2.125 0.875-2.125-0.875-0.875-2.125zM10.5 24q0-0.828 0.586-1.414t1.414-0.586 1.414 0.586 0.586 1.414-0.586 1.414-1.414 0.586-1.414-0.586-0.586-1.414zM17.75 21q0-0.719 0.516-1.234t1.234-0.516 1.234 0.516 0.516 1.234-0.516 1.234-1.234 0.516-1.234-0.516-0.516-1.234zM18.25 7q0-0.516 0.367-0.883t0.883-0.367 0.883 0.367 0.367 0.883-0.367 0.883-0.883 0.367-0.883-0.367-0.367-0.883zM21 14q0-0.625 0.438-1.062t1.062-0.438 1.062 0.438 0.438 1.062-0.438 1.062-1.062 0.438-1.062-0.438-0.438-1.062z"></path>
</symbol>
<symbol id="icon-circle" viewBox="0 0 28 28">
<title>circle</title>
<path d="M0 14q0-3.266 1.609-6.023t4.367-4.367 6.023-1.609 6.023 1.609 4.367 4.367 1.609 6.023-1.609 6.023-4.367 4.367-6.023 1.609-6.023-1.609-4.367-4.367-1.609-6.023z"></path>
</symbol>
<symbol id="icon-microphone" viewBox="0 0 18 28">
<title>microphone</title>
<path d="M0 13v-2q0-0.406 0.297-0.703t0.703-0.297 0.703 0.297 0.297 0.703v2q0 2.891 2.055 4.945t4.945 2.055 4.945-2.055 2.055-4.945v-2q0-0.406 0.297-0.703t0.703-0.297 0.703 0.297 0.297 0.703v2q0 3.453-2.305 6.008t-5.695 2.93v2.063h4q0.406 0 0.703 0.297t0.297 0.703-0.297 0.703-0.703 0.297h-10q-0.406 0-0.703-0.297t-0.297-0.703 0.297-0.703 0.703-0.297h4v-2.063q-3.391-0.375-5.695-2.93t-2.305-6.008zM4 13v-8q0-2.063 1.469-3.531t3.531-1.469 3.531 1.469 1.469 3.531v8q0 2.063-1.469 3.531t-3.531 1.469-3.531-1.469-1.469-3.531z"></path>
</symbol>
<symbol id="icon-share-alt" viewBox="0 0 28 28">
<title>share-alt</title>
<path d="M0 14q0-2.078 1.461-3.539t3.539-1.461q1.969 0 3.406 1.344l5.625-2.812q-0.031-0.344-0.031-0.531 0-2.078 1.461-3.539t3.539-1.461 3.539 1.461 1.461 3.539-1.461 3.539-3.539 1.461q-1.969 0-3.406-1.344l-5.625 2.812q0.031 0.344 0.031 0.531t-0.031 0.531l5.625 2.812q1.437-1.344 3.406-1.344 2.078 0 3.539 1.461t1.461 3.539-1.461 3.539-3.539 1.461-3.539-1.461-1.461-3.539q0-0.187 0.031-0.531l-5.625-2.812q-1.437 1.344-3.406 1.344-2.078 0-3.539-1.461t-1.461-3.539z"></path>
</symbol>
</defs>
</svg>
