<?xml version="1.0" encoding="utf-8"?>
<!-- Generated by IcoMoon.io -->
<!DOCTYPE svg PUBLIC "-//W3C//DTD SVG 1.1//EN" "http://www.w3.org/Graphics/SVG/1.1/DTD/svg11.dtd">
<svg version="1.1" xmlns="http://www.w3.org/2000/svg" xmlns:xlink="http://www.w3.org/1999/xlink" width="754" height="176" viewBox="0 0 754 176">
<svg id="icon-calendar" width="32" height="32" viewBox="0 0 32 32" x="0" y="0">
<path fill="#000000" d="M10 12h4v4h-4zM16 12h4v4h-4zM22 12h4v4h-4zM4 24h4v4h-4zM10 24h4v4h-4zM16 24h4v4h-4zM10 18h4v4h-4zM16 18h4v4h-4zM22 18h4v4h-4zM4 18h4v4h-4zM26 0v2h-4v-2h-14v2h-4v-2h-4v32h30v-32h-4zM28 30h-26v-22h26v22z"></path>
</svg>
<svg id="icon-placeholder-community" width="32" height="32" viewBox="0 0 32 32" x="48" y="0">
<path fill="#000000" d="M28.912 29.697v0c0.935-0.645 1.55-1.727 1.55-2.954 0-0.046-0.001-0.091-0.003-0.137h-0.017c-0.003-0.253-0.034-0.5-0.088-0.738-0.385-1.54-1.762-2.683-3.404-2.705v-0.067c-0.029-0.001-0.058-0.001-0.088-0.001-0.429 0-0.84 0.075-1.22 0.212v0c1.64 1.746 2.8 3.944 3.27 6.39zM26.95 32.144h-4.679c-0.046-3.365-2.796-6.089-6.187-6.089s-6.141 2.724-6.187 6.089h-4.749v2.107c0 0 0.007 0.001-0.001 0.001-4.135 0-7.463-3.373-7.463-7.533 0-1.778 0.609-3.412 1.63-4.7 1.378-1.753 3.53-2.877 5.947-2.877 1.766 0 3.389 0.601 4.674 1.609v0c1.842-0.99 3.951-1.551 6.193-1.551 2.203 0 4.279 0.543 6.098 1.503 1.274-0.979 2.875-1.562 4.613-1.562 2.417 0 4.569 1.124 5.947 2.877 1.021 1.288 1.63 2.922 1.63 4.7 0 4.16-3.329 7.533-7.463 7.533-0.008-0-0.001-0.001-0.001-0.001v-2.107zM3.322 29.787c0.453-2.463 1.605-4.678 3.244-6.438-0.411-0.164-0.86-0.254-1.33-0.254-0.029 0-0.059 0-0.088 0.001v0.067c-1.642 0.022-3.019 1.165-3.404 2.705-0.054 0.238-0.084 0.485-0.088 0.738h-0.017c-0.002 0.045-0.003 0.091-0.003 0.137 0 1.286 0.675 2.412 1.686 3.043v0zM16.119 18.126c3.045 0 5.513-2.461 5.513-5.497s-2.468-5.497-5.513-5.497c-3.045 0-5.513 2.461-5.513 5.497s2.468 5.497 5.513 5.497zM5.627 18.196c1.53 0 2.77-1.233 2.77-2.755s-1.24-2.755-2.77-2.755c-1.53 0-2.77 1.233-2.77 2.755s1.24 2.755 2.77 2.755zM26.655 18.196c1.53 0 2.77-1.233 2.77-2.755s-1.24-2.755-2.77-2.755c-1.53 0-2.77 1.233-2.77 2.755s1.24 2.755 2.77 2.755z"></path>
</svg>
<svg id="icon-placeholder-user" width="32" height="32" viewBox="0 0 32 32" x="96" y="0">
<path fill="#000000" d="M10.003 32.085c0.046-3.365 2.796-6.089 6.187-6.089s6.141 2.724 6.187 6.089h6.873c0 0 0.001 0.026 0.001 0.012 0-7.17-5.829-12.955-13.018-12.955s-13.019 5.772-13.019 12.941c0 0.014 0.001 0.002 0.001 0.002h6.788zM16.233 18.196c3.045 0 5.513-2.461 5.513-5.497s-2.468-5.497-5.513-5.497c-3.045 0-5.513 2.461-5.513 5.497s2.468 5.497 5.513 5.497z"></path>
</svg>
<svg id="icon-magnifying-glass" width="34" height="32" viewBox="0 0 34 32" x="144" y="0">
<path fill="rgb(68, 68, 68)" d="M13.811 26.186c-7.178 0-13.018-5.84-13.018-13.017s5.84-13.018 13.018-13.018c7.178 0 13.017 5.84 13.017 13.018s-5.84 13.017-13.017 13.017v0zM13.805 1.802c-6.265 0-11.361 5.096-11.361 11.361 0 6.263 5.096 11.359 11.361 11.359 6.263 0 11.359-5.096 11.359-11.359 0-6.265-5.096-11.361-11.359-11.361zM29.834 31.573c0.318 0.318 0.734 0.476 1.15 0.476 0.415 0 0.831-0.158 1.149-0.476 0.635-0.634 0.635-1.665 0-2.299l-7.579-7.355c-0.635-0.635-1.664-0.635-2.299 0-0.635 0.634-0.635 1.665 0 2.299l7.579 7.355z"></path>
</svg>
<svg id="icon-menu-toggle" width="7" height="32" viewBox="0 0 7 32" x="192" y="0">
<path fill="rgb(68, 68, 68)" d="M3.636 7.385c2.008 0 3.636-1.653 3.636-3.692s-1.628-3.692-3.636-3.692c-2.008 0-3.636 1.653-3.636 3.692s1.628 3.692 3.636 3.692zM3.636 19.692c2.008 0 3.636-1.653 3.636-3.692s-1.628-3.692-3.636-3.692c-2.008 0-3.636 1.653-3.636 3.692s1.628 3.692 3.636 3.692zM3.636 32c2.008 0 3.636-1.653 3.636-3.692s-1.628-3.692-3.636-3.692c-2.008 0-3.636 1.653-3.636 3.692s1.628 3.692 3.636 3.692z"></path>
</svg>
<svg id="icon-notification" width="32" height="32" viewBox="0 0 32 32" x="240" y="0">
<path fill="rgb(68, 68, 68)" d="M9.452 31.868c-0.278 0-0.54-0.132-0.717-0.358l-4.335-5.568h-2.911c-0.718 0-1.302-0.62-1.302-1.383v-22.98c0-0.762 0.584-1.383 1.302-1.383h29.023c0.718 0 1.302 0.62 1.302 1.383v22.98c0 0.763-0.584 1.383-1.302 1.383h-16.008l-4.335 5.568c-0.177 0.227-0.44 0.358-0.717 0.358v0zM4.454 24.267c0.718 0 0.846 0.182 1.1 0.413l3.897 4.92 3.515-4.92c0.248-0.247 0.572-0.413 1.101-0.413h16.269v-22.533h-28.672v22.533h2.79zM18.663 18.807c-0.415 0-0.79-0.289-0.943-0.733l-1.928-5.576-1.547 4.443c-0.138 0.397-0.457 0.675-0.828 0.723-0.373 0.051-0.736-0.142-0.949-0.492l-1.75-2.89-1.575 2.169c-0.358 0.493-0.998 0.56-1.429 0.152s-0.49-1.14-0.133-1.633l2.429-3.345c0.203-0.279 0.507-0.44 0.825-0.418 0.317 0.016 0.609 0.2 0.79 0.499l1.433 2.369 1.793-5.148c0.154-0.441 0.527-0.731 0.943-0.731h0.001c0.416 0.001 0.789 0.291 0.942 0.733l1.801 5.21 1.974-7.396c0.121-0.455 0.474-0.779 0.889-0.818 0.41-0.039 0.808 0.217 0.992 0.645l2.154 5.017c0.247 0.574 0.039 1.269-0.464 1.552-0.504 0.281-1.111 0.044-1.358-0.53l-1.022-2.381-2.071 7.761c-0.126 0.471-0.499 0.8-0.93 0.82-0.013 0.001-0.027 0.001-0.041 0.001v0z"></path>
</svg>
<svg id="icon-newspaper" width="44" height="32" viewBox="0 0 44 32" x="288" y="0">
<path fill="rgb(68, 68, 68)" d="M38.62 12.326c0.003-0.416 0.009-0.746 0.016-0.932 0.009-0.212-0.067-0.417-0.212-0.57s-0.342-0.238-0.551-0.236c-0.593 0.004-3.946 0.014-6.586 0.014-0.799 0-1.534-0.001-2.107-0.004-0.286-0.001-0.532-0.003-0.724-0.004-0.192-0.002-0.334-0.004-0.397-0.006-0.281-0.010-0.528 0.14-0.666 0.367-0.102 0.141-0.161 0.315-0.15 0.502 0 0.001 0.001 0.026 0.002 0.058 0.002 0.118 0.005 0.362 0.007 0.681 0.001 0.32 0.001 0.719 0.001 1.164 0 2.034-0.011 5.007-0.011 5.732 0 0.13-0.004 0.221-0.007 0.308-0.004 0.089-0.008 0.177-0.008 0.285 0 0.143 0.010 0.306 0.034 0.513 0.044 0.38 0.351 0.668 0.726 0.681 1.060 0.037 2.307 0.040 3.352 0.040h0.016c0.444 0 1.193 0.012 2.032 0.024 0.84 0.012 1.774 0.025 2.605 0.025 0.395 0 0.766-0.003 1.096-0.010s0.615-0.017 0.847-0.036c0.394-0.031 0.7-0.366 0.701-0.769 0.001-0.040 0.001-0.084 0.001-0.132 0-1.039-0.023-4.001-0.023-6.22 0.001-0.551 0.003-1.057 0.007-1.474v0zM37.056 19.413c-0.313 0.006-0.676 0.009-1.064 0.009-0.817 0-1.746-0.012-2.584-0.023-0.84-0.013-1.586-0.025-2.053-0.025h-0.016c-0.809 0-1.733-0.003-2.586-0.020 0.002-0.074 0.004-0.159 0.004-0.26 0-0.717 0.011-3.696 0.011-5.732 0-0.47 0-0.885-0.002-1.217 0.614 0.004 1.514 0.006 2.522 0.006 2.054 0 4.531-0.006 5.818-0.011-0.001 0.058-0.002 0.113-0.002 0.174-0.004 0.423-0.005 0.934-0.005 1.49 0 1.882 0.016 4.288 0.021 5.609-0.021 0.001-0.041 0.001-0.064 0.002v0z"></path>
<path fill="rgb(68, 68, 68)" d="M43.303 7.327c-0.007-0.406-0.319-0.737-0.716-0.759-2.158-0.119-4.336-0.194-6.523-0.241l-2.266-5.817c-0.078-0.201-0.237-0.361-0.434-0.438s-0.42-0.065-0.609 0.031c0 0-0.041 0.021-0.121 0.062-0.597 0.303-3.328 1.679-6.3 3.055-1.486 0.688-3.031 1.377-4.395 1.93-0.682 0.277-1.318 0.519-1.874 0.711s-1.035 0.33-1.382 0.399c-0.116 0.024-0.219 0.076-0.308 0.145-3.511 0.057-6.986 0.111-10.383 0.111h-0.172c-0.135 0-0.26 0.039-0.37 0.103-0.017 0.010-0.037 0.018-0.054 0.029-0.002 0.002-0.003 0.004-0.005 0.004-0.199 0.14-0.329 0.373-0.329 0.638 0 1.405 0.006 2.854 0.016 4.321-0.112-0.004-0.226 0.016-0.335 0.067-1.913 0.894-3.827 1.78-5.748 2.646-0.012 0.006-0.022 0.014-0.033 0.019-0.024 0.013-0.047 0.026-0.070 0.040-0.020 0.014-0.040 0.028-0.059 0.043s-0.037 0.031-0.054 0.049c-0.019 0.018-0.036 0.037-0.052 0.057-0.015 0.018-0.029 0.037-0.043 0.056-0.014 0.021-0.028 0.042-0.040 0.064-0.012 0.021-0.022 0.043-0.033 0.066s-0.019 0.044-0.026 0.068c-0.008 0.023-0.014 0.048-0.020 0.073s-0.010 0.049-0.013 0.074c-0.003 0.023-0.005 0.047-0.005 0.071-0.001 0.028 0 0.056 0.002 0.084 0.001 0.013-0.001 0.025 0.001 0.039 0.162 1.327 0.646 2.654 1.196 3.93 0.551 1.274 1.176 2.498 1.643 3.564 0.59 1.347 1.318 2.839 2.051 4.321 0.72 1.455 1.445 2.9 2.051 4.177 0.020 0.412 0.351 0.735 0.756 0.735 12.397 0 34.568-0.010 34.568-0.010 0.203 0 0.395-0.082 0.538-0.23s0.221-0.345 0.22-0.551c-0.001 0.001-0.142-16.548-0.271-23.737v0zM24.542 5.724c3.199-1.404 6.669-3.12 8.151-3.863l1.728 4.439c-1.351-0.018-2.706-0.027-4.061-0.027-2.415 0-4.832 0.026-7.239 0.060 0.463-0.194 0.938-0.398 1.421-0.609v0zM4.773 21.99c-0.495-1.128-1.115-2.342-1.64-3.556-0.437-1.007-0.801-2.013-0.986-2.938 1.655-0.75 3.302-1.51 4.946-2.278 0.046 4.889 0.144 9.894 0.272 14.181-0.189-0.383-0.381-0.767-0.571-1.152-0.731-1.476-1.449-2.952-2.021-4.257v0zM8.977 30.31c-0.225-6.196-0.387-14.758-0.398-22.247 7.088-0.013 14.461-0.243 21.781-0.243 3.846 0 7.675 0.065 11.44 0.259 0.060 3.625 0.122 9.119 0.171 13.83 0.026 2.518 0.047 4.81 0.063 6.474 0.007 0.801 0.013 1.454 0.017 1.918h-0.213c-4.315 0.001-21.94 0.008-32.861 0.009v0z"></path>
<path fill="rgb(68, 68, 68)" d="M12.193 12.875h12.636c0.418 0 0.758-0.346 0.758-0.774s-0.339-0.774-0.758-0.774h-12.636c-0.418 0-0.758 0.346-0.758 0.774 0 0.426 0.339 0.774 0.758 0.774v0z"></path>
<path fill="rgb(68, 68, 68)" d="M25.405 15.419c0-0.426-0.339-0.773-0.758-0.773-3.677 0-7.714 0.184-11.733 0.183-0.418 0-0.758 0.346-0.758 0.775 0 0.426 0.339 0.773 0.758 0.773 4.063 0 8.104-0.185 11.733-0.185 0.419-0.001 0.758-0.346 0.758-0.774v0z"></path>
<path fill="rgb(68, 68, 68)" d="M24.107 17.963c-3.679 0.001-7.714 0.185-11.735 0.185-0.418 0-0.758 0.346-0.758 0.774s0.339 0.774 0.758 0.774c4.065-0.001 8.105-0.185 11.735-0.184 0.418 0 0.758-0.347 0.758-0.775s-0.339-0.774-0.758-0.774v0z"></path>
<path fill="rgb(68, 68, 68)" d="M37.466 22.386c-3.287 0-7.648 0.043-11.894 0.043-2.758 0-5.467-0.018-7.795-0.079-1.165-0.030-2.233-0.071-3.163-0.124s-1.721-0.121-2.322-0.202c-0.415-0.056-0.795 0.243-0.85 0.667s0.238 0.811 0.653 0.867c0.661 0.089 1.482 0.157 2.434 0.212 2.855 0.166 6.895 0.206 11.044 0.206 4.255 0 8.62-0.042 11.894-0.042 0.418 0 0.757-0.346 0.757-0.775s-0.339-0.773-0.757-0.773v0z"></path>
<path fill="rgb(68, 68, 68)" d="M37.466 26.258c-7.551 0-25.279 0.184-25.281 0.184-0.418 0.004-0.754 0.354-0.75 0.782s0.347 0.77 0.765 0.766c0.001 0 0.277-0.003 0.776-0.009 3.495-0.035 17.898-0.175 24.489-0.175 0.418 0 0.757-0.346 0.757-0.774s-0.339-0.774-0.757-0.774v0z"></path>
</svg>
<svg id="icon-file-o" width="32" height="32" viewBox="0 0 32 32" x="336" y="0">
<path fill="#000000" d="M26.214 6.786q0.5 0.5 0.857 1.357t0.357 1.571v20.571q0 0.714-0.5 1.214t-1.214 0.5h-24q-0.714 0-1.214-0.5t-0.5-1.214v-28.571q0-0.714 0.5-1.214t1.214-0.5h16q0.714 0 1.571 0.357t1.357 0.857zM18.286 2.429v6.714h6.714q-0.179-0.518-0.393-0.732l-5.589-5.589q-0.214-0.214-0.732-0.393zM25.143 29.714v-18.286h-7.429q-0.714 0-1.214-0.5t-0.5-1.214v-7.429h-13.714v27.429h22.857z"></path>
</svg>
<svg id="icon-file-text-o" width="32" height="32" viewBox="0 0 32 32" x="384" y="0">
<path fill="#000000" d="M26.214 6.786q0.5 0.5 0.857 1.357t0.357 1.571v20.571q0 0.714-0.5 1.214t-1.214 0.5h-24q-0.714 0-1.214-0.5t-0.5-1.214v-28.571q0-0.714 0.5-1.214t1.214-0.5h16q0.714 0 1.571 0.357t1.357 0.857zM18.286 2.429v6.714h6.714q-0.179-0.518-0.393-0.732l-5.589-5.589q-0.214-0.214-0.732-0.393zM25.143 29.714v-18.286h-7.429q-0.714 0-1.214-0.5t-0.5-1.214v-7.429h-13.714v27.429h22.857zM6.857 14.286q0-0.25 0.161-0.411t0.411-0.161h12.571q0.25 0 0.411 0.161t0.161 0.411v1.143q0 0.25-0.161 0.411t-0.411 0.161h-12.571q-0.25 0-0.411-0.161t-0.161-0.411v-1.143zM20 18.286q0.25 0 0.411 0.161t0.161 0.411v1.143q0 0.25-0.161 0.411t-0.411 0.161h-12.571q-0.25 0-0.411-0.161t-0.161-0.411v-1.143q0-0.25 0.161-0.411t0.411-0.161h12.571zM20 22.857q0.25 0 0.411 0.161t0.161 0.411v1.143q0 0.25-0.161 0.411t-0.411 0.161h-12.571q-0.25 0-0.411-0.161t-0.161-0.411v-1.143q0-0.25 0.161-0.411t0.411-0.161h12.571z"></path>
</svg>
<svg id="icon-file-pdf-o" width="32" height="32" viewBox="0 0 32 32" x="432" y="0">
<path fill="#000000" d="M26.214 6.786q0.5 0.5 0.857 1.357t0.357 1.571v20.571q0 0.714-0.5 1.214t-1.214 0.5h-24q-0.714 0-1.214-0.5t-0.5-1.214v-28.571q0-0.714 0.5-1.214t1.214-0.5h16q0.714 0 1.571 0.357t1.357 0.857zM18.286 2.429v6.714h6.714q-0.179-0.518-0.393-0.732l-5.589-5.589q-0.214-0.214-0.732-0.393zM25.143 29.714v-18.286h-7.429q-0.714 0-1.214-0.5t-0.5-1.214v-7.429h-13.714v27.429h22.857zM15.964 19.125q0.589 0.464 1.5 1 1.054-0.125 2.089-0.125 2.625 0 3.161 0.875 0.286 0.393 0.036 0.929 0 0.018-0.018 0.036l-0.036 0.036v0.018q-0.107 0.679-1.268 0.679-0.857 0-2.054-0.357t-2.321-0.946q-3.946 0.429-7 1.482-2.732 4.679-4.321 4.679-0.268 0-0.5-0.125l-0.429-0.214q-0.018-0.018-0.107-0.089-0.179-0.179-0.107-0.643 0.161-0.714 1-1.634t2.357-1.723q0.25-0.161 0.411 0.107 0.036 0.036 0.036 0.071 0.929-1.518 1.911-3.518 1.214-2.429 1.857-4.679-0.429-1.464-0.545-2.848t0.116-2.277q0.196-0.714 0.75-0.714h0.393q0.411 0 0.625 0.268 0.321 0.375 0.161 1.214-0.036 0.107-0.071 0.143 0.018 0.054 0.018 0.143v0.536q-0.036 2.196-0.25 3.429 0.982 2.929 2.607 4.25zM5.679 26.464q0.929-0.429 2.446-2.821-0.911 0.714-1.563 1.5t-0.884 1.321zM12.786 10.036q-0.268 0.75-0.036 2.357 0.018-0.125 0.125-0.786 0-0.054 0.125-0.768 0.018-0.071 0.071-0.143-0.018-0.018-0.018-0.036t-0.009-0.027-0.009-0.027q-0.018-0.393-0.232-0.643 0 0.018-0.018 0.036v0.036zM10.571 21.839q2.411-0.964 5.071-1.446-0.036-0.018-0.232-0.17t-0.286-0.241q-1.357-1.196-2.268-3.143-0.482 1.536-1.482 3.518-0.536 1-0.804 1.482zM22.107 21.554q-0.429-0.429-2.5-0.429 1.357 0.5 2.214 0.5 0.25 0 0.321-0.018 0-0.018-0.036-0.054z"></path>
</svg>
<svg id="icon-file-word-o" width="32" height="32" viewBox="0 0 32 32" x="480" y="0">
<path fill="#000000" d="M26.214 6.786q0.5 0.5 0.857 1.357t0.357 1.571v20.571q0 0.714-0.5 1.214t-1.214 0.5h-24q-0.714 0-1.214-0.5t-0.5-1.214v-28.571q0-0.714 0.5-1.214t1.214-0.5h16q0.714 0 1.571 0.357t1.357 0.857zM18.286 2.429v6.714h6.714q-0.179-0.518-0.393-0.732l-5.589-5.589q-0.214-0.214-0.732-0.393zM25.143 29.714v-18.286h-7.429q-0.714 0-1.214-0.5t-0.5-1.214v-7.429h-13.714v27.429h22.857zM4.161 13.714v1.911h1.25l2.929 11.804h2.839l2.286-8.661q0.125-0.357 0.179-0.821 0.036-0.286 0.036-0.429h0.071l0.054 0.429q0.018 0.054 0.063 0.357t0.098 0.464l2.286 8.661h2.839l2.929-11.804h1.25v-1.911h-5.357v1.911h1.607l-1.768 7.821q-0.089 0.357-0.125 0.821l-0.036 0.375h-0.071l-0.054-0.375q-0.018-0.089-0.071-0.375t-0.089-0.446l-2.571-9.732h-2.036l-2.571 9.732q-0.036 0.161-0.080 0.438t-0.063 0.384l-0.071 0.375h-0.071l-0.036-0.375q-0.036-0.464-0.125-0.821l-1.768-7.821h1.607v-1.911h-5.357z"></path>
</svg>
<svg id="icon-file-excel-o" width="32" height="32" viewBox="0 0 32 32" x="528" y="0">
<path fill="#000000" d="M26.214 6.786q0.5 0.5 0.857 1.357t0.357 1.571v20.571q0 0.714-0.5 1.214t-1.214 0.5h-24q-0.714 0-1.214-0.5t-0.5-1.214v-28.571q0-0.714 0.5-1.214t1.214-0.5h16q0.714 0 1.571 0.357t1.357 0.857zM18.286 2.429v6.714h6.714q-0.179-0.518-0.393-0.732l-5.589-5.589q-0.214-0.214-0.732-0.393zM25.143 29.714v-18.286h-7.429q-0.714 0-1.214-0.5t-0.5-1.214v-7.429h-13.714v27.429h22.857zM7.661 25.536v1.893h5.018v-1.893h-1.339l1.839-2.875q0.089-0.125 0.179-0.295t0.134-0.241 0.063-0.071h0.036q0.018 0.071 0.089 0.179 0.036 0.071 0.080 0.134t0.107 0.143 0.116 0.152l1.911 2.875h-1.357v1.893h5.196v-1.893h-1.214l-3.429-4.875 3.482-5.036h1.196v-1.911h-4.982v1.911h1.321l-1.839 2.839q-0.071 0.125-0.179 0.295t-0.161 0.241l-0.036 0.054h-0.036q-0.018-0.071-0.089-0.179-0.107-0.196-0.304-0.411l-1.893-2.839h1.357v-1.911h-5.179v1.911h1.214l3.375 4.857-3.464 5.054h-1.214z"></path>
</svg>
<svg id="icon-file-powerpoint-o" width="32" height="32" viewBox="0 0 32 32" x="576" y="0">
<path fill="#000000" d="M26.214 6.786q0.5 0.5 0.857 1.357t0.357 1.571v20.571q0 0.714-0.5 1.214t-1.214 0.5h-24q-0.714 0-1.214-0.5t-0.5-1.214v-28.571q0-0.714 0.5-1.214t1.214-0.5h16q0.714 0 1.571 0.357t1.357 0.857zM18.286 2.429v6.714h6.714q-0.179-0.518-0.393-0.732l-5.589-5.589q-0.214-0.214-0.732-0.393zM25.143 29.714v-18.286h-7.429q-0.714 0-1.214-0.5t-0.5-1.214v-7.429h-13.714v27.429h22.857zM7.429 25.536v1.893h5.839v-1.893h-1.661v-2.982h2.446q1.357 0 2.107-0.268 1.196-0.411 1.902-1.554t0.705-2.607q0-1.446-0.661-2.518t-1.786-1.554q-0.857-0.339-2.321-0.339h-6.571v1.911h1.643v9.911h-1.643zM13.732 20.536h-2.125v-4.786h2.143q0.929 0 1.482 0.321 1 0.589 1 2.054 0 1.589-1.107 2.143-0.554 0.268-1.393 0.268z"></path>
</svg>
<svg id="icon-file-image-o" width="32" height="32" viewBox="0 0 32 32" x="624" y="0">
<path fill="#000000" d="M26.214 6.786q0.5 0.5 0.857 1.357t0.357 1.571v20.571q0 0.714-0.5 1.214t-1.214 0.5h-24q-0.714 0-1.214-0.5t-0.5-1.214v-28.571q0-0.714 0.5-1.214t1.214-0.5h16q0.714 0 1.571 0.357t1.357 0.857zM18.286 2.429v6.714h6.714q-0.179-0.518-0.393-0.732l-5.589-5.589q-0.214-0.214-0.732-0.393zM25.143 29.714v-18.286h-7.429q-0.714 0-1.214-0.5t-0.5-1.214v-7.429h-13.714v27.429h22.857zM22.857 21.714v5.714h-18.286v-3.429l3.429-3.429 2.286 2.286 6.857-6.857zM8 18.286q-1.429 0-2.429-1t-1-2.429 1-2.429 2.429-1 2.429 1 1 2.429-1 2.429-2.429 1z"></path>
</svg>
<svg id="icon-file-archive-o" width="32" height="32" viewBox="0 0 32 32" x="672" y="0">
<path fill="#000000" d="M11.429 6.857v-2.286h-2.286v2.286h2.286zM13.714 9.143v-2.286h-2.286v2.286h2.286zM11.429 11.429v-2.286h-2.286v2.286h2.286zM13.714 13.714v-2.286h-2.286v2.286h2.286zM26.214 6.786q0.5 0.5 0.857 1.357t0.357 1.571v20.571q0 0.714-0.5 1.214t-1.214 0.5h-24q-0.714 0-1.214-0.5t-0.5-1.214v-28.571q0-0.714 0.5-1.214t1.214-0.5h16q0.714 0 1.571 0.357t1.357 0.857zM18.286 2.429v6.714h6.714q-0.179-0.518-0.393-0.732l-5.589-5.589q-0.214-0.214-0.732-0.393zM25.143 29.714v-18.286h-7.429q-0.714 0-1.214-0.5t-0.5-1.214v-7.429h-2.286v2.286h-2.286v-2.286h-9.143v27.429h22.857zM13.946 16.839l1.911 6.232q0.143 0.482 0.143 0.929 0 1.482-1.295 2.455t-3.277 0.973-3.277-0.973-1.295-2.455q0-0.446 0.143-0.929 0.375-1.125 2.143-7.071v-2.286h2.286v2.286h1.411q0.393 0 0.696 0.232t0.411 0.607zM11.429 25.143q0.946 0 1.616-0.339t0.67-0.804-0.67-0.804-1.616-0.339-1.616 0.339-0.67 0.804 0.67 0.804 1.616 0.339z"></path>
</svg>
<svg id="icon-file-audio-o" width="32" height="32" viewBox="0 0 32 32" x="720" y="0">
<path fill="#000000" d="M26.214 6.786q0.5 0.5 0.857 1.357t0.357 1.571v20.571q0 0.714-0.5 1.214t-1.214 0.5h-24q-0.714 0-1.214-0.5t-0.5-1.214v-28.571q0-0.714 0.5-1.214t1.214-0.5h16q0.714 0 1.571 0.357t1.357 0.857zM18.286 2.429v6.714h6.714q-0.179-0.518-0.393-0.732l-5.589-5.589q-0.214-0.214-0.732-0.393zM25.143 29.714v-18.286h-7.429q-0.714 0-1.214-0.5t-0.5-1.214v-7.429h-13.714v27.429h22.857zM11.071 15.179q0.357 0.143 0.357 0.536v9.714q0 0.393-0.357 0.536-0.143 0.036-0.214 0.036-0.214 0-0.411-0.161l-2.964-2.982h-2.339q-0.25 0-0.411-0.161t-0.161-0.411v-3.429q0-0.25 0.161-0.411t0.411-0.161h2.339l2.964-2.982q0.286-0.268 0.625-0.125zM18.518 27.482q0.554 0 0.893-0.429 2.304-2.839 2.304-6.482t-2.304-6.482q-0.286-0.375-0.768-0.429t-0.839 0.25q-0.375 0.304-0.42 0.777t0.259 0.848q1.786 2.196 1.786 5.036t-1.786 5.036q-0.304 0.375-0.259 0.848t0.42 0.759q0.321 0.268 0.714 0.268zM14.75 24.839q0.482 0 0.839-0.357 1.554-1.661 1.554-3.911t-1.554-3.911q-0.321-0.339-0.804-0.357t-0.821 0.304-0.357 0.795 0.321 0.83q0.929 1.018 0.929 2.339t-0.929 2.339q-0.339 0.357-0.321 0.83t0.357 0.795q0.357 0.304 0.786 0.304z"></path>
</svg>
<svg id="icon-file-movie-o" width="32" height="32" viewBox="0 0 32 32" x="0" y="48">
<path fill="#000000" d="M26.214 6.786q0.5 0.5 0.857 1.357t0.357 1.571v20.571q0 0.714-0.5 1.214t-1.214 0.5h-24q-0.714 0-1.214-0.5t-0.5-1.214v-28.571q0-0.714 0.5-1.214t1.214-0.5h16q0.714 0 1.571 0.357t1.357 0.857zM18.286 2.429v6.714h6.714q-0.179-0.518-0.393-0.732l-5.589-5.589q-0.214-0.214-0.732-0.393zM25.143 29.714v-18.286h-7.429q-0.714 0-1.214-0.5t-0.5-1.214v-7.429h-13.714v27.429h22.857zM13.714 13.714q0.929 0 1.607 0.679t0.679 1.607v6.857q0 0.929-0.679 1.607t-1.607 0.679h-6.857q-0.929 0-1.607-0.679t-0.679-1.607v-6.857q0-0.929 0.679-1.607t1.607-0.679h6.857zM22.5 13.75q0.357 0.143 0.357 0.536v10.286q0 0.393-0.357 0.536-0.143 0.036-0.214 0.036-0.25 0-0.411-0.161l-4.732-4.75v-1.607l4.732-4.75q0.161-0.161 0.411-0.161 0.071 0 0.214 0.036z"></path>
</svg>
<svg id="icon-star" width="30" height="32" viewBox="0 0 30 32" x="48" y="48">
<path fill="#000000" d="M29.714 11.554q0 0.393-0.464 0.857l-6.482 6.321 1.536 8.929q0.018 0.125 0.018 0.357 0 0.375-0.188 0.634t-0.545 0.259q-0.339 0-0.714-0.214l-8.018-4.214-8.018 4.214q-0.393 0.214-0.714 0.214-0.375 0-0.563-0.259t-0.188-0.634q0-0.107 0.036-0.357l1.536-8.929-6.5-6.321q-0.446-0.482-0.446-0.857 0-0.661 1-0.821l8.964-1.304 4.018-8.125q0.339-0.732 0.875-0.732t0.875 0.732l4.018 8.125 8.964 1.304q1 0.161 1 0.821z"></path>
</svg>
<svg id="icon-user" width="25" height="32" viewBox="0 0 25 32" x="96" y="48">
<path fill="#000000" d="M25.143 25.089q0 2.143-1.304 3.384t-3.464 1.241h-15.607q-2.161 0-3.464-1.241t-1.304-3.384q0-0.946 0.063-1.848t0.25-1.946 0.473-1.938 0.768-1.741 1.107-1.446 1.527-0.955 1.991-0.357q0.161 0 0.75 0.384t1.33 0.857 1.929 0.857 2.384 0.384 2.384-0.384 1.929-0.857 1.33-0.857 0.75-0.384q1.089 0 1.991 0.357t1.527 0.955 1.107 1.446 0.768 1.741 0.473 1.938 0.25 1.946 0.063 1.848zM19.429 9.143q0 2.839-2.009 4.848t-4.848 2.009-4.848-2.009-2.009-4.848 2.009-4.848 4.848-2.009 4.848 2.009 2.009 4.848z"></path>
</svg>
<svg id="icon-cog" width="32" height="32" viewBox="0 0 32 32" x="144" y="48">
<path fill="#000000" d="M18.286 16q0-1.893-1.339-3.232t-3.232-1.339-3.232 1.339-1.339 3.232 1.339 3.232 3.232 1.339 3.232-1.339 1.339-3.232zM27.429 14.054v3.964q0 0.214-0.143 0.411t-0.357 0.232l-3.304 0.5q-0.339 0.964-0.696 1.625 0.625 0.893 1.911 2.464 0.179 0.214 0.179 0.446t-0.161 0.411q-0.482 0.661-1.768 1.929t-1.679 1.268q-0.214 0-0.464-0.161l-2.464-1.929q-0.786 0.411-1.625 0.679-0.286 2.429-0.518 3.321-0.125 0.5-0.643 0.5h-3.964q-0.25 0-0.438-0.152t-0.205-0.384l-0.5-3.286q-0.875-0.286-1.607-0.661l-2.518 1.911q-0.179 0.161-0.446 0.161-0.25 0-0.446-0.196-2.25-2.036-2.946-3-0.125-0.179-0.125-0.411 0-0.214 0.143-0.411 0.268-0.375 0.911-1.188t0.964-1.259q-0.482-0.893-0.732-1.768l-3.268-0.482q-0.232-0.036-0.375-0.223t-0.143-0.42v-3.964q0-0.214 0.143-0.411t0.339-0.232l3.321-0.5q0.25-0.821 0.696-1.643-0.714-1.018-1.911-2.464-0.179-0.214-0.179-0.429 0-0.179 0.161-0.411 0.464-0.643 1.759-1.92t1.688-1.277q0.232 0 0.464 0.179l2.464 1.911q0.786-0.411 1.625-0.679 0.286-2.429 0.518-3.321 0.125-0.5 0.643-0.5h3.964q0.25 0 0.438 0.152t0.205 0.384l0.5 3.286q0.875 0.286 1.607 0.661l2.536-1.911q0.161-0.161 0.429-0.161 0.232 0 0.446 0.179 2.304 2.125 2.946 3.036 0.125 0.143 0.125 0.393 0 0.214-0.143 0.411-0.268 0.375-0.911 1.188t-0.964 1.259q0.464 0.893 0.732 1.75l3.268 0.5q0.232 0.036 0.375 0.223t0.143 0.42z"></path>
</svg>
<svg id="icon-home" width="30" height="32" viewBox="0 0 30 32" x="192" y="48">
<path fill="#000000" d="M25.143 17.714v8.571q0 0.464-0.339 0.804t-0.804 0.339h-6.857v-6.857h-4.571v6.857h-6.857q-0.464 0-0.804-0.339t-0.339-0.804v-8.571q0-0.018 0.009-0.054t0.009-0.054l10.268-8.464 10.268 8.464q0.018 0.036 0.018 0.107zM29.125 16.482l-1.107 1.321q-0.143 0.161-0.375 0.196h-0.054q-0.232 0-0.375-0.125l-12.357-10.304-12.357 10.304q-0.214 0.143-0.429 0.125-0.232-0.036-0.375-0.196l-1.107-1.321q-0.143-0.179-0.125-0.42t0.196-0.384l12.839-10.696q0.571-0.464 1.357-0.464t1.357 0.464l4.357 3.643v-3.482q0-0.25 0.161-0.411t0.411-0.161h3.429q0.25 0 0.411 0.161t0.161 0.411v7.286l3.911 3.25q0.179 0.143 0.196 0.384t-0.125 0.42z"></path>
</svg>
<svg id="icon-camera" width="34" height="32" viewBox="0 0 34 32" x="240" y="48">
<path fill="#000000" d="M17.143 12q2.125 0 3.634 1.509t1.509 3.634-1.509 3.634-3.634 1.509-3.634-1.509-1.509-3.634 1.509-3.634 3.634-1.509zM29.714 4.571q1.893 0 3.232 1.339t1.339 3.232v16q0 1.893-1.339 3.232t-3.232 1.339h-25.143q-1.893 0-3.232-1.339t-1.339-3.232v-16q0-1.893 1.339-3.232t3.232-1.339h4l0.911-2.429q0.339-0.875 1.241-1.509t1.848-0.634h9.143q0.946 0 1.848 0.634t1.241 1.509l0.911 2.429h4zM17.143 25.143q3.304 0 5.652-2.348t2.348-5.652-2.348-5.652-5.652-2.348-5.652 2.348-2.348 5.652 2.348 5.652 5.652 2.348z"></path>
</svg>
<svg id="icon-plus-circle" width="32" height="32" viewBox="0 0 32 32" x="288" y="48">
<path fill="#000000" d="M21.714 17.143v-2.286q0-0.464-0.339-0.804t-0.804-0.339h-4.571v-4.571q0-0.464-0.339-0.804t-0.804-0.339h-2.286q-0.464 0-0.804 0.339t-0.339 0.804v4.571h-4.571q-0.464 0-0.804 0.339t-0.339 0.804v2.286q0 0.464 0.339 0.804t0.804 0.339h4.571v4.571q0 0.464 0.339 0.804t0.804 0.339h2.286q0.464 0 0.804-0.339t0.339-0.804v-4.571h4.571q0.464 0 0.804-0.339t0.339-0.804zM27.429 16q0 3.732-1.839 6.884t-4.991 4.991-6.884 1.839-6.884-1.839-4.991-4.991-1.839-6.884 1.839-6.884 4.991-4.991 6.884-1.839 6.884 1.839 4.991 4.991 1.839 6.884z"></path>
</svg>
<svg id="icon-minus-circle" width="32" height="32" viewBox="0 0 32 32" x="336" y="48">
<path fill="#000000" d="M21.714 17.143v-2.286q0-0.464-0.339-0.804t-0.804-0.339h-13.714q-0.464 0-0.804 0.339t-0.339 0.804v2.286q0 0.464 0.339 0.804t0.804 0.339h13.714q0.464 0 0.804-0.339t0.339-0.804zM27.429 16q0 3.732-1.839 6.884t-4.991 4.991-6.884 1.839-6.884-1.839-4.991-4.991-1.839-6.884 1.839-6.884 4.991-4.991 6.884-1.839 6.884 1.839 4.991 4.991 1.839 6.884z"></path>
</svg>
<svg id="icon-times-circle" width="32" height="32" viewBox="0 0 32 32" x="384" y="48">
<path fill="#000000" d="M20.518 20.036q0-0.464-0.339-0.804l-3.232-3.232 3.232-3.232q0.339-0.339 0.339-0.804 0-0.482-0.339-0.821l-1.607-1.607q-0.339-0.339-0.821-0.339-0.464 0-0.804 0.339l-3.232 3.232-3.232-3.232q-0.339-0.339-0.804-0.339-0.482 0-0.821 0.339l-1.607 1.607q-0.339 0.339-0.339 0.821 0 0.464 0.339 0.804l3.232 3.232-3.232 3.232q-0.339 0.339-0.339 0.804 0 0.482 0.339 0.821l1.607 1.607q0.339 0.339 0.821 0.339 0.464 0 0.804-0.339l3.232-3.232 3.232 3.232q0.339 0.339 0.804 0.339 0.482 0 0.821-0.339l1.607-1.607q0.339-0.339 0.339-0.821zM27.429 16q0 3.732-1.839 6.884t-4.991 4.991-6.884 1.839-6.884-1.839-4.991-4.991-1.839-6.884 1.839-6.884 4.991-4.991 6.884-1.839 6.884 1.839 4.991 4.991 1.839 6.884z"></path>
</svg>
<svg id="icon-check-circle" width="32" height="32" viewBox="0 0 32 32" x="432" y="48">
<path fill="#000000" d="M22.929 13.107q0-0.5-0.321-0.821l-1.625-1.607q-0.339-0.339-0.804-0.339t-0.804 0.339l-7.286 7.268-4.036-4.036q-0.339-0.339-0.804-0.339t-0.804 0.339l-1.625 1.607q-0.321 0.321-0.321 0.821 0 0.482 0.321 0.804l6.464 6.464q0.339 0.339 0.804 0.339 0.482 0 0.821-0.339l9.696-9.696q0.321-0.321 0.321-0.804zM27.429 16q0 3.732-1.839 6.884t-4.991 4.991-6.884 1.839-6.884-1.839-4.991-4.991-1.839-6.884 1.839-6.884 4.991-4.991 6.884-1.839 6.884 1.839 4.991 4.991 1.839 6.884z"></path>
</svg>
<svg id="icon-question-circle" width="32" height="32" viewBox="0 0 32 32" x="480" y="48">
<path fill="#000000" d="M16 24.571v-3.429q0-0.25-0.161-0.411t-0.411-0.161h-3.429q-0.25 0-0.411 0.161t-0.161 0.411v3.429q0 0.25 0.161 0.411t0.411 0.161h3.429q0.25 0 0.411-0.161t0.161-0.411zM20.571 12.571q0-1.571-0.991-2.911t-2.473-2.071-3.036-0.732q-4.339 0-6.625 3.804-0.268 0.429 0.143 0.75l2.357 1.786q0.125 0.107 0.339 0.107 0.286 0 0.446-0.214 0.946-1.214 1.536-1.643 0.607-0.429 1.536-0.429 0.857 0 1.527 0.464t0.67 1.054q0 0.679-0.357 1.089t-1.214 0.804q-1.125 0.5-2.063 1.545t-0.938 2.241v0.643q0 0.25 0.161 0.411t0.411 0.161h3.429q0.25 0 0.411-0.161t0.161-0.411q0-0.339 0.384-0.884t0.973-0.884q0.571-0.321 0.875-0.509t0.821-0.625 0.795-0.857 0.5-1.080 0.223-1.446zM27.429 16q0 3.732-1.839 6.884t-4.991 4.991-6.884 1.839-6.884-1.839-4.991-4.991-1.839-6.884 1.839-6.884 4.991-4.991 6.884-1.839 6.884 1.839 4.991 4.991 1.839 6.884z"></path>
</svg>
<svg id="icon-times-circle-o" width="32" height="32" viewBox="0 0 32 32" x="528" y="48">
<path fill="#000000" d="M19.589 19.268l-2.607 2.607q-0.179 0.179-0.411 0.179t-0.411-0.179l-2.446-2.446-2.446 2.446q-0.179 0.179-0.411 0.179t-0.411-0.179l-2.607-2.607q-0.179-0.179-0.179-0.411t0.179-0.411l2.446-2.446-2.446-2.446q-0.179-0.179-0.179-0.411t0.179-0.411l2.607-2.607q0.179-0.179 0.411-0.179t0.411 0.179l2.446 2.446 2.446-2.446q0.179-0.179 0.411-0.179t0.411 0.179l2.607 2.607q0.179 0.179 0.179 0.411t-0.179 0.411l-2.446 2.446 2.446 2.446q0.179 0.179 0.179 0.411t-0.179 0.411zM23.429 16q0-2.643-1.304-4.875t-3.536-3.536-4.875-1.304-4.875 1.304-3.536 3.536-1.304 4.875 1.304 4.875 3.536 3.536 4.875 1.304 4.875-1.304 3.536-3.536 1.304-4.875zM27.429 16q0 3.732-1.839 6.884t-4.991 4.991-6.884 1.839-6.884-1.839-4.991-4.991-1.839-6.884 1.839-6.884 4.991-4.991 6.884-1.839 6.884 1.839 4.991 4.991 1.839 6.884z"></path>
</svg>
<svg id="icon-thumbs-o-up" width="32" height="32" viewBox="0 0 32 32" x="576" y="48">
<path fill="#000000" d="M4.571 24q0-0.464-0.339-0.804t-0.804-0.339-0.804 0.339-0.339 0.804 0.339 0.804 0.804 0.339 0.804-0.339 0.339-0.804zM25.143 13.714q0-0.911-0.696-1.598t-1.589-0.688h-6.286q0-1.036 0.857-2.848t0.857-2.866q0-1.75-0.571-2.589t-2.286-0.839q-0.464 0.464-0.679 1.518t-0.545 2.241-1.063 1.955q-0.393 0.411-1.375 1.625-0.071 0.089-0.411 0.536t-0.563 0.732-0.616 0.759-0.714 0.786-0.688 0.634-0.714 0.482-0.634 0.161h-0.571v11.429h0.571q0.232 0 0.563 0.054t0.589 0.116 0.679 0.196 0.625 0.205 0.634 0.223 0.518 0.188q3.768 1.304 6.107 1.304h2.161q3.429 0 3.429-2.982 0-0.464-0.089-1 0.536-0.286 0.848-0.938t0.313-1.313-0.321-1.232q0.946-0.893 0.946-2.125 0-0.446-0.179-0.991t-0.446-0.848q0.571-0.018 0.955-0.839t0.384-1.446zM27.429 13.696q0 1.589-0.875 2.911 0.161 0.589 0.161 1.232 0 1.375-0.679 2.571 0.054 0.375 0.054 0.768 0 1.804-1.071 3.179 0.018 2.482-1.518 3.92t-4.054 1.438h-2.304q-1.714 0-3.384-0.402t-3.866-1.17q-2.071-0.714-2.464-0.714h-5.143q-0.946 0-1.616-0.67t-0.67-1.616v-11.429q0-0.946 0.67-1.616t1.616-0.67h4.893q0.643-0.429 2.446-2.768 1.036-1.339 1.911-2.286 0.429-0.446 0.634-1.527t0.545-2.259 1.107-1.929q0.696-0.661 1.607-0.661 1.5 0 2.696 0.58t1.821 1.813 0.625 3.321q0 1.661-0.857 3.429h3.143q1.857 0 3.214 1.357t1.357 3.196z"></path>
</svg>
<svg id="icon-group" width="34" height="32" viewBox="0 0 34 32" x="624" y="48">
<path fill="#000000" d="M10.589 16q-2.893 0.089-4.732 2.286h-2.393q-1.464 0-2.464-0.723t-1-2.116q0-6.304 2.214-6.304 0.107 0 0.777 0.375t1.741 0.759 2.125 0.384q1.196 0 2.375-0.411-0.089 0.661-0.089 1.179 0 2.482 1.446 4.571zM29.714 27.375q0 2.143-1.304 3.384t-3.464 1.241h-15.607q-2.161 0-3.464-1.241t-1.304-3.384q0-0.946 0.063-1.848t0.25-1.946 0.473-1.938 0.768-1.741 1.107-1.446 1.527-0.955 1.991-0.357q0.179 0 0.768 0.384t1.304 0.857 1.911 0.857 2.411 0.384 2.411-0.384 1.911-0.857 1.304-0.857 0.768-0.384q1.089 0 1.991 0.357t1.527 0.955 1.107 1.446 0.768 1.741 0.473 1.938 0.25 1.946 0.063 1.848zM11.429 4.571q0 1.893-1.339 3.232t-3.232 1.339-3.232-1.339-1.339-3.232 1.339-3.232 3.232-1.339 3.232 1.339 1.339 3.232zM24 11.429q0 2.839-2.009 4.848t-4.848 2.009-4.848-2.009-2.009-4.848 2.009-4.848 4.848-2.009 4.848 2.009 2.009 4.848zM34.286 15.446q0 1.393-1 2.116t-2.464 0.723h-2.393q-1.839-2.196-4.732-2.286 1.446-2.089 1.446-4.571 0-0.518-0.089-1.179 1.179 0.411 2.375 0.411 1.054 0 2.125-0.384t1.741-0.759 0.777-0.375q2.214 0 2.214 6.304zM32 4.571q0 1.893-1.339 3.232t-3.232 1.339-3.232-1.339-1.339-3.232 1.339-3.232 3.232-1.339 3.232 1.339 1.339 3.232z"></path>
</svg>
<svg id="icon-caret-down" width="18" height="32" viewBox="0 0 18 32" x="672" y="48">
<path fill="#000000" d="M18.286 12.571q0 0.464-0.339 0.804l-8 8q-0.339 0.339-0.804 0.339t-0.804-0.339l-8-8q-0.339-0.339-0.339-0.804t0.339-0.804 0.804-0.339h16q0.464 0 0.804 0.339t0.339 0.804z"></path>
</svg>
<svg id="icon-caret-up" width="18" height="32" viewBox="0 0 18 32" x="720" y="48">
<path fill="#000000" d="M18.286 21.714q0 0.464-0.339 0.804t-0.804 0.339h-16q-0.464 0-0.804-0.339t-0.339-0.804 0.339-0.804l8-8q0.339-0.339 0.804-0.339t0.804 0.339l8 8q0.339 0.339 0.339 0.804z"></path>
</svg>
<svg id="icon-caret-left" width="11" height="32" viewBox="0 0 11 32" x="0" y="96">
<path fill="#000000" d="M11.429 8v16q0 0.464-0.339 0.804t-0.804 0.339-0.804-0.339l-8-8q-0.339-0.339-0.339-0.804t0.339-0.804l8-8q0.339-0.339 0.804-0.339t0.804 0.339 0.339 0.804z"></path>
</svg>
<svg id="icon-caret-right" width="11" height="32" viewBox="0 0 11 32" x="48" y="96">
<path fill="#000000" d="M10.286 16q0 0.464-0.339 0.804l-8 8q-0.339 0.339-0.804 0.339t-0.804-0.339-0.339-0.804v-16q0-0.464 0.339-0.804t0.804-0.339 0.804 0.339l8 8q0.339 0.339 0.339 0.804z"></path>
</svg>
<svg id="icon-bell" width="32" height="32" viewBox="0 0 32 32" x="96" y="96">
<path fill="#000000" d="M16.286 30.286q0-0.286-0.286-0.286-1.054 0-1.813-0.759t-0.759-1.813q0-0.286-0.286-0.286t-0.286 0.286q0 1.304 0.92 2.223t2.223 0.92q0.286 0 0.286-0.286zM30.857 25.143q0 0.929-0.679 1.607t-1.607 0.679h-8q0 1.893-1.339 3.232t-3.232 1.339-3.232-1.339-1.339-3.232h-8q-0.929 0-1.607-0.679t-0.679-1.607q0.893-0.75 1.625-1.571t1.518-2.134 1.33-2.83 0.893-3.679 0.348-4.643q0-2.714 2.089-5.045t5.482-2.83q-0.143-0.339-0.143-0.696 0-0.714 0.5-1.214t1.214-0.5 1.214 0.5 0.5 1.214q0 0.357-0.143 0.696 3.393 0.5 5.482 2.83t2.089 5.045q0 2.482 0.348 4.643t0.893 3.679 1.33 2.83 1.518 2.134 1.625 1.571z"></path>
</svg>
<svg id="icon-angle-right" width="11" height="32" viewBox="0 0 11 32" x="144" y="96">
<path fill="#000000" d="M10.625 17.143q0 0.232-0.179 0.411l-8.321 8.321q-0.179 0.179-0.411 0.179t-0.411-0.179l-0.893-0.893q-0.179-0.179-0.179-0.411t0.179-0.411l7.018-7.018-7.018-7.018q-0.179-0.179-0.179-0.411t0.179-0.411l0.893-0.893q0.179-0.179 0.411-0.179t0.411 0.179l8.321 8.321q0.179 0.179 0.179 0.411z"></path>
</svg>
<svg id="icon-angle-down" width="21" height="32" viewBox="0 0 21 32" x="192" y="96">
<path fill="#000000" d="M19.196 13.143q0 0.232-0.179 0.411l-8.321 8.321q-0.179 0.179-0.411 0.179t-0.411-0.179l-8.321-8.321q-0.179-0.179-0.179-0.411t0.179-0.411l0.893-0.893q0.179-0.179 0.411-0.179t0.411 0.179l7.018 7.018 7.018-7.018q0.179-0.179 0.411-0.179t0.411 0.179l0.893 0.893q0.179 0.179 0.179 0.411z"></path>
</svg>
<svg id="icon-circle-o" width="32" height="32" viewBox="0 0 32 32" x="240" y="96">
<path fill="#000000" d="M13.714 6.286q-2.643 0-4.875 1.304t-3.536 3.536-1.304 4.875 1.304 4.875 3.536 3.536 4.875 1.304 4.875-1.304 3.536-3.536 1.304-4.875-1.304-4.875-3.536-3.536-4.875-1.304zM27.429 16q0 3.732-1.839 6.884t-4.991 4.991-6.884 1.839-6.884-1.839-4.991-4.991-1.839-6.884 1.839-6.884 4.991-4.991 6.884-1.839 6.884 1.839 4.991 4.991 1.839 6.884z"></path>
</svg>
<svg id="icon-chevron-circle-left" width="32" height="32" viewBox="0 0 32 32" x="288" y="96">
<path fill="#000000" d="M16.232 24.911l1.821-1.821q0.339-0.339 0.339-0.804t-0.339-0.804l-5.482-5.482 5.482-5.482q0.339-0.339 0.339-0.804t-0.339-0.804l-1.821-1.821q-0.339-0.339-0.804-0.339t-0.804 0.339l-8.107 8.107q-0.339 0.339-0.339 0.804t0.339 0.804l8.107 8.107q0.339 0.339 0.804 0.339t0.804-0.339zM27.429 16q0 3.732-1.839 6.884t-4.991 4.991-6.884 1.839-6.884-1.839-4.991-4.991-1.839-6.884 1.839-6.884 4.991-4.991 6.884-1.839 6.884 1.839 4.991 4.991 1.839 6.884z"></path>
</svg>
<svg id="icon-chevron-circle-right" width="32" height="32" viewBox="0 0 32 32" x="336" y="96">
<path fill="#000000" d="M12.804 24.911l8.107-8.107q0.339-0.339 0.339-0.804t-0.339-0.804l-8.107-8.107q-0.339-0.339-0.804-0.339t-0.804 0.339l-1.821 1.821q-0.339 0.339-0.339 0.804t0.339 0.804l5.482 5.482-5.482 5.482q-0.339 0.339-0.339 0.804t0.339 0.804l1.821 1.821q0.339 0.339 0.804 0.339t0.804-0.339zM27.429 16q0 3.732-1.839 6.884t-4.991 4.991-6.884 1.839-6.884-1.839-4.991-4.991-1.839-6.884 1.839-6.884 4.991-4.991 6.884-1.839 6.884 1.839 4.991 4.991 1.839 6.884z"></path>
</svg>
<svg id="icon-chevron-circle-up" width="32" height="32" viewBox="0 0 32 32" x="384" y="96">
<path fill="#000000" d="M20.804 20.339l1.821-1.821q0.339-0.339 0.339-0.804t-0.339-0.804l-8.107-8.107q-0.339-0.339-0.804-0.339t-0.804 0.339l-8.107 8.107q-0.339 0.339-0.339 0.804t0.339 0.804l1.821 1.821q0.339 0.339 0.804 0.339t0.804-0.339l5.482-5.482 5.482 5.482q0.339 0.339 0.804 0.339t0.804-0.339zM27.429 16q0 3.732-1.839 6.884t-4.991 4.991-6.884 1.839-6.884-1.839-4.991-4.991-1.839-6.884 1.839-6.884 4.991-4.991 6.884-1.839 6.884 1.839 4.991 4.991 1.839 6.884z"></path>
</svg>
<svg id="icon-chevron-circle-down" width="32" height="32" viewBox="0 0 32 32" x="432" y="96">
<path fill="#000000" d="M14.518 23.196l8.107-8.107q0.339-0.339 0.339-0.804t-0.339-0.804l-1.821-1.821q-0.339-0.339-0.804-0.339t-0.804 0.339l-5.482 5.482-5.482-5.482q-0.339-0.339-0.804-0.339t-0.804 0.339l-1.821 1.821q-0.339 0.339-0.339 0.804t0.339 0.804l8.107 8.107q0.339 0.339 0.804 0.339t0.804-0.339zM27.429 16q0 3.732-1.839 6.884t-4.991 4.991-6.884 1.839-6.884-1.839-4.991-4.991-1.839-6.884 1.839-6.884 4.991-4.991 6.884-1.839 6.884 1.839 4.991 4.991 1.839 6.884z"></path>
</svg>
<svg id="icon-line-chart" width="37" height="32" viewBox="0 0 37 32" x="480" y="96">
<path fill="#000000" d="M36.571 27.429v2.286h-36.571v-27.429h2.286v25.143h34.286zM34.286 5.143v7.768q0 0.375-0.348 0.527t-0.634-0.134l-2.161-2.161-11.304 11.304q-0.179 0.179-0.411 0.179t-0.411-0.179l-4.161-4.161-7.429 7.429-3.429-3.429 10.446-10.446q0.179-0.179 0.411-0.179t0.411 0.179l4.161 4.161 8.286-8.286-2.161-2.161q-0.286-0.286-0.134-0.634t0.527-0.348h7.768q0.25 0 0.411 0.161t0.161 0.411z"></path>
</svg>
<svg id="icon-search" width="30" height="32" viewBox="0 0 30 32" x="528" y="96">
<path fill="#000000" d="M0 14.857q0-2.554 0.991-4.884t2.679-4.018 4.018-2.679 4.884-0.991 4.884 0.991 4.018 2.679 2.679 4.018 0.991 4.884q0 3.929-2.214 7.125l6.125 6.125q0.661 0.661 0.661 1.607 0 0.929-0.679 1.607t-1.607 0.679q-0.964 0-1.607-0.679l-6.125-6.107q-3.196 2.214-7.125 2.214-2.554 0-4.884-0.991t-4.018-2.679-2.679-4.018-0.991-4.884zM4.571 14.857q0 3.304 2.348 5.652t5.652 2.348 5.652-2.348 2.348-5.652-2.348-5.652-5.652-2.348-5.652 2.348-2.348 5.652z"></path>
</svg>
<svg id="icon-check" width="32" height="32" viewBox="0 0 32 32" x="576" y="96">
<path fill="#000000" d="M2.161 16.571q0-0.714 0.5-1.214l2.429-2.429q0.5-0.5 1.214-0.5t1.214 0.5l5.25 5.268 11.714-11.732q0.5-0.5 1.214-0.5t1.214 0.5l2.429 2.429q0.5 0.5 0.5 1.214t-0.5 1.214l-15.357 15.357q-0.5 0.5-1.214 0.5t-1.214-0.5l-8.893-8.893q-0.5-0.5-0.5-1.214z"></path>
</svg>
<svg id="icon-times" width="25" height="32" viewBox="0 0 25 32" x="624" y="96">
<path fill="#000000" d="M1.964 23.607q0-0.714 0.5-1.214l5.25-5.25-5.25-5.25q-0.5-0.5-0.5-1.214t0.5-1.214l2.429-2.429q0.5-0.5 1.214-0.5t1.214 0.5l5.25 5.25 5.25-5.25q0.5-0.5 1.214-0.5t1.214 0.5l2.429 2.429q0.5 0.5 0.5 1.214t-0.5 1.214l-5.25 5.25 5.25 5.25q0.5 0.5 0.5 1.214t-0.5 1.214l-2.429 2.429q-0.5 0.5-1.214 0.5t-1.214-0.5l-5.25-5.25-5.25 5.25q-0.5 0.5-1.214 0.5t-1.214-0.5l-2.429-2.429q-0.5-0.5-0.5-1.214z"></path>
</svg>
<svg id="icon-comment" width="32" height="32" viewBox="0 0 32 32" x="672" y="96">
<path fill="#000000" d="M0 16q0-2.321 1.268-4.438t3.411-3.652 5.107-2.438 6.214-0.902q4.357 0 8.036 1.527t5.821 4.161 2.143 5.741-2.143 5.741-5.821 4.161-8.036 1.527q-1.25 0-2.589-0.143-3.536 3.125-8.214 4.321-0.875 0.25-2.036 0.393-0.304 0.036-0.545-0.161t-0.313-0.518v-0.018q-0.054-0.071-0.009-0.214t0.036-0.179 0.080-0.17l0.107-0.161t0.125-0.152 0.143-0.161q0.125-0.143 0.554-0.616t0.616-0.679 0.554-0.705 0.58-0.911 0.482-1.054 0.464-1.357q-2.804-1.589-4.42-3.929t-1.616-5.018z"></path>
</svg>
<svg id="icon-bar-chart-o" width="34" height="32" viewBox="0 0 34 32" x="720" y="96">
<path fill="#000000" d="M0 26.857v-21.714q0-1.179 0.839-2.018t2.018-0.839h28.571q1.179 0 2.018 0.839t0.839 2.018v21.714q0 1.179-0.839 2.018t-2.018 0.839h-28.571q-1.179 0-2.018-0.839t-0.839-2.018zM2.286 26.857q0 0.232 0.17 0.402t0.402 0.17h28.571q0.232 0 0.402-0.17t0.17-0.402v-21.714q0-0.232-0.17-0.402t-0.402-0.17h-28.571q-0.232 0-0.402 0.17t-0.17 0.402v21.714zM4.571 25.143v-6.857h4.571v6.857h-4.571zM11.429 25.143v-16h4.571v16h-4.571zM18.286 25.143v-11.429h4.571v11.429h-4.571zM25.143 25.143v-18.286h4.571v18.286h-4.571z"></path>
</svg>
<svg id="icon-navicon" width="32" height="32" viewBox="0 0 32 32" x="0" y="144">
<path fill="#000000" d="M0 26.286v-2.286q0-0.464 0.339-0.804t0.804-0.339h25.143q0.464 0 0.804 0.339t0.339 0.804v2.286q0 0.464-0.339 0.804t-0.804 0.339h-25.143q-0.464 0-0.804-0.339t-0.339-0.804zM0 17.143v-2.286q0-0.464 0.339-0.804t0.804-0.339h25.143q0.464 0 0.804 0.339t0.339 0.804v2.286q0 0.464-0.339 0.804t-0.804 0.339h-25.143q-0.464 0-0.804-0.339t-0.339-0.804zM0 8v-2.286q0-0.464 0.339-0.804t0.804-0.339h25.143q0.464 0 0.804 0.339t0.339 0.804v2.286q0 0.464-0.339 0.804t-0.804 0.339h-25.143q-0.464 0-0.804-0.339t-0.339-0.804z"></path>
</svg>
<svg id="icon-spinner" width="28" height="32" viewBox="0 0 28 32" x="48" y="144">
<path fill="#000000" d="M0 16q0-1.179 0.839-2.018t2.018-0.839 2.018 0.839 0.839 2.018-0.839 2.018-2.018 0.839-2.018-0.839-0.839-2.018zM3.143 8q0-1.304 0.92-2.223t2.223-0.92 2.223 0.92 0.92 2.223-0.92 2.223-2.223 0.92-2.223-0.92-0.92-2.223zM3.714 24q0-1.071 0.75-1.821t1.821-0.75q1.054 0 1.813 0.75t0.759 1.821-0.759 1.821-1.813 0.75q-1.071 0-1.821-0.75t-0.75-1.821zM10.857 4.571q0-1.429 1-2.429t2.429-1 2.429 1 1 2.429-1 2.429-2.429 1-2.429-1-1-2.429zM12 27.429q0-0.946 0.67-1.616t1.616-0.67 1.616 0.67 0.67 1.616-0.67 1.616-1.616 0.67-1.616-0.67-0.67-1.616zM20.286 24q0-0.821 0.589-1.411t1.411-0.589 1.411 0.589 0.589 1.411-0.589 1.411-1.411 0.589-1.411-0.589-0.589-1.411zM20.857 8q0-0.589 0.42-1.009t1.009-0.42 1.009 0.42 0.42 1.009-0.42 1.009-1.009 0.42-1.009-0.42-0.42-1.009zM24 16q0-0.714 0.5-1.214t1.214-0.5 1.214 0.5 0.5 1.214-0.5 1.214-1.214 0.5-1.214-0.5-0.5-1.214z"></path>
</svg>
<svg id="icon-circle" width="32" height="32" viewBox="0 0 32 32" x="96" y="144">
<path fill="#000000" d="M0 16q0-3.732 1.839-6.884t4.991-4.991 6.884-1.839 6.884 1.839 4.991 4.991 1.839 6.884-1.839 6.884-4.991 4.991-6.884 1.839-6.884-1.839-4.991-4.991-1.839-6.884z"></path>
</svg>
<svg id="icon-microphone" width="21" height="32" viewBox="0 0 21 32" x="144" y="144">
<path fill="#000000" d="M0 14.857v-2.286q0-0.464 0.339-0.804t0.804-0.339 0.804 0.339 0.339 0.804v2.286q0 3.304 2.348 5.652t5.652 2.348 5.652-2.348 2.348-5.652v-2.286q0-0.464 0.339-0.804t0.804-0.339 0.804 0.339 0.339 0.804v2.286q0 3.946-2.634 6.866t-6.509 3.348v2.357h4.571q0.464 0 0.804 0.339t0.339 0.804-0.339 0.804-0.804 0.339h-11.429q-0.464 0-0.804-0.339t-0.339-0.804 0.339-0.804 0.804-0.339h4.571v-2.357q-3.875-0.429-6.509-3.348t-2.634-6.866zM4.571 14.857v-9.143q0-2.357 1.679-4.036t4.036-1.679 4.036 1.679 1.679 4.036v9.143q0 2.357-1.679 4.036t-4.036 1.679-4.036-1.679-1.679-4.036z"></path>
</svg>
<svg id="icon-share-alt" width="32" height="32" viewBox="0 0 32 32" x="192" y="144">
<path fill="#000000" d="M0 16q0-2.375 1.67-4.045t4.045-1.67q2.25 0 3.893 1.536l6.429-3.214q-0.036-0.393-0.036-0.607 0-2.375 1.67-4.045t4.045-1.67 4.045 1.67 1.67 4.045-1.67 4.045-4.045 1.67q-2.25 0-3.893-1.536l-6.429 3.214q0.036 0.393 0.036 0.607t-0.036 0.607l6.429 3.214q1.643-1.536 3.893-1.536 2.375 0 4.045 1.67t1.67 4.045-1.67 4.045-4.045 1.67-4.045-1.67-1.67-4.045q0-0.214 0.036-0.607l-6.429-3.214q-1.643 1.536-3.893 1.536-2.375 0-4.045-1.67t-1.67-4.045z"></path>
</svg>
</svg>
