<?xml version="1.0" encoding="utf-8"?>
<!-- Generated by IcoMoon.io -->
<!DOCTYPE svg PUBLIC "-//W3C//DTD SVG 1.1//EN" "http://www.w3.org/Graphics/SVG/1.1/DTD/svg11.dtd">

<svg version="1.1" xmlns="http://www.w3.org/2000/svg" xmlns:xlink="http://www.w3.org/1999/xlink" width="592" height="136" viewBox="0 0 592 136">
<g transform="translate(0 0)">
	<path d="M9.495 18.003c-4.935 0-8.95-4.015-8.95-8.949s4.015-8.95 8.95-8.95c4.935 0 8.949 4.015 8.949 8.95s-4.015 8.949-8.949 8.949v0zM9.491 1.239c-4.307 0-7.81 3.503-7.81 7.81s3.503 7.81 7.81 7.81c4.306 0 7.81-3.503 7.81-7.81s-3.503-7.81-7.81-7.81zM20.511 21.707c0.218 0.218 0.504 0.327 0.791 0.327s0.572-0.109 0.79-0.327c0.437-0.436 0.437-1.145 0-1.58l-5.21-5.057c-0.437-0.437-1.144-0.437-1.58 0s-0.437 1.145 0 1.58l5.21 5.057z" fill="rgb(68, 68, 68)"></path>
</g>
<g transform="translate(38 0)">
	<path d="M2.5 5.077c1.381 0 2.5-1.137 2.5-2.538s-1.119-2.538-2.5-2.538c-1.381 0-2.5 1.137-2.5 2.538s1.119 2.538 2.5 2.538zM2.5 13.538c1.381 0 2.5-1.137 2.5-2.538s-1.119-2.538-2.5-2.538c-1.381 0-2.5 1.137-2.5 2.538s1.119 2.538 2.5 2.538zM2.5 22c1.381 0 2.5-1.137 2.5-2.538s-1.119-2.538-2.5-2.538c-1.381 0-2.5 1.137-2.5 2.538s1.119 2.538 2.5 2.538z" fill="rgb(68, 68, 68)"></path>
</g>
<g transform="translate(76 0)">
	<path d="M6.498 21.91c-0.191 0-0.371-0.090-0.493-0.246l-2.98-3.828h-2.001c-0.494 0-0.895-0.426-0.895-0.951v-15.798c0-0.524 0.402-0.951 0.895-0.951h19.953c0.494 0 0.895 0.426 0.895 0.951v15.798c0 0.524-0.402 0.951-0.895 0.951h-11.005l-2.98 3.828c-0.122 0.156-0.302 0.246-0.493 0.246v0zM3.062 16.683c0.494 0 0.582 0.125 0.756 0.284l2.679 3.383 2.416-3.383c0.17-0.17 0.393-0.284 0.757-0.284h11.185v-15.492h-19.712v15.492h1.918zM12.831 12.93c-0.285 0-0.543-0.199-0.648-0.504l-1.326-3.834-1.064 3.054c-0.095 0.273-0.314 0.464-0.569 0.497-0.257 0.035-0.506-0.097-0.652-0.339l-1.203-1.987-1.083 1.491c-0.246 0.339-0.686 0.385-0.982 0.104s-0.337-0.784-0.091-1.122l1.67-2.3c0.139-0.192 0.348-0.303 0.567-0.287 0.218 0.011 0.419 0.138 0.543 0.343l0.986 1.628 1.233-3.539c0.106-0.303 0.362-0.502 0.648-0.502h0.001c0.286 0 0.542 0.2 0.648 0.504l1.238 3.582 1.357-5.085c0.083-0.313 0.326-0.536 0.611-0.562 0.282-0.027 0.556 0.149 0.682 0.444l1.481 3.449c0.169 0.395 0.027 0.873-0.319 1.067s-0.764 0.030-0.933-0.365l-0.703-1.637-1.424 5.335c-0.086 0.324-0.343 0.55-0.639 0.564-0.009 0-0.019 0.001-0.028 0.001v0z" fill="rgb(68, 68, 68)"></path>
</g>
<g transform="translate(114 0)">
	<path d="M26.551 8.474c0.002-0.286 0.006-0.513 0.011-0.641 0.006-0.146-0.046-0.287-0.146-0.392s-0.235-0.163-0.379-0.162c-0.407 0.003-2.713 0.009-4.528 0.009-0.549 0-1.055-0.001-1.448-0.003-0.197-0.001-0.366-0.002-0.498-0.003s-0.23-0.003-0.273-0.004c-0.193-0.007-0.363 0.096-0.458 0.253-0.070 0.097-0.111 0.217-0.103 0.345 0 0.001 0.001 0.018 0.001 0.040 0.002 0.081 0.003 0.249 0.005 0.468s0.001 0.495 0.001 0.8c0 1.398-0.007 3.443-0.007 3.941 0 0.089-0.002 0.152-0.005 0.212s-0.006 0.122-0.006 0.196c0 0.099 0.007 0.211 0.023 0.352 0.030 0.261 0.242 0.459 0.499 0.468 0.729 0.025 1.586 0.027 2.305 0.027h0.011c0.305 0 0.82 0.008 1.397 0.017s1.22 0.017 1.791 0.017c0.271 0 0.527-0.002 0.753-0.007s0.423-0.012 0.583-0.025c0.271-0.021 0.481-0.251 0.482-0.529 0-0.027 0-0.058 0-0.091 0-0.714-0.016-2.751-0.016-4.276 0-0.379 0.002-0.727 0.005-1.014v0zM25.476 13.346c-0.215 0.004-0.465 0.006-0.732 0.006-0.561 0-1.2-0.008-1.776-0.016-0.577-0.009-1.090-0.017-1.411-0.017h-0.011c-0.556 0-1.191-0.002-1.778-0.014 0.002-0.051 0.003-0.11 0.003-0.179 0-0.493 0.007-2.541 0.007-3.941 0-0.323 0-0.608-0.001-0.837 0.422 0.003 1.041 0.004 1.734 0.004 1.412 0 3.115-0.004 4-0.008-0.001 0.040-0.001 0.078-0.002 0.119-0.002 0.291-0.003 0.642-0.003 1.024 0 1.294 0.011 2.948 0.015 3.856-0.015 0-0.028 0.001-0.044 0.001v0z" fill="rgb(68, 68, 68)"></path>
	<path d="M29.771 5.037c-0.005-0.279-0.219-0.506-0.492-0.522-1.483-0.082-2.981-0.134-4.484-0.165l-1.558-3.999c-0.054-0.138-0.163-0.248-0.298-0.301s-0.289-0.045-0.419 0.021c0 0-0.028 0.014-0.083 0.042-0.411 0.208-2.288 1.154-4.331 2.101-1.021 0.473-2.084 0.947-3.022 1.327-0.469 0.19-0.906 0.357-1.288 0.489s-0.711 0.227-0.95 0.275c-0.080 0.016-0.15 0.052-0.212 0.099-2.414 0.039-4.803 0.077-7.138 0.077h-0.118c-0.093 0-0.179 0.027-0.254 0.071-0.012 0.007-0.025 0.012-0.037 0.020-0.001 0.001-0.002 0.003-0.003 0.003-0.137 0.096-0.226 0.256-0.226 0.439 0 0.966 0.004 1.962 0.011 2.971-0.077-0.003-0.155 0.011-0.23 0.046-1.315 0.615-2.631 1.224-3.952 1.819-0.008 0.004-0.015 0.009-0.023 0.013-0.017 0.009-0.032 0.018-0.048 0.027-0.014 0.009-0.027 0.019-0.041 0.030s-0.026 0.022-0.037 0.033c-0.013 0.012-0.025 0.025-0.036 0.039-0.010 0.012-0.020 0.025-0.029 0.038-0.010 0.014-0.019 0.029-0.027 0.044s-0.015 0.030-0.022 0.045c-0.007 0.015-0.013 0.030-0.018 0.047s-0.010 0.033-0.014 0.050c-0.004 0.016-0.007 0.034-0.009 0.051-0.002 0.016-0.003 0.033-0.004 0.049-0.001 0.019 0 0.038 0.001 0.058 0 0.009-0 0.017 0 0.027 0.111 0.912 0.444 1.825 0.822 2.702 0.379 0.876 0.808 1.717 1.13 2.45 0.406 0.926 0.906 1.952 1.41 2.971 0.495 1.001 0.994 1.994 1.41 2.872 0.014 0.283 0.242 0.506 0.52 0.506 8.523 0 23.766-0.007 23.766-0.007 0.139 0 0.272-0.057 0.37-0.158s0.152-0.237 0.151-0.379c-0 0.001-0.097-11.377-0.186-16.319v0zM16.873 3.935c2.2-0.965 4.585-2.145 5.604-2.656l1.188 3.052c-0.929-0.013-1.86-0.019-2.792-0.019-1.66 0-3.322 0.018-4.977 0.041 0.318-0.133 0.645-0.273 0.977-0.419v0zM3.282 15.118c-0.34-0.776-0.767-1.61-1.128-2.445-0.3-0.693-0.551-1.384-0.678-2.020 1.137-0.515 2.27-1.038 3.4-1.566 0.032 3.361 0.099 6.802 0.187 9.749-0.13-0.263-0.262-0.527-0.392-0.792-0.502-1.015-0.996-2.029-1.389-2.926v0zM6.172 20.838c-0.155-4.26-0.266-10.146-0.273-15.295 4.873-0.009 9.942-0.167 14.975-0.167 2.644 0 5.277 0.045 7.865 0.178 0.041 2.492 0.084 6.27 0.117 9.508 0.018 1.731 0.032 3.307 0.043 4.451 0.005 0.551 0.009 1 0.012 1.319h-0.147c-2.967 0.001-15.084 0.006-22.592 0.006v0z" fill="rgb(68, 68, 68)"></path>
	<path d="M8.383 8.852h8.688c0.288 0 0.521-0.238 0.521-0.532s-0.233-0.532-0.521-0.532h-8.688c-0.288 0-0.521 0.238-0.521 0.532s0.233 0.532 0.521 0.532v0z" fill="rgb(68, 68, 68)"></path>
	<path d="M17.466 10.601c0-0.293-0.233-0.531-0.521-0.531-2.528 0-5.303 0.127-8.066 0.126-0.288 0-0.521 0.238-0.521 0.533 0 0.293 0.233 0.531 0.521 0.531 2.793 0 5.572-0.127 8.066-0.127 0.288-0 0.521-0.238 0.521-0.532v0z" fill="rgb(68, 68, 68)"></path>
	<path d="M16.574 12.35c-2.529 0-5.304 0.127-8.068 0.127-0.288 0-0.521 0.238-0.521 0.532s0.233 0.532 0.521 0.532c2.795-0 5.572-0.127 8.068-0.127 0.288 0 0.521-0.239 0.521-0.533s-0.233-0.532-0.521-0.532v0z" fill="rgb(68, 68, 68)"></path>
	<path d="M25.758 15.391c-2.26 0-5.258 0.030-8.177 0.030-1.896 0-3.758-0.013-5.359-0.054-0.801-0.021-1.535-0.049-2.175-0.085s-1.183-0.083-1.597-0.139c-0.285-0.039-0.547 0.167-0.584 0.459s0.164 0.558 0.449 0.596c0.454 0.061 1.019 0.108 1.673 0.146 1.963 0.114 4.741 0.141 7.593 0.141 2.926 0 5.927-0.029 8.177-0.029 0.287 0 0.52-0.238 0.52-0.533s-0.233-0.531-0.52-0.531v0z" fill="rgb(68, 68, 68)"></path>
	<path d="M25.758 18.052c-5.191 0-17.38 0.127-17.381 0.127-0.288 0.003-0.518 0.243-0.515 0.537s0.238 0.53 0.526 0.526c0 0 0.19-0.002 0.534-0.006 2.403-0.024 12.305-0.12 16.836-0.12 0.287 0 0.52-0.238 0.52-0.532s-0.233-0.532-0.52-0.532v0z" fill="rgb(68, 68, 68)"></path>
</g>
<g transform="translate(152 0)">
	<path d="M18.022 4.665q0.344 0.344 0.589 0.933t0.246 1.080v14.143q0 0.491-0.344 0.835t-0.835 0.344h-16.5q-0.491 0-0.835-0.344t-0.344-0.835v-19.643q0-0.491 0.344-0.835t0.835-0.344h11q0.491 0 1.080 0.246t0.933 0.589zM12.571 1.67v4.616h4.616q-0.123-0.356-0.27-0.503l-3.843-3.843q-0.147-0.147-0.503-0.27zM17.286 20.429v-12.571h-5.107q-0.491 0-0.835-0.344t-0.344-0.835v-5.107h-9.429v18.857h15.714z" fill="#000000"></path>
</g>
<g transform="translate(190 0)">
	<path d="M18.022 4.665q0.344 0.344 0.589 0.933t0.246 1.080v14.143q0 0.491-0.344 0.835t-0.835 0.344h-16.5q-0.491 0-0.835-0.344t-0.344-0.835v-19.643q0-0.491 0.344-0.835t0.835-0.344h11q0.491 0 1.080 0.246t0.933 0.589zM12.571 1.67v4.616h4.616q-0.123-0.356-0.27-0.503l-3.843-3.843q-0.147-0.147-0.503-0.27zM17.286 20.429v-12.571h-5.107q-0.491 0-0.835-0.344t-0.344-0.835v-5.107h-9.429v18.857h15.714zM4.714 9.821q0-0.172 0.11-0.282t0.282-0.11h8.643q0.172 0 0.282 0.11t0.11 0.282v0.786q0 0.172-0.11 0.282t-0.282 0.11h-8.643q-0.172 0-0.282-0.11t-0.11-0.282v-0.786zM13.75 12.571q0.172 0 0.282 0.11t0.11 0.282v0.786q0 0.172-0.11 0.282t-0.282 0.11h-8.643q-0.172 0-0.282-0.11t-0.11-0.282v-0.786q0-0.172 0.11-0.282t0.282-0.11h8.643zM13.75 15.714q0.172 0 0.282 0.11t0.11 0.282v0.786q0 0.172-0.11 0.282t-0.282 0.11h-8.643q-0.172 0-0.282-0.11t-0.11-0.282v-0.786q0-0.172 0.11-0.282t0.282-0.11h8.643z" fill="#000000"></path>
</g>
<g transform="translate(228 0)">
	<path d="M18.022 4.665q0.344 0.344 0.589 0.933t0.246 1.080v14.143q0 0.491-0.344 0.835t-0.835 0.344h-16.5q-0.491 0-0.835-0.344t-0.344-0.835v-19.643q0-0.491 0.344-0.835t0.835-0.344h11q0.491 0 1.080 0.246t0.933 0.589zM12.571 1.67v4.616h4.616q-0.123-0.356-0.27-0.503l-3.843-3.843q-0.147-0.147-0.503-0.27zM17.286 20.429v-12.571h-5.107q-0.491 0-0.835-0.344t-0.344-0.835v-5.107h-9.429v18.857h15.714zM10.975 13.148q0.405 0.319 1.031 0.688 0.724-0.086 1.436-0.086 1.805 0 2.173 0.602 0.196 0.27 0.025 0.638 0 0.012-0.012 0.025l-0.025 0.025v0.012q-0.074 0.467-0.872 0.467-0.589 0-1.412-0.246t-1.596-0.651q-2.713 0.295-4.813 1.019-1.878 3.217-2.971 3.217-0.184 0-0.344-0.086l-0.295-0.147q-0.012-0.012-0.074-0.061-0.123-0.123-0.074-0.442 0.11-0.491 0.688-1.123t1.621-1.185q0.172-0.11 0.282 0.074 0.025 0.025 0.025 0.049 0.638-1.044 1.314-2.419 0.835-1.67 1.277-3.217-0.295-1.007-0.374-1.958t0.080-1.565q0.135-0.491 0.516-0.491h0.27q0.282 0 0.43 0.184 0.221 0.258 0.11 0.835-0.025 0.074-0.049 0.098 0.012 0.037 0.012 0.098v0.368q-0.025 1.51-0.172 2.357 0.675 2.013 1.792 2.922zM3.904 18.194q0.638-0.295 1.682-1.94-0.626 0.491-1.074 1.031t-0.608 0.908zM8.79 6.9q-0.184 0.516-0.025 1.621 0.012-0.086 0.086-0.54 0-0.037 0.086-0.528 0.012-0.049 0.049-0.098-0.012-0.012-0.012-0.025t-0.006-0.018-0.006-0.018q-0.012-0.27-0.16-0.442 0 0.012-0.012 0.025v0.025zM7.268 15.015q1.657-0.663 3.487-0.994-0.025-0.012-0.16-0.117t-0.196-0.166q-0.933-0.823-1.559-2.161-0.331 1.056-1.019 2.419-0.368 0.688-0.552 1.019zM15.199 14.818q-0.295-0.295-1.719-0.295 0.933 0.344 1.522 0.344 0.172 0 0.221-0.012 0-0.012-0.025-0.037z" fill="#000000"></path>
</g>
<g transform="translate(266 0)">
	<path d="M18.022 4.665q0.344 0.344 0.589 0.933t0.246 1.080v14.143q0 0.491-0.344 0.835t-0.835 0.344h-16.5q-0.491 0-0.835-0.344t-0.344-0.835v-19.643q0-0.491 0.344-0.835t0.835-0.344h11q0.491 0 1.080 0.246t0.933 0.589zM12.571 1.67v4.616h4.616q-0.123-0.356-0.27-0.503l-3.843-3.843q-0.147-0.147-0.503-0.27zM17.286 20.429v-12.571h-5.107q-0.491 0-0.835-0.344t-0.344-0.835v-5.107h-9.429v18.857h15.714zM2.86 9.429v1.314h0.859l2.013 8.115h1.952l1.571-5.954q0.086-0.246 0.123-0.565 0.025-0.196 0.025-0.295h0.049l0.037 0.295q0.012 0.037 0.043 0.246t0.068 0.319l1.571 5.954h1.952l2.013-8.115h0.859v-1.314h-3.683v1.314h1.105l-1.215 5.377q-0.061 0.246-0.086 0.565l-0.025 0.258h-0.049l-0.037-0.258q-0.012-0.061-0.049-0.258t-0.061-0.307l-1.768-6.691h-1.4l-1.768 6.691q-0.025 0.11-0.055 0.301t-0.043 0.264l-0.049 0.258h-0.049l-0.025-0.258q-0.025-0.319-0.086-0.565l-1.215-5.377h1.105v-1.314h-3.683z" fill="#000000"></path>
</g>
<g transform="translate(304 0)">
	<path d="M18.022 4.665q0.344 0.344 0.589 0.933t0.246 1.080v14.143q0 0.491-0.344 0.835t-0.835 0.344h-16.5q-0.491 0-0.835-0.344t-0.344-0.835v-19.643q0-0.491 0.344-0.835t0.835-0.344h11q0.491 0 1.080 0.246t0.933 0.589zM12.571 1.67v4.616h4.616q-0.123-0.356-0.27-0.503l-3.843-3.843q-0.147-0.147-0.503-0.27zM17.286 20.429v-12.571h-5.107q-0.491 0-0.835-0.344t-0.344-0.835v-5.107h-9.429v18.857h15.714zM5.267 17.556v1.301h3.45v-1.301h-0.921l1.265-1.977q0.061-0.086 0.123-0.203t0.092-0.166 0.043-0.049h0.025q0.012 0.049 0.061 0.123 0.025 0.049 0.055 0.092t0.074 0.098 0.080 0.104l1.314 1.977h-0.933v1.301h3.573v-1.301h-0.835l-2.357-3.352 2.394-3.462h0.823v-1.314h-3.425v1.314h0.908l-1.265 1.952q-0.049 0.086-0.123 0.203t-0.11 0.166l-0.025 0.037h-0.025q-0.012-0.049-0.061-0.123-0.074-0.135-0.209-0.282l-1.301-1.952h0.933v-1.314h-3.56v1.314h0.835l2.32 3.339-2.382 3.474h-0.835z" fill="#000000"></path>
</g>
<g transform="translate(342 0)">
	<path d="M18.022 4.665q0.344 0.344 0.589 0.933t0.246 1.080v14.143q0 0.491-0.344 0.835t-0.835 0.344h-16.5q-0.491 0-0.835-0.344t-0.344-0.835v-19.643q0-0.491 0.344-0.835t0.835-0.344h11q0.491 0 1.080 0.246t0.933 0.589zM12.571 1.67v4.616h4.616q-0.123-0.356-0.27-0.503l-3.843-3.843q-0.147-0.147-0.503-0.27zM17.286 20.429v-12.571h-5.107q-0.491 0-0.835-0.344t-0.344-0.835v-5.107h-9.429v18.857h15.714zM5.107 17.556v1.301h4.015v-1.301h-1.142v-2.050h1.682q0.933 0 1.449-0.184 0.823-0.282 1.307-1.068t0.485-1.792q0-0.994-0.454-1.731t-1.228-1.068q-0.589-0.233-1.596-0.233h-4.518v1.314h1.129v6.814h-1.129zM9.441 14.118h-1.461v-3.29h1.473q0.638 0 1.019 0.221 0.688 0.405 0.688 1.412 0 1.093-0.761 1.473-0.381 0.184-0.958 0.184z" fill="#000000"></path>
</g>
<g transform="translate(380 0)">
	<path d="M18.022 4.665q0.344 0.344 0.589 0.933t0.246 1.080v14.143q0 0.491-0.344 0.835t-0.835 0.344h-16.5q-0.491 0-0.835-0.344t-0.344-0.835v-19.643q0-0.491 0.344-0.835t0.835-0.344h11q0.491 0 1.080 0.246t0.933 0.589zM12.571 1.67v4.616h4.616q-0.123-0.356-0.27-0.503l-3.843-3.843q-0.147-0.147-0.503-0.27zM17.286 20.429v-12.571h-5.107q-0.491 0-0.835-0.344t-0.344-0.835v-5.107h-9.429v18.857h15.714zM15.714 14.929v3.929h-12.571v-2.357l2.357-2.357 1.571 1.571 4.714-4.714zM5.5 12.571q-0.982 0-1.67-0.688t-0.688-1.67 0.688-1.67 1.67-0.688 1.67 0.688 0.688 1.67-0.688 1.67-1.67 0.688z" fill="#000000"></path>
</g>
<g transform="translate(418 0)">
	<path d="M7.857 4.714v-1.571h-1.571v1.571h1.571zM9.429 6.286v-1.571h-1.571v1.571h1.571zM7.857 7.857v-1.571h-1.571v1.571h1.571zM9.429 9.429v-1.571h-1.571v1.571h1.571zM18.022 4.665q0.344 0.344 0.589 0.933t0.246 1.080v14.143q0 0.491-0.344 0.835t-0.835 0.344h-16.5q-0.491 0-0.835-0.344t-0.344-0.835v-19.643q0-0.491 0.344-0.835t0.835-0.344h11q0.491 0 1.080 0.246t0.933 0.589zM12.571 1.67v4.616h4.616q-0.123-0.356-0.27-0.503l-3.843-3.843q-0.147-0.147-0.503-0.27zM17.286 20.429v-12.571h-5.107q-0.491 0-0.835-0.344t-0.344-0.835v-5.107h-1.571v1.571h-1.571v-1.571h-6.286v18.857h15.714zM9.588 11.577l1.314 4.285q0.098 0.331 0.098 0.638 0 1.019-0.89 1.688t-2.253 0.669-2.253-0.669-0.89-1.688q0-0.307 0.098-0.638 0.258-0.773 1.473-4.862v-1.571h1.571v1.571h0.97q0.27 0 0.479 0.16t0.282 0.417zM7.857 17.286q0.651 0 1.111-0.233t0.46-0.552-0.46-0.552-1.111-0.233-1.111 0.233-0.46 0.552 0.46 0.552 1.111 0.233z" fill="#000000"></path>
</g>
<g transform="translate(456 0)">
	<path d="M18.022 4.665q0.344 0.344 0.589 0.933t0.246 1.080v14.143q0 0.491-0.344 0.835t-0.835 0.344h-16.5q-0.491 0-0.835-0.344t-0.344-0.835v-19.643q0-0.491 0.344-0.835t0.835-0.344h11q0.491 0 1.080 0.246t0.933 0.589zM12.571 1.67v4.616h4.616q-0.123-0.356-0.27-0.503l-3.843-3.843q-0.147-0.147-0.503-0.27zM17.286 20.429v-12.571h-5.107q-0.491 0-0.835-0.344t-0.344-0.835v-5.107h-9.429v18.857h15.714zM7.612 10.435q0.246 0.098 0.246 0.368v6.679q0 0.27-0.246 0.368-0.098 0.025-0.147 0.025-0.147 0-0.282-0.11l-2.038-2.050h-1.608q-0.172 0-0.282-0.11t-0.11-0.282v-2.357q0-0.172 0.11-0.282t0.282-0.11h1.608l2.038-2.050q0.196-0.184 0.43-0.086zM12.731 18.894q0.381 0 0.614-0.295 1.584-1.952 1.584-4.456t-1.584-4.456q-0.196-0.258-0.528-0.295t-0.577 0.172q-0.258 0.209-0.289 0.534t0.178 0.583q1.228 1.51 1.228 3.462t-1.228 3.462q-0.209 0.258-0.178 0.583t0.289 0.522q0.221 0.184 0.491 0.184zM10.141 17.077q0.331 0 0.577-0.246 1.068-1.142 1.068-2.689t-1.068-2.689q-0.221-0.233-0.552-0.246t-0.565 0.209-0.246 0.546 0.221 0.571q0.638 0.7 0.638 1.608t-0.638 1.608q-0.233 0.246-0.221 0.571t0.246 0.546q0.246 0.209 0.54 0.209z" fill="#000000"></path>
</g>
<g transform="translate(494 0)">
	<path d="M18.022 4.665q0.344 0.344 0.589 0.933t0.246 1.080v14.143q0 0.491-0.344 0.835t-0.835 0.344h-16.5q-0.491 0-0.835-0.344t-0.344-0.835v-19.643q0-0.491 0.344-0.835t0.835-0.344h11q0.491 0 1.080 0.246t0.933 0.589zM12.571 1.67v4.616h4.616q-0.123-0.356-0.27-0.503l-3.843-3.843q-0.147-0.147-0.503-0.27zM17.286 20.429v-12.571h-5.107q-0.491 0-0.835-0.344t-0.344-0.835v-5.107h-9.429v18.857h15.714zM9.429 9.429q0.638 0 1.105 0.467t0.467 1.105v4.714q0 0.638-0.467 1.105t-1.105 0.467h-4.714q-0.638 0-1.105-0.467t-0.467-1.105v-4.714q0-0.638 0.467-1.105t1.105-0.467h4.714zM15.469 9.453q0.246 0.098 0.246 0.368v7.071q0 0.27-0.246 0.368-0.098 0.025-0.147 0.025-0.172 0-0.282-0.11l-3.253-3.266v-1.105l3.253-3.266q0.11-0.11 0.282-0.11 0.049 0 0.147 0.025z" fill="#000000"></path>
</g>
<g transform="translate(532 0)">
	<path d="M20.429 7.943q0 0.27-0.319 0.589l-4.456 4.346 1.056 6.138q0.012 0.086 0.012 0.246 0 0.258-0.129 0.436t-0.374 0.178q-0.233 0-0.491-0.147l-5.512-2.897-5.512 2.897q-0.27 0.147-0.491 0.147-0.258 0-0.387-0.178t-0.129-0.436q0-0.074 0.025-0.246l1.056-6.138-4.469-4.346q-0.307-0.331-0.307-0.589 0-0.454 0.687-0.565l6.163-0.896 2.762-5.586q0.233-0.503 0.602-0.503t0.602 0.503l2.762 5.586 6.163 0.896q0.688 0.11 0.688 0.565z" fill="#000000"></path>
</g>
<g transform="translate(570 0)">
	<path d="M17.286 17.249q0 1.473-0.896 2.326t-2.382 0.853h-10.73q-1.485 0-2.382-0.853t-0.896-2.326q0-0.651 0.043-1.271t0.172-1.338 0.325-1.332 0.528-1.197 0.761-0.994 1.050-0.657 1.369-0.246q0.11 0 0.516 0.264t0.915 0.589 1.326 0.589 1.639 0.264 1.639-0.264 1.326-0.589 0.915-0.589 0.516-0.264q0.749 0 1.369 0.246t1.050 0.657 0.761 0.994 0.528 1.197 0.325 1.332 0.172 1.338 0.043 1.271zM13.357 6.286q0 1.952-1.381 3.333t-3.333 1.381-3.333-1.381-1.381-3.333 1.381-3.333 3.333-1.381 3.333 1.381 1.381 3.333z" fill="#000000"></path>
</g>
<g transform="translate(0 38)">
	<path d="M12.571 11q0-1.301-0.921-2.222t-2.222-0.921-2.222 0.921-0.921 2.222 0.921 2.222 2.222 0.921 2.222-0.921 0.921-2.222zM18.857 9.662v2.725q0 0.147-0.098 0.282t-0.246 0.16l-2.271 0.344q-0.233 0.663-0.479 1.117 0.43 0.614 1.314 1.694 0.123 0.147 0.123 0.307t-0.11 0.282q-0.331 0.454-1.215 1.326t-1.154 0.872q-0.147 0-0.319-0.11l-1.694-1.326q-0.54 0.282-1.117 0.467-0.196 1.67-0.356 2.283-0.086 0.344-0.442 0.344h-2.725q-0.172 0-0.301-0.104t-0.141-0.264l-0.344-2.259q-0.602-0.196-1.105-0.454l-1.731 1.314q-0.123 0.11-0.307 0.11-0.172 0-0.307-0.135-1.547-1.4-2.026-2.063-0.086-0.123-0.086-0.282 0-0.147 0.098-0.282 0.184-0.258 0.626-0.816t0.663-0.866q-0.331-0.614-0.503-1.215l-2.247-0.331q-0.16-0.025-0.258-0.153t-0.098-0.289v-2.725q0-0.147 0.098-0.282t0.233-0.16l2.283-0.344q0.172-0.565 0.479-1.129-0.491-0.7-1.314-1.694-0.123-0.147-0.123-0.295 0-0.123 0.11-0.282 0.319-0.442 1.209-1.32t1.16-0.878q0.16 0 0.319 0.123l1.694 1.314q0.54-0.282 1.117-0.467 0.196-1.67 0.356-2.283 0.086-0.344 0.442-0.344h2.725q0.172 0 0.301 0.104t0.141 0.264l0.344 2.259q0.602 0.196 1.105 0.454l1.743-1.314q0.11-0.11 0.295-0.11 0.16 0 0.307 0.123 1.584 1.461 2.026 2.087 0.086 0.098 0.086 0.27 0 0.147-0.098 0.282-0.184 0.258-0.626 0.816t-0.663 0.866q0.319 0.614 0.503 1.203l2.247 0.344q0.16 0.025 0.258 0.153t0.098 0.289z" fill="#000000"></path>
</g>
<g transform="translate(38 38)">
	<path d="M17.286 12.179v5.893q0 0.319-0.233 0.552t-0.552 0.233h-4.714v-4.714h-3.143v4.714h-4.714q-0.319 0-0.552-0.233t-0.233-0.552v-5.893q0-0.012 0.006-0.037t0.006-0.037l7.059-5.819 7.059 5.819q0.012 0.025 0.012 0.074zM20.023 11.331l-0.761 0.908q-0.098 0.11-0.258 0.135h-0.037q-0.16 0-0.258-0.086l-8.496-7.084-8.496 7.084q-0.147 0.098-0.295 0.086-0.16-0.025-0.258-0.135l-0.761-0.908q-0.098-0.123-0.086-0.289t0.135-0.264l8.827-7.354q0.393-0.319 0.933-0.319t0.933 0.319l2.996 2.504v-2.394q0-0.172 0.11-0.282t0.282-0.11h2.357q0.172 0 0.282 0.11t0.11 0.282v5.009l2.689 2.234q0.123 0.098 0.135 0.264t-0.086 0.289z" fill="#000000"></path>
</g>
<g transform="translate(76 38)">
	<path d="M11.786 8.25q1.461 0 2.498 1.037t1.037 2.498-1.037 2.498-2.498 1.037-2.498-1.037-1.037-2.498 1.037-2.498 2.498-1.037zM20.429 3.143q1.301 0 2.222 0.921t0.921 2.222v11q0 1.301-0.921 2.222t-2.222 0.921h-17.286q-1.301 0-2.222-0.921t-0.921-2.222v-11q0-1.301 0.921-2.222t2.222-0.921h2.75l0.626-1.67q0.233-0.602 0.853-1.037t1.271-0.436h6.286q0.651 0 1.271 0.436t0.853 1.037l0.626 1.67h2.75zM11.786 17.286q2.271 0 3.886-1.614t1.614-3.886-1.614-3.886-3.886-1.614-3.886 1.614-1.614 3.886 1.614 3.886 3.886 1.614z" fill="#000000"></path>
</g>
<g transform="translate(114 38)">
	<path d="M14.929 11.786v-1.571q0-0.319-0.233-0.552t-0.552-0.233h-3.143v-3.143q0-0.319-0.233-0.552t-0.552-0.233h-1.571q-0.319 0-0.552 0.233t-0.233 0.552v3.143h-3.143q-0.319 0-0.552 0.233t-0.233 0.552v1.571q0 0.319 0.233 0.552t0.552 0.233h3.143v3.143q0 0.319 0.233 0.552t0.552 0.233h1.571q0.319 0 0.552-0.233t0.233-0.552v-3.143h3.143q0.319 0 0.552-0.233t0.233-0.552zM18.857 11q0 2.566-1.265 4.733t-3.431 3.431-4.733 1.265-4.733-1.265-3.431-3.431-1.265-4.733 1.265-4.733 3.431-3.431 4.733-1.265 4.733 1.265 3.431 3.431 1.265 4.733z" fill="#000000"></path>
</g>
<g transform="translate(152 38)">
	<path d="M14.929 11.786v-1.571q0-0.319-0.233-0.552t-0.552-0.233h-9.429q-0.319 0-0.552 0.233t-0.233 0.552v1.571q0 0.319 0.233 0.552t0.552 0.233h9.429q0.319 0 0.552-0.233t0.233-0.552zM18.857 11q0 2.566-1.265 4.733t-3.431 3.431-4.733 1.265-4.733-1.265-3.431-3.431-1.265-4.733 1.265-4.733 3.431-3.431 4.733-1.265 4.733 1.265 3.431 3.431 1.265 4.733z" fill="#000000"></path>
</g>
<g transform="translate(190 38)">
	<path d="M14.106 13.775q0-0.319-0.233-0.552l-2.222-2.222 2.222-2.222q0.233-0.233 0.233-0.552 0-0.331-0.233-0.565l-1.105-1.105q-0.233-0.233-0.565-0.233-0.319 0-0.552 0.233l-2.222 2.222-2.222-2.222q-0.233-0.233-0.552-0.233-0.331 0-0.565 0.233l-1.105 1.105q-0.233 0.233-0.233 0.565 0 0.319 0.233 0.552l2.222 2.222-2.222 2.222q-0.233 0.233-0.233 0.552 0 0.331 0.233 0.565l1.105 1.105q0.233 0.233 0.565 0.233 0.319 0 0.552-0.233l2.222-2.222 2.222 2.222q0.233 0.233 0.552 0.233 0.331 0 0.565-0.233l1.105-1.105q0.233-0.233 0.233-0.565zM18.857 11q0 2.566-1.265 4.733t-3.431 3.431-4.733 1.265-4.733-1.265-3.431-3.431-1.265-4.733 1.265-4.733 3.431-3.431 4.733-1.265 4.733 1.265 3.431 3.431 1.265 4.733z" fill="#000000"></path>
</g>
<g transform="translate(228 38)">
	<path d="M15.763 9.011q0-0.344-0.221-0.565l-1.117-1.105q-0.233-0.233-0.552-0.233t-0.552 0.233l-5.009 4.997-2.775-2.775q-0.233-0.233-0.552-0.233t-0.552 0.233l-1.117 1.105q-0.221 0.221-0.221 0.565 0 0.331 0.221 0.552l4.444 4.444q0.233 0.233 0.552 0.233 0.331 0 0.565-0.233l6.666-6.666q0.221-0.221 0.221-0.552zM18.857 11q0 2.566-1.265 4.733t-3.431 3.431-4.733 1.265-4.733-1.265-3.431-3.431-1.265-4.733 1.265-4.733 3.431-3.431 4.733-1.265 4.733 1.265 3.431 3.431 1.265 4.733z" fill="#000000"></path>
</g>
<g transform="translate(266 38)">
	<path d="M11 16.893v-2.357q0-0.172-0.11-0.282t-0.282-0.11h-2.357q-0.172 0-0.282 0.11t-0.11 0.282v2.357q0 0.172 0.11 0.282t0.282 0.11h2.357q0.172 0 0.282-0.11t0.11-0.282zM14.143 8.643q0-1.080-0.681-2.001t-1.7-1.424-2.087-0.503q-2.983 0-4.555 2.615-0.184 0.295 0.098 0.516l1.621 1.228q0.086 0.074 0.233 0.074 0.196 0 0.307-0.147 0.651-0.835 1.056-1.129 0.417-0.295 1.056-0.295 0.589 0 1.050 0.319t0.46 0.724q0 0.467-0.246 0.749t-0.835 0.552q-0.773 0.344-1.418 1.062t-0.645 1.541v0.442q0 0.172 0.11 0.282t0.282 0.11h2.357q0.172 0 0.282-0.11t0.11-0.282q0-0.233 0.264-0.608t0.669-0.608q0.393-0.221 0.602-0.35t0.565-0.43 0.546-0.589 0.344-0.743 0.153-0.994zM18.857 11q0 2.566-1.265 4.733t-3.431 3.431-4.733 1.265-4.733-1.265-3.431-3.431-1.265-4.733 1.265-4.733 3.431-3.431 4.733-1.265 4.733 1.265 3.431 3.431 1.265 4.733z" fill="#000000"></path>
</g>
<g transform="translate(304 38)">
	<path d="M13.468 13.247l-1.792 1.792q-0.123 0.123-0.282 0.123t-0.282-0.123l-1.682-1.682-1.682 1.682q-0.123 0.123-0.282 0.123t-0.282-0.123l-1.792-1.792q-0.123-0.123-0.123-0.282t0.123-0.282l1.682-1.682-1.682-1.682q-0.123-0.123-0.123-0.282t0.123-0.282l1.792-1.792q0.123-0.123 0.282-0.123t0.282 0.123l1.682 1.682 1.682-1.682q0.123-0.123 0.282-0.123t0.282 0.123l1.792 1.792q0.123 0.123 0.123 0.282t-0.123 0.282l-1.682 1.682 1.682 1.682q0.123 0.123 0.123 0.282t-0.123 0.282zM16.107 11q0-1.817-0.896-3.352t-2.431-2.431-3.352-0.896-3.352 0.896-2.431 2.431-0.896 3.352 0.896 3.352 2.431 2.431 3.352 0.896 3.352-0.896 2.431-2.431 0.896-3.352zM18.857 11q0 2.566-1.265 4.733t-3.431 3.431-4.733 1.265-4.733-1.265-3.431-3.431-1.265-4.733 1.265-4.733 3.431-3.431 4.733-1.265 4.733 1.265 3.431 3.431 1.265 4.733z" fill="#000000"></path>
</g>
<g transform="translate(342 38)">
	<path d="M3.143 16.5q0-0.319-0.233-0.552t-0.552-0.233-0.552 0.233-0.233 0.552 0.233 0.552 0.552 0.233 0.552-0.233 0.233-0.552zM17.286 9.429q0-0.626-0.479-1.099t-1.093-0.473h-4.321q0-0.712 0.589-1.958t0.589-1.97q0-1.203-0.393-1.78t-1.571-0.577q-0.319 0.319-0.467 1.044t-0.374 1.541-0.73 1.344q-0.27 0.282-0.945 1.117-0.049 0.061-0.282 0.368t-0.387 0.503-0.424 0.522-0.491 0.54-0.473 0.436-0.491 0.331-0.436 0.11h-0.393v7.857h0.393q0.16 0 0.387 0.037t0.405 0.080 0.467 0.135 0.43 0.141 0.436 0.153 0.356 0.129q2.59 0.896 4.199 0.896h1.485q2.357 0 2.357-2.050 0-0.319-0.061-0.688 0.368-0.196 0.583-0.645t0.215-0.902-0.221-0.847q0.651-0.614 0.651-1.461 0-0.307-0.123-0.681t-0.307-0.583q0.393-0.012 0.657-0.577t0.264-0.994zM18.857 9.416q0 1.093-0.602 2.001 0.11 0.405 0.11 0.847 0 0.945-0.467 1.768 0.037 0.258 0.037 0.528 0 1.24-0.737 2.185 0.012 1.706-1.044 2.695t-2.787 0.988h-1.584q-1.179 0-2.326-0.276t-2.658-0.804q-1.424-0.491-1.694-0.491h-3.536q-0.651 0-1.111-0.46t-0.46-1.111v-7.857q0-0.651 0.46-1.111t1.111-0.46h3.364q0.442-0.295 1.682-1.903 0.712-0.921 1.314-1.571 0.295-0.307 0.436-1.050t0.374-1.553 0.761-1.326q0.479-0.454 1.105-0.454 1.031 0 1.854 0.399t1.252 1.246 0.43 2.283q0 1.142-0.589 2.357h2.161q1.277 0 2.21 0.933t0.933 2.198z" fill="#000000"></path>
</g>
<g transform="translate(380 38)">
	<path d="M7.28 11q-1.989 0.061-3.253 1.571h-1.645q-1.007 0-1.694-0.497t-0.688-1.455q0-4.334 1.522-4.334 0.074 0 0.534 0.258t1.197 0.522 1.461 0.264q0.823 0 1.633-0.282-0.061 0.454-0.061 0.81 0 1.706 0.994 3.143zM20.429 18.82q0 1.473-0.896 2.326t-2.382 0.853h-10.73q-1.485 0-2.382-0.853t-0.896-2.326q0-0.651 0.043-1.271t0.172-1.338 0.325-1.332 0.528-1.197 0.761-0.994 1.050-0.657 1.369-0.246q0.123 0 0.528 0.264t0.896 0.589 1.314 0.589 1.657 0.264 1.657-0.264 1.314-0.589 0.896-0.589 0.528-0.264q0.749 0 1.369 0.246t1.050 0.657 0.761 0.994 0.528 1.197 0.325 1.332 0.172 1.338 0.043 1.271zM7.857 3.143q0 1.301-0.921 2.222t-2.222 0.921-2.222-0.921-0.921-2.222 0.921-2.222 2.222-0.921 2.222 0.921 0.921 2.222zM16.5 7.857q0 1.952-1.381 3.333t-3.333 1.381-3.333-1.381-1.381-3.333 1.381-3.333 3.333-1.381 3.333 1.381 1.381 3.333zM23.571 10.619q0 0.958-0.688 1.455t-1.694 0.497h-1.645q-1.265-1.51-3.253-1.571 0.994-1.436 0.994-3.143 0-0.356-0.061-0.81 0.81 0.282 1.633 0.282 0.724 0 1.461-0.264t1.197-0.522 0.534-0.258q1.522 0 1.522 4.334zM22 3.143q0 1.301-0.921 2.222t-2.222 0.921-2.222-0.921-0.921-2.222 0.921-2.222 2.222-0.921 2.222 0.921 0.921 2.222z" fill="#000000"></path>
</g>
<g transform="translate(418 38)">
	<path d="M12.571 8.643q0 0.319-0.233 0.552l-5.5 5.5q-0.233 0.233-0.552 0.233t-0.552-0.233l-5.5-5.5q-0.233-0.233-0.233-0.552t0.233-0.552 0.552-0.233h11q0.319 0 0.552 0.233t0.233 0.552z" fill="#000000"></path>
</g>
<g transform="translate(456 38)">
	<path d="M12.571 14.929q0 0.319-0.233 0.552t-0.552 0.233h-11q-0.319 0-0.552-0.233t-0.233-0.552 0.233-0.552l5.5-5.5q0.233-0.233 0.552-0.233t0.552 0.233l5.5 5.5q0.233 0.233 0.233 0.552z" fill="#000000"></path>
</g>
<g transform="translate(494 38)">
	<path d="M7.857 5.5v11q0 0.319-0.233 0.552t-0.552 0.233-0.552-0.233l-5.5-5.5q-0.233-0.233-0.233-0.552t0.233-0.552l5.5-5.5q0.233-0.233 0.552-0.233t0.552 0.233 0.233 0.552z" fill="#000000"></path>
</g>
<g transform="translate(532 38)">
	<path d="M7.071 11q0 0.319-0.233 0.552l-5.5 5.5q-0.233 0.233-0.552 0.233t-0.552-0.233-0.233-0.552v-11q0-0.319 0.233-0.552t0.552-0.233 0.552 0.233l5.5 5.5q0.233 0.233 0.233 0.552z" fill="#000000"></path>
</g>
<g transform="translate(570 38)">
	<path d="M11.196 20.821q0-0.196-0.196-0.196-0.724 0-1.246-0.522t-0.522-1.246q0-0.196-0.196-0.196t-0.196 0.196q0 0.896 0.632 1.528t1.528 0.632q0.196 0 0.196-0.196zM21.214 17.286q0 0.638-0.467 1.105t-1.105 0.467h-5.5q0 1.301-0.921 2.222t-2.222 0.921-2.222-0.921-0.921-2.222h-5.5q-0.638 0-1.105-0.467t-0.467-1.105q0.614-0.516 1.117-1.080t1.044-1.467 0.915-1.946 0.614-2.529 0.239-3.192q0-1.866 1.436-3.468t3.769-1.946q-0.098-0.233-0.098-0.479 0-0.491 0.344-0.835t0.835-0.344 0.835 0.344 0.344 0.835q0 0.246-0.098 0.479 2.333 0.344 3.769 1.946t1.436 3.468q0 1.706 0.239 3.192t0.614 2.529 0.915 1.946 1.044 1.467 1.117 1.080z" fill="#000000"></path>
</g>
<g transform="translate(0 76)">
	<path d="M7.305 11.786q0 0.16-0.123 0.282l-5.721 5.721q-0.123 0.123-0.282 0.123t-0.282-0.123l-0.614-0.614q-0.123-0.123-0.123-0.282t0.123-0.282l4.825-4.825-4.825-4.825q-0.123-0.123-0.123-0.282t0.123-0.282l0.614-0.614q0.123-0.123 0.282-0.123t0.282 0.123l5.721 5.721q0.123 0.123 0.123 0.282z" fill="#000000"></path>
</g>
<g transform="translate(38 76)">
	<path d="M13.198 9.036q0 0.16-0.123 0.282l-5.721 5.721q-0.123 0.123-0.282 0.123t-0.282-0.123l-5.721-5.721q-0.123-0.123-0.123-0.282t0.123-0.282l0.614-0.614q0.123-0.123 0.282-0.123t0.282 0.123l4.825 4.825 4.825-4.825q0.123-0.123 0.282-0.123t0.282 0.123l0.614 0.614q0.123 0.123 0.123 0.282z" fill="#000000"></path>
</g>
<g transform="translate(76 76)">
	<path d="M9.429 4.321q-1.817 0-3.352 0.896t-2.431 2.431-0.896 3.352 0.896 3.352 2.431 2.431 3.352 0.896 3.352-0.896 2.431-2.431 0.896-3.352-0.896-3.352-2.431-2.431-3.352-0.896zM18.857 11q0 2.566-1.265 4.733t-3.431 3.431-4.733 1.265-4.733-1.265-3.431-3.431-1.265-4.733 1.265-4.733 3.431-3.431 4.733-1.265 4.733 1.265 3.431 3.431 1.265 4.733z" fill="#000000"></path>
</g>
<g transform="translate(114 76)">
	<path d="M11.16 17.126l1.252-1.252q0.233-0.233 0.233-0.552t-0.233-0.552l-3.769-3.769 3.769-3.769q0.233-0.233 0.233-0.552t-0.233-0.552l-1.252-1.252q-0.233-0.233-0.552-0.233t-0.552 0.233l-5.574 5.574q-0.233 0.233-0.233 0.552t0.233 0.552l5.574 5.574q0.233 0.233 0.552 0.233t0.552-0.233zM18.857 11q0 2.566-1.265 4.733t-3.431 3.431-4.733 1.265-4.733-1.265-3.431-3.431-1.265-4.733 1.265-4.733 3.431-3.431 4.733-1.265 4.733 1.265 3.431 3.431 1.265 4.733z" fill="#000000"></path>
</g>
<g transform="translate(152 76)">
	<path d="M8.802 17.126l5.574-5.574q0.233-0.233 0.233-0.552t-0.233-0.552l-5.574-5.574q-0.233-0.233-0.552-0.233t-0.552 0.233l-1.252 1.252q-0.233 0.233-0.233 0.552t0.233 0.552l3.769 3.769-3.769 3.769q-0.233 0.233-0.233 0.552t0.233 0.552l1.252 1.252q0.233 0.233 0.552 0.233t0.552-0.233zM18.857 11q0 2.566-1.265 4.733t-3.431 3.431-4.733 1.265-4.733-1.265-3.431-3.431-1.265-4.733 1.265-4.733 3.431-3.431 4.733-1.265 4.733 1.265 3.431 3.431 1.265 4.733z" fill="#000000"></path>
</g>
<g transform="translate(190 76)">
	<path d="M14.302 13.983l1.252-1.252q0.233-0.233 0.233-0.552t-0.233-0.552l-5.574-5.574q-0.233-0.233-0.552-0.233t-0.552 0.233l-5.574 5.574q-0.233 0.233-0.233 0.552t0.233 0.552l1.252 1.252q0.233 0.233 0.552 0.233t0.552-0.233l3.769-3.769 3.769 3.769q0.233 0.233 0.552 0.233t0.552-0.233zM18.857 11q0 2.566-1.265 4.733t-3.431 3.431-4.733 1.265-4.733-1.265-3.431-3.431-1.265-4.733 1.265-4.733 3.431-3.431 4.733-1.265 4.733 1.265 3.431 3.431 1.265 4.733z" fill="#000000"></path>
</g>
<g transform="translate(228 76)">
	<path d="M9.981 15.948l5.574-5.574q0.233-0.233 0.233-0.552t-0.233-0.552l-1.252-1.252q-0.233-0.233-0.552-0.233t-0.552 0.233l-3.769 3.769-3.769-3.769q-0.233-0.233-0.552-0.233t-0.552 0.233l-1.252 1.252q-0.233 0.233-0.233 0.552t0.233 0.552l5.574 5.574q0.233 0.233 0.552 0.233t0.552-0.233zM18.857 11q0 2.566-1.265 4.733t-3.431 3.431-4.733 1.265-4.733-1.265-3.431-3.431-1.265-4.733 1.265-4.733 3.431-3.431 4.733-1.265 4.733 1.265 3.431 3.431 1.265 4.733z" fill="#000000"></path>
</g>
<g transform="translate(266 76)">
	<path d="M25.143 18.857v1.571h-25.143v-18.857h1.571v17.286h23.571zM23.571 3.536v5.34q0 0.258-0.239 0.362t-0.436-0.092l-1.485-1.485-7.771 7.771q-0.123 0.123-0.282 0.123t-0.282-0.123l-2.86-2.86-5.107 5.107-2.357-2.357 7.182-7.182q0.123-0.123 0.282-0.123t0.282 0.123l2.86 2.86 5.696-5.696-1.485-1.485q-0.196-0.196-0.092-0.436t0.362-0.239h5.34q0.172 0 0.282 0.11t0.11 0.282z" fill="#000000"></path>
</g>
<g transform="translate(304 76)">
	<path d="M0 10.214q0-1.756 0.681-3.358t1.842-2.762 2.762-1.842 3.358-0.681 3.358 0.681 2.762 1.842 1.842 2.762 0.681 3.358q0 2.701-1.522 4.898l4.211 4.211q0.454 0.454 0.454 1.105 0 0.638-0.467 1.105t-1.105 0.467q-0.663 0-1.105-0.467l-4.211-4.199q-2.198 1.522-4.898 1.522-1.756 0-3.358-0.681t-2.762-1.842-1.842-2.762-0.681-3.358zM3.143 10.214q0 2.271 1.614 3.886t3.886 1.614 3.886-1.614 1.614-3.886-1.614-3.886-3.886-1.614-3.886 1.614-1.614 3.886z" fill="#000000"></path>
</g>
<g transform="translate(342 76)">
	<path d="M1.485 11.393q0-0.491 0.344-0.835l1.67-1.67q0.344-0.344 0.835-0.344t0.835 0.344l3.609 3.622 8.054-8.066q0.344-0.344 0.835-0.344t0.835 0.344l1.67 1.67q0.344 0.344 0.344 0.835t-0.344 0.835l-10.558 10.558q-0.344 0.344-0.835 0.344t-0.835-0.344l-6.114-6.114q-0.344-0.344-0.344-0.835z" fill="#000000"></path>
</g>
<g transform="translate(380 76)">
	<path d="M1.35 16.23q0-0.491 0.344-0.835l3.609-3.609-3.609-3.609q-0.344-0.344-0.344-0.835t0.344-0.835l1.67-1.67q0.344-0.344 0.835-0.344t0.835 0.344l3.609 3.609 3.609-3.609q0.344-0.344 0.835-0.344t0.835 0.344l1.67 1.67q0.344 0.344 0.344 0.835t-0.344 0.835l-3.609 3.609 3.609 3.609q0.344 0.344 0.344 0.835t-0.344 0.835l-1.67 1.67q-0.344 0.344-0.835 0.344t-0.835-0.344l-3.609-3.609-3.609 3.609q-0.344 0.344-0.835 0.344t-0.835-0.344l-1.67-1.67q-0.344-0.344-0.344-0.835z" fill="#000000"></path>
</g>
<g transform="translate(418 76)">
	<path d="M0 11q0-1.596 0.872-3.051t2.345-2.511 3.511-1.676 4.272-0.62q2.996 0 5.525 1.050t4.002 2.86 1.473 3.947-1.473 3.947-4.002 2.86-5.525 1.050q-0.859 0-1.78-0.098-2.431 2.148-5.647 2.971-0.602 0.172-1.4 0.27-0.209 0.025-0.374-0.11t-0.215-0.356v-0.012q-0.037-0.049-0.006-0.147t0.025-0.123 0.055-0.117l0.074-0.11t0.086-0.104 0.098-0.11q0.086-0.098 0.381-0.424t0.424-0.467 0.381-0.485 0.399-0.626 0.331-0.724 0.319-0.933q-1.927-1.093-3.039-2.701t-1.111-3.45z" fill="#000000"></path>
</g>
<g transform="translate(456 76)">
	<path d="M0 18.464v-14.929q0-0.81 0.577-1.387t1.387-0.577h19.643q0.81 0 1.387 0.577t0.577 1.387v14.929q0 0.81-0.577 1.387t-1.387 0.577h-19.643q-0.81 0-1.387-0.577t-0.577-1.387zM1.571 18.464q0 0.16 0.117 0.276t0.276 0.117h19.643q0.16 0 0.276-0.117t0.117-0.276v-14.929q0-0.16-0.117-0.276t-0.276-0.117h-19.643q-0.16 0-0.276 0.117t-0.117 0.276v14.929zM3.143 17.286v-4.714h3.143v4.714h-3.143zM7.857 17.286v-11h3.143v11h-3.143zM12.571 17.286v-7.857h3.143v7.857h-3.143zM17.286 17.286v-12.571h3.143v12.571h-3.143z" fill="#000000"></path>
</g>
<g transform="translate(494 76)">
	<path d="M0 18.071v-1.571q0-0.319 0.233-0.552t0.552-0.233h17.286q0.319 0 0.552 0.233t0.233 0.552v1.571q0 0.319-0.233 0.552t-0.552 0.233h-17.286q-0.319 0-0.552-0.233t-0.233-0.552zM0 11.786v-1.571q0-0.319 0.233-0.552t0.552-0.233h17.286q0.319 0 0.552 0.233t0.233 0.552v1.571q0 0.319-0.233 0.552t-0.552 0.233h-17.286q-0.319 0-0.552-0.233t-0.233-0.552zM0 5.5v-1.571q0-0.319 0.233-0.552t0.552-0.233h17.286q0.319 0 0.552 0.233t0.233 0.552v1.571q0 0.319-0.233 0.552t-0.552 0.233h-17.286q-0.319 0-0.552-0.233t-0.233-0.552z" fill="#000000"></path>
</g>
<g transform="translate(532 76)">
	<path d="M0 11q0-0.81 0.577-1.387t1.387-0.577 1.387 0.577 0.577 1.387-0.577 1.387-1.387 0.577-1.387-0.577-0.577-1.387zM2.161 5.5q0-0.896 0.632-1.528t1.528-0.632 1.528 0.632 0.632 1.528-0.632 1.528-1.528 0.632-1.528-0.632-0.632-1.528zM2.554 16.5q0-0.737 0.516-1.252t1.252-0.516q0.724 0 1.246 0.516t0.522 1.252-0.522 1.252-1.246 0.516q-0.737 0-1.252-0.516t-0.516-1.252zM7.464 3.143q0-0.982 0.688-1.67t1.67-0.688 1.67 0.688 0.688 1.67-0.688 1.67-1.67 0.688-1.67-0.688-0.688-1.67zM8.25 18.857q0-0.651 0.46-1.111t1.111-0.46 1.111 0.46 0.46 1.111-0.46 1.111-1.111 0.46-1.111-0.46-0.46-1.111zM13.946 16.5q0-0.565 0.405-0.97t0.97-0.405 0.97 0.405 0.405 0.97-0.405 0.97-0.97 0.405-0.97-0.405-0.405-0.97zM14.339 5.5q0-0.405 0.289-0.694t0.694-0.289 0.694 0.289 0.289 0.694-0.289 0.694-0.694 0.289-0.694-0.289-0.289-0.694zM16.5 11q0-0.491 0.344-0.835t0.835-0.344 0.835 0.344 0.344 0.835-0.344 0.835-0.835 0.344-0.835-0.344-0.344-0.835z" fill="#000000"></path>
</g>
<g transform="translate(570 76)">
	<path d="M0 11q0-2.566 1.265-4.733t3.431-3.431 4.733-1.265 4.733 1.265 3.431 3.431 1.265 4.733-1.265 4.733-3.431 3.431-4.733 1.265-4.733-1.265-3.431-3.431-1.265-4.733z" fill="#000000"></path>
</g>
<g transform="translate(0 114)">
	<path d="M0 10.214v-1.571q0-0.319 0.233-0.552t0.552-0.233 0.552 0.233 0.233 0.552v1.571q0 2.271 1.614 3.886t3.886 1.614 3.886-1.614 1.614-3.886v-1.571q0-0.319 0.233-0.552t0.552-0.233 0.552 0.233 0.233 0.552v1.571q0 2.713-1.811 4.72t-4.475 2.302v1.621h3.143q0.319 0 0.552 0.233t0.233 0.552-0.233 0.552-0.552 0.233h-7.857q-0.319 0-0.552-0.233t-0.233-0.552 0.233-0.552 0.552-0.233h3.143v-1.621q-2.664-0.295-4.475-2.302t-1.811-4.72zM3.143 10.214v-6.286q0-1.621 1.154-2.775t2.775-1.154 2.775 1.154 1.154 2.775v6.286q0 1.621-1.154 2.775t-2.775 1.154-2.775-1.154-1.154-2.775z" fill="#000000"></path>
</g>
<g transform="translate(38 114)">
	<path d="M0 11q0-1.633 1.148-2.781t2.781-1.148q1.547 0 2.676 1.056l4.42-2.21q-0.025-0.27-0.025-0.417 0-1.633 1.148-2.781t2.781-1.148 2.781 1.148 1.148 2.781-1.148 2.781-2.781 1.148q-1.547 0-2.676-1.056l-4.42 2.21q0.025 0.27 0.025 0.417t-0.025 0.417l4.42 2.21q1.129-1.056 2.676-1.056 1.633 0 2.781 1.148t1.148 2.781-1.148 2.781-2.781 1.148-2.781-1.148-1.148-2.781q0-0.147 0.025-0.417l-4.42-2.21q-1.129 1.056-2.676 1.056-1.633 0-2.781-1.148t-1.148-2.781z" fill="#000000"></path>
</g>

</svg>
