<?xml version="1.0" encoding="utf-8"?>
<!-- Generated by IcoMoon.io -->
<!DOCTYPE svg PUBLIC "-//W3C//DTD SVG 1.1//EN" "http://www.w3.org/Graphics/SVG/1.1/DTD/svg11.dtd">

<svg version="1.1" xmlns="http://www.w3.org/2000/svg" xmlns:xlink="http://www.w3.org/1999/xlink" width="688" height="154" viewBox="0 0 688 154">
<g transform="translate(0 0)">
	<path d="M26.551 8.474c0.002-0.286 0.006-0.513 0.011-0.641 0.006-0.146-0.046-0.287-0.146-0.392s-0.235-0.163-0.379-0.162c-0.407 0.003-2.713 0.009-4.528 0.009-0.549 0-1.055-0.001-1.448-0.003-0.197-0.001-0.366-0.002-0.498-0.003s-0.23-0.003-0.273-0.004c-0.193-0.007-0.363 0.096-0.458 0.253-0.070 0.097-0.111 0.217-0.103 0.345 0 0.001 0.001 0.018 0.001 0.040 0.002 0.081 0.003 0.249 0.005 0.468s0.001 0.495 0.001 0.8c0 1.398-0.007 3.443-0.007 3.941 0 0.089-0.002 0.152-0.005 0.212s-0.006 0.122-0.006 0.196c0 0.099 0.007 0.211 0.023 0.352 0.030 0.261 0.242 0.459 0.499 0.468 0.729 0.025 1.586 0.027 2.305 0.027h0.011c0.305 0 0.82 0.008 1.397 0.017s1.22 0.017 1.791 0.017c0.271 0 0.527-0.002 0.753-0.007s0.423-0.012 0.583-0.025c0.271-0.021 0.481-0.251 0.482-0.529 0-0.027 0-0.058 0-0.091 0-0.714-0.016-2.751-0.016-4.276 0-0.379 0.002-0.727 0.005-1.014v0zM25.476 13.346c-0.215 0.004-0.465 0.006-0.732 0.006-0.561 0-1.2-0.008-1.776-0.016-0.577-0.009-1.090-0.017-1.411-0.017h-0.011c-0.556 0-1.191-0.002-1.778-0.014 0.002-0.051 0.003-0.11 0.003-0.179 0-0.493 0.007-2.541 0.007-3.941 0-0.323 0-0.608-0.001-0.837 0.422 0.003 1.041 0.004 1.734 0.004 1.412 0 3.115-0.004 4-0.008-0.001 0.040-0.001 0.078-0.002 0.119-0.002 0.291-0.003 0.642-0.003 1.024 0 1.294 0.011 2.948 0.015 3.856-0.015 0-0.028 0.001-0.044 0.001v0z" fill="rgb(68, 68, 68)"></path>
	<path d="M29.771 5.037c-0.005-0.279-0.219-0.506-0.492-0.522-1.483-0.082-2.981-0.134-4.484-0.165l-1.558-3.999c-0.054-0.138-0.163-0.248-0.298-0.301s-0.289-0.045-0.419 0.021c0 0-0.028 0.014-0.083 0.042-0.411 0.208-2.288 1.154-4.331 2.101-1.021 0.473-2.084 0.947-3.022 1.327-0.469 0.19-0.906 0.357-1.288 0.489s-0.711 0.227-0.95 0.275c-0.080 0.016-0.15 0.052-0.212 0.099-2.414 0.039-4.803 0.077-7.138 0.077h-0.118c-0.093 0-0.179 0.027-0.254 0.071-0.012 0.007-0.025 0.012-0.037 0.020-0.001 0.001-0.002 0.003-0.003 0.003-0.137 0.096-0.226 0.256-0.226 0.439 0 0.966 0.004 1.962 0.011 2.971-0.077-0.003-0.155 0.011-0.23 0.046-1.315 0.615-2.631 1.224-3.952 1.819-0.008 0.004-0.015 0.009-0.023 0.013-0.017 0.009-0.032 0.018-0.048 0.027-0.014 0.009-0.027 0.019-0.041 0.030s-0.026 0.022-0.037 0.033c-0.013 0.012-0.025 0.025-0.036 0.039-0.010 0.012-0.020 0.025-0.029 0.038-0.010 0.014-0.019 0.029-0.027 0.044s-0.015 0.030-0.022 0.045c-0.007 0.015-0.013 0.030-0.018 0.047s-0.010 0.033-0.014 0.050c-0.004 0.016-0.007 0.034-0.009 0.051-0.002 0.016-0.003 0.033-0.004 0.049-0.001 0.019 0 0.038 0.001 0.058 0 0.009-0 0.017 0 0.027 0.111 0.912 0.444 1.825 0.822 2.702 0.379 0.876 0.808 1.717 1.13 2.45 0.406 0.926 0.906 1.952 1.41 2.971 0.495 1.001 0.994 1.994 1.41 2.872 0.014 0.283 0.242 0.506 0.52 0.506 8.523 0 23.766-0.007 23.766-0.007 0.139 0 0.272-0.057 0.37-0.158s0.152-0.237 0.151-0.379c-0 0.001-0.097-11.377-0.186-16.319v0zM16.873 3.935c2.2-0.965 4.585-2.145 5.604-2.656l1.188 3.052c-0.929-0.013-1.86-0.019-2.792-0.019-1.66 0-3.322 0.018-4.977 0.041 0.318-0.133 0.645-0.273 0.977-0.419v0zM3.282 15.118c-0.34-0.776-0.767-1.61-1.128-2.445-0.3-0.693-0.551-1.384-0.678-2.020 1.137-0.515 2.27-1.038 3.4-1.566 0.032 3.361 0.099 6.802 0.187 9.749-0.13-0.263-0.262-0.527-0.392-0.792-0.502-1.015-0.996-2.029-1.389-2.926v0zM6.172 20.838c-0.155-4.26-0.266-10.146-0.273-15.295 4.873-0.009 9.942-0.167 14.975-0.167 2.644 0 5.277 0.045 7.865 0.178 0.041 2.492 0.084 6.27 0.117 9.508 0.018 1.731 0.032 3.307 0.043 4.451 0.005 0.551 0.009 1 0.012 1.319h-0.147c-2.967 0.001-15.084 0.006-22.592 0.006v0z" fill="rgb(68, 68, 68)"></path>
	<path d="M8.383 8.852h8.688c0.288 0 0.521-0.238 0.521-0.532s-0.233-0.532-0.521-0.532h-8.688c-0.288 0-0.521 0.238-0.521 0.532s0.233 0.532 0.521 0.532v0z" fill="rgb(68, 68, 68)"></path>
	<path d="M17.466 10.601c0-0.293-0.233-0.531-0.521-0.531-2.528 0-5.303 0.127-8.066 0.126-0.288 0-0.521 0.238-0.521 0.533 0 0.293 0.233 0.531 0.521 0.531 2.793 0 5.572-0.127 8.066-0.127 0.288-0 0.521-0.238 0.521-0.532v0z" fill="rgb(68, 68, 68)"></path>
	<path d="M16.574 12.35c-2.529 0-5.304 0.127-8.068 0.127-0.288 0-0.521 0.238-0.521 0.532s0.233 0.532 0.521 0.532c2.795-0 5.572-0.127 8.068-0.127 0.288 0 0.521-0.239 0.521-0.533s-0.233-0.532-0.521-0.532v0z" fill="rgb(68, 68, 68)"></path>
	<path d="M25.758 15.391c-2.26 0-5.258 0.030-8.177 0.030-1.896 0-3.758-0.013-5.359-0.054-0.801-0.021-1.535-0.049-2.175-0.085s-1.183-0.083-1.597-0.139c-0.285-0.039-0.547 0.167-0.584 0.459s0.164 0.558 0.449 0.596c0.454 0.061 1.019 0.108 1.673 0.146 1.963 0.114 4.741 0.141 7.593 0.141 2.926 0 5.927-0.029 8.177-0.029 0.287 0 0.52-0.238 0.52-0.533s-0.233-0.531-0.52-0.531v0z" fill="rgb(68, 68, 68)"></path>
	<path d="M25.758 18.052c-5.191 0-17.38 0.127-17.381 0.127-0.288 0.003-0.518 0.243-0.515 0.537s0.238 0.53 0.526 0.526c0 0 0.19-0.002 0.534-0.006 2.403-0.024 12.305-0.12 16.836-0.12 0.287 0 0.52-0.238 0.52-0.532s-0.233-0.532-0.52-0.532v0z" fill="rgb(68, 68, 68)"></path>
</g>
<g transform="translate(38 0)">
	<path d="M12.831 12.93c-0.285 0-0.543-0.199-0.648-0.504l-1.326-3.834-1.064 3.054c-0.095 0.273-0.314 0.464-0.569 0.497-0.257 0.035-0.506-0.097-0.652-0.339l-1.203-1.987-1.083 1.491c-0.246 0.339-0.686 0.385-0.982 0.104s-0.337-0.784-0.091-1.122l1.67-2.3c0.139-0.192 0.348-0.303 0.567-0.287 0.218 0.011 0.419 0.138 0.543 0.343l0.986 1.628 1.233-3.539c0.106-0.303 0.362-0.502 0.648-0.502h0.001c0.286 0 0.542 0.2 0.648 0.504l1.238 3.582 1.357-5.085c0.083-0.313 0.326-0.536 0.611-0.562 0.282-0.027 0.556 0.149 0.682 0.444l1.481 3.449c0.169 0.395 0.027 0.873-0.319 1.067s-0.764 0.030-0.933-0.365l-0.703-1.637-1.424 5.335c-0.086 0.324-0.343 0.55-0.639 0.564-0.009 0-0.019 0.001-0.028 0.001v0z" fill="rgb(0, 119, 147)"></path>
	<path d="M6.498 21.91c-0.191 0-0.371-0.090-0.493-0.246l-2.98-3.828h-2.001c-0.494 0-0.895-0.426-0.895-0.951v-15.798c0-0.524 0.402-0.951 0.895-0.951h19.953c0.494 0 0.895 0.426 0.895 0.951v15.798c0 0.524-0.402 0.951-0.895 0.951h-11.005l-2.98 3.828c-0.122 0.156-0.302 0.246-0.493 0.246v0zM3.062 16.683c0.494 0 0.582 0.125 0.756 0.284l2.679 3.383 2.416-3.383c0.17-0.17 0.393-0.284 0.757-0.284h11.185v-15.492h-19.712v15.492h1.918z" fill="rgb(153, 153, 153)"></path>
</g>
<g transform="translate(0 38)">
	<path d="M22.937 5.938q0.438 0.438 0.75 1.188t0.313 1.375v18q0 0.625-0.438 1.062t-1.062 0.438h-21q-0.625 0-1.062-0.438t-0.438-1.062v-25q0-0.625 0.438-1.062t1.062-0.438h14q0.625 0 1.375 0.313t1.188 0.75zM16 2.125v5.875h5.875q-0.156-0.453-0.344-0.641l-4.891-4.891q-0.187-0.187-0.641-0.344zM22 26v-16h-6.5q-0.625 0-1.062-0.438t-0.438-1.062v-6.5h-12v24h20z" fill="#000000"></path>
</g>
<g transform="translate(44 38)">
	<path d="M22.937 5.938q0.438 0.438 0.75 1.188t0.313 1.375v18q0 0.625-0.438 1.062t-1.062 0.438h-21q-0.625 0-1.062-0.438t-0.438-1.062v-25q0-0.625 0.438-1.062t1.062-0.438h14q0.625 0 1.375 0.313t1.188 0.75zM16 2.125v5.875h5.875q-0.156-0.453-0.344-0.641l-4.891-4.891q-0.187-0.187-0.641-0.344zM22 26v-16h-6.5q-0.625 0-1.062-0.438t-0.438-1.062v-6.5h-12v24h20zM6 12.5q0-0.219 0.141-0.359t0.359-0.141h11q0.219 0 0.359 0.141t0.141 0.359v1q0 0.219-0.141 0.359t-0.359 0.141h-11q-0.219 0-0.359-0.141t-0.141-0.359v-1zM17.5 16q0.219 0 0.359 0.141t0.141 0.359v1q0 0.219-0.141 0.359t-0.359 0.141h-11q-0.219 0-0.359-0.141t-0.141-0.359v-1q0-0.219 0.141-0.359t0.359-0.141h11zM17.5 20q0.219 0 0.359 0.141t0.141 0.359v1q0 0.219-0.141 0.359t-0.359 0.141h-11q-0.219 0-0.359-0.141t-0.141-0.359v-1q0-0.219 0.141-0.359t0.359-0.141h11z" fill="#000000"></path>
</g>
<g transform="translate(88 38)">
	<path d="M22.937 5.938q0.438 0.438 0.75 1.188t0.313 1.375v18q0 0.625-0.438 1.062t-1.062 0.438h-21q-0.625 0-1.062-0.438t-0.438-1.062v-25q0-0.625 0.438-1.062t1.062-0.438h14q0.625 0 1.375 0.313t1.188 0.75zM16 2.125v5.875h5.875q-0.156-0.453-0.344-0.641l-4.891-4.891q-0.187-0.187-0.641-0.344zM22 26v-16h-6.5q-0.625 0-1.062-0.438t-0.438-1.062v-6.5h-12v24h20zM13.969 16.734q0.516 0.406 1.312 0.875 0.922-0.109 1.828-0.109 2.297 0 2.766 0.766 0.25 0.344 0.031 0.812 0 0.016-0.016 0.031l-0.031 0.031v0.016q-0.094 0.594-1.109 0.594-0.75 0-1.797-0.313t-2.031-0.828q-3.453 0.375-6.125 1.297-2.391 4.094-3.781 4.094-0.234 0-0.438-0.109l-0.375-0.187q-0.016-0.016-0.094-0.078-0.156-0.156-0.094-0.562 0.141-0.625 0.875-1.43t2.063-1.508q0.219-0.141 0.359 0.094 0.031 0.031 0.031 0.063 0.812-1.328 1.672-3.078 1.062-2.125 1.625-4.094-0.375-1.281-0.477-2.492t0.102-1.992q0.172-0.625 0.656-0.625h0.344q0.359 0 0.547 0.234 0.281 0.328 0.141 1.062-0.031 0.094-0.063 0.125 0.016 0.047 0.016 0.125v0.469q-0.031 1.922-0.219 3 0.859 2.562 2.281 3.719zM4.969 23.156q0.812-0.375 2.141-2.469-0.797 0.625-1.367 1.313t-0.773 1.156zM11.188 8.781q-0.234 0.656-0.031 2.063 0.016-0.109 0.109-0.688 0-0.047 0.109-0.672 0.016-0.063 0.063-0.125-0.016-0.016-0.016-0.031t-0.008-0.023-0.008-0.023q-0.016-0.344-0.203-0.562 0 0.016-0.016 0.031v0.031zM9.25 19.109q2.109-0.844 4.438-1.266-0.031-0.016-0.203-0.148t-0.25-0.211q-1.188-1.047-1.984-2.75-0.422 1.344-1.297 3.078-0.469 0.875-0.703 1.297zM19.344 18.859q-0.375-0.375-2.188-0.375 1.188 0.438 1.937 0.438 0.219 0 0.281-0.016 0-0.016-0.031-0.047z" fill="#000000"></path>
</g>
<g transform="translate(132 38)">
	<path d="M22.937 5.938q0.438 0.438 0.75 1.188t0.313 1.375v18q0 0.625-0.438 1.062t-1.062 0.438h-21q-0.625 0-1.062-0.438t-0.438-1.062v-25q0-0.625 0.438-1.062t1.062-0.438h14q0.625 0 1.375 0.313t1.188 0.75zM16 2.125v5.875h5.875q-0.156-0.453-0.344-0.641l-4.891-4.891q-0.187-0.187-0.641-0.344zM22 26v-16h-6.5q-0.625 0-1.062-0.438t-0.438-1.062v-6.5h-12v24h20zM3.641 12v1.672h1.094l2.562 10.328h2.484l2-7.578q0.109-0.313 0.156-0.719 0.031-0.25 0.031-0.375h0.063l0.047 0.375q0.016 0.047 0.055 0.313t0.086 0.406l2 7.578h2.484l2.562-10.328h1.094v-1.672h-4.688v1.672h1.406l-1.547 6.844q-0.078 0.313-0.109 0.719l-0.031 0.328h-0.063l-0.047-0.328q-0.016-0.078-0.063-0.328t-0.078-0.391l-2.25-8.516h-1.781l-2.25 8.516q-0.031 0.141-0.070 0.383t-0.055 0.336l-0.063 0.328h-0.063l-0.031-0.328q-0.031-0.406-0.109-0.719l-1.547-6.844h1.406v-1.672h-4.688z" fill="#000000"></path>
</g>
<g transform="translate(176 38)">
	<path d="M22.937 5.938q0.438 0.438 0.75 1.188t0.313 1.375v18q0 0.625-0.438 1.062t-1.062 0.438h-21q-0.625 0-1.062-0.438t-0.438-1.062v-25q0-0.625 0.438-1.062t1.062-0.438h14q0.625 0 1.375 0.313t1.188 0.75zM16 2.125v5.875h5.875q-0.156-0.453-0.344-0.641l-4.891-4.891q-0.187-0.187-0.641-0.344zM22 26v-16h-6.5q-0.625 0-1.062-0.438t-0.438-1.062v-6.5h-12v24h20zM6.703 22.344v1.656h4.391v-1.656h-1.172l1.609-2.516q0.078-0.109 0.156-0.258t0.117-0.211 0.055-0.063h0.031q0.016 0.063 0.078 0.156 0.031 0.063 0.070 0.117t0.094 0.125 0.102 0.133l1.672 2.516h-1.188v1.656h4.547v-1.656h-1.062l-3-4.266 3.047-4.406h1.047v-1.672h-4.359v1.672h1.156l-1.609 2.484q-0.063 0.109-0.156 0.258t-0.141 0.211l-0.031 0.047h-0.031q-0.016-0.063-0.078-0.156-0.094-0.172-0.266-0.359l-1.656-2.484h1.188v-1.672h-4.531v1.672h1.062l2.953 4.25-3.031 4.422h-1.062z" fill="#000000"></path>
</g>
<g transform="translate(220 38)">
	<path d="M22.937 5.938q0.438 0.438 0.75 1.188t0.313 1.375v18q0 0.625-0.438 1.062t-1.062 0.438h-21q-0.625 0-1.062-0.438t-0.438-1.062v-25q0-0.625 0.438-1.062t1.062-0.438h14q0.625 0 1.375 0.313t1.188 0.75zM16 2.125v5.875h5.875q-0.156-0.453-0.344-0.641l-4.891-4.891q-0.187-0.187-0.641-0.344zM22 26v-16h-6.5q-0.625 0-1.062-0.438t-0.438-1.062v-6.5h-12v24h20zM6.5 22.344v1.656h5.109v-1.656h-1.453v-2.609h2.141q1.188 0 1.844-0.234 1.047-0.359 1.664-1.359t0.617-2.281q0-1.266-0.578-2.203t-1.563-1.359q-0.75-0.297-2.031-0.297h-5.75v1.672h1.437v8.672h-1.437zM12.016 17.969h-1.859v-4.188h1.875q0.812 0 1.297 0.281 0.875 0.516 0.875 1.797 0 1.391-0.969 1.875-0.484 0.234-1.219 0.234z" fill="#000000"></path>
</g>
<g transform="translate(264 38)">
	<path d="M22.937 5.938q0.438 0.438 0.75 1.188t0.313 1.375v18q0 0.625-0.438 1.062t-1.062 0.438h-21q-0.625 0-1.062-0.438t-0.438-1.062v-25q0-0.625 0.438-1.062t1.062-0.438h14q0.625 0 1.375 0.313t1.188 0.75zM16 2.125v5.875h5.875q-0.156-0.453-0.344-0.641l-4.891-4.891q-0.187-0.187-0.641-0.344zM22 26v-16h-6.5q-0.625 0-1.062-0.438t-0.438-1.062v-6.5h-12v24h20zM20 19v5h-16v-3l3-3 2 2 6-6zM7 16q-1.25 0-2.125-0.875t-0.875-2.125 0.875-2.125 2.125-0.875 2.125 0.875 0.875 2.125-0.875 2.125-2.125 0.875z" fill="#000000"></path>
</g>
<g transform="translate(308 38)">
	<path d="M10 6v-2h-2v2h2zM12 8v-2h-2v2h2zM10 10v-2h-2v2h2zM12 12v-2h-2v2h2zM22.937 5.938q0.438 0.438 0.75 1.188t0.313 1.375v18q0 0.625-0.438 1.062t-1.062 0.438h-21q-0.625 0-1.062-0.438t-0.438-1.062v-25q0-0.625 0.438-1.062t1.062-0.438h14q0.625 0 1.375 0.313t1.188 0.75zM16 2.125v5.875h5.875q-0.156-0.453-0.344-0.641l-4.891-4.891q-0.187-0.187-0.641-0.344zM22 26v-16h-6.5q-0.625 0-1.062-0.438t-0.438-1.062v-6.5h-2v2h-2v-2h-8v24h20zM12.203 14.734l1.672 5.453q0.125 0.422 0.125 0.812 0 1.297-1.133 2.148t-2.867 0.852-2.867-0.852-1.133-2.148q0-0.391 0.125-0.812 0.328-0.984 1.875-6.188v-2h2v2h1.234q0.344 0 0.609 0.203t0.359 0.531zM10 22q0.828 0 1.414-0.297t0.586-0.703-0.586-0.703-1.414-0.297-1.414 0.297-0.586 0.703 0.586 0.703 1.414 0.297z" fill="#000000"></path>
</g>
<g transform="translate(352 38)">
	<path d="M22.937 5.938q0.438 0.438 0.75 1.188t0.313 1.375v18q0 0.625-0.438 1.062t-1.062 0.438h-21q-0.625 0-1.062-0.438t-0.438-1.062v-25q0-0.625 0.438-1.062t1.062-0.438h14q0.625 0 1.375 0.313t1.188 0.75zM16 2.125v5.875h5.875q-0.156-0.453-0.344-0.641l-4.891-4.891q-0.187-0.187-0.641-0.344zM22 26v-16h-6.5q-0.625 0-1.062-0.438t-0.438-1.062v-6.5h-12v24h20zM9.688 13.281q0.313 0.125 0.313 0.469v8.5q0 0.344-0.313 0.469-0.125 0.031-0.187 0.031-0.187 0-0.359-0.141l-2.594-2.609h-2.047q-0.219 0-0.359-0.141t-0.141-0.359v-3q0-0.219 0.141-0.359t0.359-0.141h2.047l2.594-2.609q0.25-0.234 0.547-0.109zM16.203 24.047q0.484 0 0.781-0.375 2.016-2.484 2.016-5.672t-2.016-5.672q-0.25-0.328-0.672-0.375t-0.734 0.219q-0.328 0.266-0.367 0.68t0.227 0.742q1.563 1.922 1.563 4.406t-1.563 4.406q-0.266 0.328-0.227 0.742t0.367 0.664q0.281 0.234 0.625 0.234zM12.906 21.734q0.422 0 0.734-0.313 1.359-1.453 1.359-3.422t-1.359-3.422q-0.281-0.297-0.703-0.313t-0.719 0.266-0.313 0.695 0.281 0.727q0.812 0.891 0.812 2.047t-0.812 2.047q-0.297 0.313-0.281 0.727t0.313 0.695q0.313 0.266 0.688 0.266z" fill="#000000"></path>
</g>
<g transform="translate(396 38)">
	<path d="M22.937 5.938q0.438 0.438 0.75 1.188t0.313 1.375v18q0 0.625-0.438 1.062t-1.062 0.438h-21q-0.625 0-1.062-0.438t-0.438-1.062v-25q0-0.625 0.438-1.062t1.062-0.438h14q0.625 0 1.375 0.313t1.188 0.75zM16 2.125v5.875h5.875q-0.156-0.453-0.344-0.641l-4.891-4.891q-0.187-0.187-0.641-0.344zM22 26v-16h-6.5q-0.625 0-1.062-0.438t-0.438-1.062v-6.5h-12v24h20zM12 12q0.812 0 1.406 0.594t0.594 1.406v6q0 0.812-0.594 1.406t-1.406 0.594h-6q-0.812 0-1.406-0.594t-0.594-1.406v-6q0-0.812 0.594-1.406t1.406-0.594h6zM19.688 12.031q0.313 0.125 0.313 0.469v9q0 0.344-0.313 0.469-0.125 0.031-0.187 0.031-0.219 0-0.359-0.141l-4.141-4.156v-1.406l4.141-4.156q0.141-0.141 0.359-0.141 0.063 0 0.187 0.031z" fill="#000000"></path>
</g>
<g transform="translate(440 38)">
	<path d="M26 10.109q0 0.344-0.406 0.75l-5.672 5.531 1.344 7.812q0.016 0.109 0.016 0.313 0 0.328-0.164 0.555t-0.477 0.227q-0.297 0-0.625-0.187l-7.016-3.687-7.016 3.687q-0.344 0.187-0.625 0.187-0.328 0-0.492-0.227t-0.164-0.555q0-0.094 0.031-0.313l1.344-7.812-5.688-5.531q-0.391-0.422-0.391-0.75 0-0.578 0.875-0.719l7.844-1.141 3.516-7.109q0.297-0.641 0.766-0.641t0.766 0.641l3.516 7.109 7.844 1.141q0.875 0.141 0.875 0.719z" fill="#000000"></path>
</g>
<g transform="translate(484 38)">
	<path d="M22 21.953q0 1.875-1.141 2.961t-3.031 1.086h-13.656q-1.891 0-3.031-1.086t-1.141-2.961q0-0.828 0.055-1.617t0.219-1.703 0.414-1.695 0.672-1.523 0.969-1.266 1.336-0.836 1.742-0.313q0.141 0 0.656 0.336t1.164 0.75 1.687 0.75 2.086 0.336 2.086-0.336 1.687-0.75 1.164-0.75 0.656-0.336q0.953 0 1.742 0.313t1.336 0.836 0.969 1.266 0.672 1.523 0.414 1.695 0.219 1.703 0.055 1.617zM17 8q0 2.484-1.758 4.242t-4.242 1.758-4.242-1.758-1.758-4.242 1.758-4.242 4.242-1.758 4.242 1.758 1.758 4.242z" fill="#000000"></path>
</g>
<g transform="translate(528 38)">
	<path d="M16 14q0-1.656-1.172-2.828t-2.828-1.172-2.828 1.172-1.172 2.828 1.172 2.828 2.828 1.172 2.828-1.172 1.172-2.828zM24 12.297v3.469q0 0.187-0.125 0.359t-0.313 0.203l-2.891 0.438q-0.297 0.844-0.609 1.422 0.547 0.781 1.672 2.156 0.156 0.187 0.156 0.391t-0.141 0.359q-0.422 0.578-1.547 1.687t-1.469 1.109q-0.187 0-0.406-0.141l-2.156-1.687q-0.688 0.359-1.422 0.594-0.25 2.125-0.453 2.906-0.109 0.438-0.562 0.438h-3.469q-0.219 0-0.383-0.133t-0.18-0.336l-0.438-2.875q-0.766-0.25-1.406-0.578l-2.203 1.672q-0.156 0.141-0.391 0.141-0.219 0-0.391-0.172-1.969-1.781-2.578-2.625-0.109-0.156-0.109-0.359 0-0.187 0.125-0.359 0.234-0.328 0.797-1.039t0.844-1.102q-0.422-0.781-0.641-1.547l-2.859-0.422q-0.203-0.031-0.328-0.195t-0.125-0.367v-3.469q0-0.187 0.125-0.359t0.297-0.203l2.906-0.438q0.219-0.719 0.609-1.437-0.625-0.891-1.672-2.156-0.156-0.187-0.156-0.375 0-0.156 0.141-0.359 0.406-0.562 1.539-1.68t1.477-1.117q0.203 0 0.406 0.156l2.156 1.672q0.688-0.359 1.422-0.594 0.25-2.125 0.453-2.906 0.109-0.437 0.562-0.437h3.469q0.219 0 0.383 0.133t0.18 0.336l0.438 2.875q0.766 0.25 1.406 0.578l2.219-1.672q0.141-0.141 0.375-0.141 0.203 0 0.391 0.156 2.016 1.859 2.578 2.656 0.109 0.125 0.109 0.344 0 0.187-0.125 0.359-0.234 0.328-0.797 1.039t-0.844 1.102q0.406 0.781 0.641 1.531l2.859 0.438q0.203 0.031 0.328 0.195t0.125 0.367z" fill="#000000"></path>
</g>
<g transform="translate(572 38)">
	<path d="M22 15.5v7.5q0 0.406-0.297 0.703t-0.703 0.297h-6v-6h-4v6h-6q-0.406 0-0.703-0.297t-0.297-0.703v-7.5q0-0.016 0.008-0.047t0.008-0.047l8.984-7.406 8.984 7.406q0.016 0.031 0.016 0.094zM25.484 14.422l-0.969 1.156q-0.125 0.141-0.328 0.172h-0.047q-0.203 0-0.328-0.109l-10.813-9.016-10.813 9.016q-0.187 0.125-0.375 0.109-0.203-0.031-0.328-0.172l-0.969-1.156q-0.125-0.156-0.109-0.367t0.172-0.336l11.234-9.359q0.5-0.406 1.188-0.406t1.188 0.406l3.813 3.187v-3.047q0-0.219 0.141-0.359t0.359-0.141h3q0.219 0 0.359 0.141t0.141 0.359v6.375l3.422 2.844q0.156 0.125 0.172 0.336t-0.109 0.367z" fill="#000000"></path>
</g>
<g transform="translate(616 38)">
	<path d="M15 10.5q1.859 0 3.18 1.32t1.32 3.18-1.32 3.18-3.18 1.32-3.18-1.32-1.32-3.18 1.32-3.18 3.18-1.32zM26 4q1.656 0 2.828 1.172t1.172 2.828v14q0 1.656-1.172 2.828t-2.828 1.172h-22q-1.656 0-2.828-1.172t-1.172-2.828v-14q0-1.656 1.172-2.828t2.828-1.172h3.5l0.797-2.125q0.297-0.766 1.086-1.32t1.617-0.555h8q0.828 0 1.617 0.555t1.086 1.32l0.797 2.125h3.5zM15 22q2.891 0 4.945-2.055t2.055-4.945-2.055-4.945-4.945-2.055-4.945 2.055-2.055 4.945 2.055 4.945 4.945 2.055z" fill="#000000"></path>
</g>
<g transform="translate(660 38)">
	<path d="M19 15v-2q0-0.406-0.297-0.703t-0.703-0.297h-4v-4q0-0.406-0.297-0.703t-0.703-0.297h-2q-0.406 0-0.703 0.297t-0.297 0.703v4h-4q-0.406 0-0.703 0.297t-0.297 0.703v2q0 0.406 0.297 0.703t0.703 0.297h4v4q0 0.406 0.297 0.703t0.703 0.297h2q0.406 0 0.703-0.297t0.297-0.703v-4h4q0.406 0 0.703-0.297t0.297-0.703zM24 14q0 3.266-1.609 6.023t-4.367 4.367-6.023 1.609-6.023-1.609-4.367-4.367-1.609-6.023 1.609-6.023 4.367-4.367 6.023-1.609 6.023 1.609 4.367 4.367 1.609 6.023z" fill="#000000"></path>
</g>
<g transform="translate(0 82)">
	<path d="M19 15v-2q0-0.406-0.297-0.703t-0.703-0.297h-12q-0.406 0-0.703 0.297t-0.297 0.703v2q0 0.406 0.297 0.703t0.703 0.297h12q0.406 0 0.703-0.297t0.297-0.703zM24 14q0 3.266-1.609 6.023t-4.367 4.367-6.023 1.609-6.023-1.609-4.367-4.367-1.609-6.023 1.609-6.023 4.367-4.367 6.023-1.609 6.023 1.609 4.367 4.367 1.609 6.023z" fill="#000000"></path>
</g>
<g transform="translate(44 82)">
	<path d="M17.953 17.531q0-0.406-0.297-0.703l-2.828-2.828 2.828-2.828q0.297-0.297 0.297-0.703 0-0.422-0.297-0.719l-1.406-1.406q-0.297-0.297-0.719-0.297-0.406 0-0.703 0.297l-2.828 2.828-2.828-2.828q-0.297-0.297-0.703-0.297-0.422 0-0.719 0.297l-1.406 1.406q-0.297 0.297-0.297 0.719 0 0.406 0.297 0.703l2.828 2.828-2.828 2.828q-0.297 0.297-0.297 0.703 0 0.422 0.297 0.719l1.406 1.406q0.297 0.297 0.719 0.297 0.406 0 0.703-0.297l2.828-2.828 2.828 2.828q0.297 0.297 0.703 0.297 0.422 0 0.719-0.297l1.406-1.406q0.297-0.297 0.297-0.719zM24 14q0 3.266-1.609 6.023t-4.367 4.367-6.023 1.609-6.023-1.609-4.367-4.367-1.609-6.023 1.609-6.023 4.367-4.367 6.023-1.609 6.023 1.609 4.367 4.367 1.609 6.023z" fill="#000000"></path>
</g>
<g transform="translate(88 82)">
	<path d="M20.062 11.469q0-0.438-0.281-0.719l-1.422-1.406q-0.297-0.297-0.703-0.297t-0.703 0.297l-6.375 6.359-3.531-3.531q-0.297-0.297-0.703-0.297t-0.703 0.297l-1.422 1.406q-0.281 0.281-0.281 0.719 0 0.422 0.281 0.703l5.656 5.656q0.297 0.297 0.703 0.297 0.422 0 0.719-0.297l8.484-8.484q0.281-0.281 0.281-0.703zM24 14q0 3.266-1.609 6.023t-4.367 4.367-6.023 1.609-6.023-1.609-4.367-4.367-1.609-6.023 1.609-6.023 4.367-4.367 6.023-1.609 6.023 1.609 4.367 4.367 1.609 6.023z" fill="#000000"></path>
</g>
<g transform="translate(132 82)">
	<path d="M14 21.5v-3q0-0.219-0.141-0.359t-0.359-0.141h-3q-0.219 0-0.359 0.141t-0.141 0.359v3q0 0.219 0.141 0.359t0.359 0.141h3q0.219 0 0.359-0.141t0.141-0.359zM18 11q0-1.375-0.867-2.547t-2.164-1.813-2.656-0.641q-3.797 0-5.797 3.328-0.234 0.375 0.125 0.656l2.063 1.563q0.109 0.094 0.297 0.094 0.25 0 0.391-0.187 0.828-1.062 1.344-1.437 0.531-0.375 1.344-0.375 0.75 0 1.336 0.406t0.586 0.922q0 0.594-0.313 0.953t-1.062 0.703q-0.984 0.438-1.805 1.352t-0.82 1.961v0.562q0 0.219 0.141 0.359t0.359 0.141h3q0.219 0 0.359-0.141t0.141-0.359q0-0.297 0.336-0.773t0.852-0.773q0.5-0.281 0.766-0.445t0.719-0.547 0.695-0.75 0.438-0.945 0.195-1.266zM24 14q0 3.266-1.609 6.023t-4.367 4.367-6.023 1.609-6.023-1.609-4.367-4.367-1.609-6.023 1.609-6.023 4.367-4.367 6.023-1.609 6.023 1.609 4.367 4.367 1.609 6.023z" fill="#000000"></path>
</g>
<g transform="translate(176 82)">
	<path d="M17.141 16.859l-2.281 2.281q-0.156 0.156-0.359 0.156t-0.359-0.156l-2.141-2.141-2.141 2.141q-0.156 0.156-0.359 0.156t-0.359-0.156l-2.281-2.281q-0.156-0.156-0.156-0.359t0.156-0.359l2.141-2.141-2.141-2.141q-0.156-0.156-0.156-0.359t0.156-0.359l2.281-2.281q0.156-0.156 0.359-0.156t0.359 0.156l2.141 2.141 2.141-2.141q0.156-0.156 0.359-0.156t0.359 0.156l2.281 2.281q0.156 0.156 0.156 0.359t-0.156 0.359l-2.141 2.141 2.141 2.141q0.156 0.156 0.156 0.359t-0.156 0.359zM20.5 14q0-2.312-1.141-4.266t-3.094-3.094-4.266-1.141-4.266 1.141-3.094 3.094-1.141 4.266 1.141 4.266 3.094 3.094 4.266 1.141 4.266-1.141 3.094-3.094 1.141-4.266zM24 14q0 3.266-1.609 6.023t-4.367 4.367-6.023 1.609-6.023-1.609-4.367-4.367-1.609-6.023 1.609-6.023 4.367-4.367 6.023-1.609 6.023 1.609 4.367 4.367 1.609 6.023z" fill="#000000"></path>
</g>
<g transform="translate(220 82)">
	<path d="M4 21q0-0.406-0.297-0.703t-0.703-0.297-0.703 0.297-0.297 0.703 0.297 0.703 0.703 0.297 0.703-0.297 0.297-0.703zM22 12q0-0.797-0.609-1.398t-1.391-0.602h-5.5q0-0.906 0.75-2.492t0.75-2.508q0-1.531-0.5-2.266t-2-0.734q-0.406 0.406-0.594 1.328t-0.477 1.961-0.93 1.711q-0.344 0.359-1.203 1.422-0.063 0.078-0.359 0.469t-0.492 0.641-0.539 0.664-0.625 0.688-0.602 0.555-0.625 0.422-0.555 0.141h-0.5v10h0.5q0.203 0 0.492 0.047t0.516 0.102 0.594 0.172 0.547 0.18 0.555 0.195 0.453 0.164q3.297 1.141 5.344 1.141h1.891q3 0 3-2.609 0-0.406-0.078-0.875 0.469-0.25 0.742-0.82t0.273-1.148-0.281-1.078q0.828-0.781 0.828-1.859 0-0.391-0.156-0.867t-0.391-0.742q0.5-0.016 0.836-0.734t0.336-1.266zM24 11.984q0 1.391-0.766 2.547 0.141 0.516 0.141 1.078 0 1.203-0.594 2.25 0.047 0.328 0.047 0.672 0 1.578-0.938 2.781 0.016 2.172-1.328 3.43t-3.547 1.258h-2.016q-1.5 0-2.961-0.352t-3.383-1.023q-1.813-0.625-2.156-0.625h-4.5q-0.828 0-1.414-0.586t-0.586-1.414v-10q0-0.828 0.586-1.414t1.414-0.586h4.281q0.562-0.375 2.141-2.422 0.906-1.172 1.672-2 0.375-0.391 0.555-1.336t0.477-1.977 0.969-1.687q0.609-0.578 1.406-0.578 1.313 0 2.359 0.508t1.594 1.586 0.547 2.906q0 1.453-0.75 3h2.75q1.625 0 2.812 1.188t1.188 2.797z" fill="#000000"></path>
</g>
<g transform="translate(264 82)">
	<path d="M9.266 14q-2.531 0.078-4.141 2h-2.094q-1.281 0-2.156-0.633t-0.875-1.852q0-5.516 1.937-5.516 0.094 0 0.68 0.328t1.523 0.664 1.859 0.336q1.047 0 2.078-0.359-0.078 0.578-0.078 1.031 0 2.172 1.266 4zM26 23.953q0 1.875-1.141 2.961t-3.031 1.086h-13.656q-1.891 0-3.031-1.086t-1.141-2.961q0-0.828 0.055-1.617t0.219-1.703 0.414-1.695 0.672-1.523 0.969-1.266 1.336-0.836 1.742-0.313q0.156 0 0.672 0.336t1.141 0.75 1.672 0.75 2.109 0.336 2.109-0.336 1.672-0.75 1.141-0.75 0.672-0.336q0.953 0 1.742 0.313t1.336 0.836 0.969 1.266 0.672 1.523 0.414 1.695 0.219 1.703 0.055 1.617zM10 4q0 1.656-1.172 2.828t-2.828 1.172-2.828-1.172-1.172-2.828 1.172-2.828 2.828-1.172 2.828 1.172 1.172 2.828zM21 10q0 2.484-1.758 4.242t-4.242 1.758-4.242-1.758-1.758-4.242 1.758-4.242 4.242-1.758 4.242 1.758 1.758 4.242zM30 13.516q0 1.219-0.875 1.852t-2.156 0.633h-2.094q-1.609-1.922-4.141-2 1.266-1.828 1.266-4 0-0.453-0.078-1.031 1.031 0.359 2.078 0.359 0.922 0 1.859-0.336t1.523-0.664 0.68-0.328q1.937 0 1.937 5.516zM28 4q0 1.656-1.172 2.828t-2.828 1.172-2.828-1.172-1.172-2.828 1.172-2.828 2.828-1.172 2.828 1.172 1.172 2.828z" fill="#000000"></path>
</g>
<g transform="translate(308 82)">
	<path d="M16 11q0 0.406-0.297 0.703l-7 7q-0.297 0.297-0.703 0.297t-0.703-0.297l-7-7q-0.297-0.297-0.297-0.703t0.297-0.703 0.703-0.297h14q0.406 0 0.703 0.297t0.297 0.703z" fill="#000000"></path>
</g>
<g transform="translate(352 82)">
	<path d="M16 19q0 0.406-0.297 0.703t-0.703 0.297h-14q-0.406 0-0.703-0.297t-0.297-0.703 0.297-0.703l7-7q0.297-0.297 0.703-0.297t0.703 0.297l7 7q0.297 0.297 0.297 0.703z" fill="#000000"></path>
</g>
<g transform="translate(396 82)">
	<path d="M10 7v14q0 0.406-0.297 0.703t-0.703 0.297-0.703-0.297l-7-7q-0.297-0.297-0.297-0.703t0.297-0.703l7-7q0.297-0.297 0.703-0.297t0.703 0.297 0.297 0.703z" fill="#000000"></path>
</g>
<g transform="translate(440 82)">
	<path d="M9 14q0 0.406-0.297 0.703l-7 7q-0.297 0.297-0.703 0.297t-0.703-0.297-0.297-0.703v-14q0-0.406 0.297-0.703t0.703-0.297 0.703 0.297l7 7q0.297 0.297 0.297 0.703z" fill="#000000"></path>
</g>
<g transform="translate(484 82)">
	<path d="M14.25 26.5q0-0.25-0.25-0.25-0.922 0-1.586-0.664t-0.664-1.586q0-0.25-0.25-0.25t-0.25 0.25q0 1.141 0.805 1.945t1.945 0.805q0.25 0 0.25-0.25zM27 22q0 0.812-0.594 1.406t-1.406 0.594h-7q0 1.656-1.172 2.828t-2.828 1.172-2.828-1.172-1.172-2.828h-7q-0.812 0-1.406-0.594t-0.594-1.406q0.781-0.656 1.422-1.375t1.328-1.867 1.164-2.477 0.781-3.219 0.305-4.062q0-2.375 1.828-4.414t4.797-2.477q-0.125-0.297-0.125-0.609 0-0.625 0.438-1.062t1.062-0.438 1.062 0.438 0.438 1.062q0 0.313-0.125 0.609 2.969 0.438 4.797 2.477t1.828 4.414q0 2.172 0.305 4.062t0.781 3.219 1.164 2.477 1.328 1.867 1.422 1.375z" fill="#000000"></path>
</g>
<g transform="translate(528 82)">
	<path d="M9.297 15q0 0.203-0.156 0.359l-7.281 7.281q-0.156 0.156-0.359 0.156t-0.359-0.156l-0.781-0.781q-0.156-0.156-0.156-0.359t0.156-0.359l6.141-6.141-6.141-6.141q-0.156-0.156-0.156-0.359t0.156-0.359l0.781-0.781q0.156-0.156 0.359-0.156t0.359 0.156l7.281 7.281q0.156 0.156 0.156 0.359z" fill="#000000"></path>
</g>
<g transform="translate(572 82)">
	<path d="M16.797 11.5q0 0.203-0.156 0.359l-7.281 7.281q-0.156 0.156-0.359 0.156t-0.359-0.156l-7.281-7.281q-0.156-0.156-0.156-0.359t0.156-0.359l0.781-0.781q0.156-0.156 0.359-0.156t0.359 0.156l6.141 6.141 6.141-6.141q0.156-0.156 0.359-0.156t0.359 0.156l0.781 0.781q0.156 0.156 0.156 0.359z" fill="#000000"></path>
</g>
<g transform="translate(616 82)">
	<path d="M12 5.5q-2.312 0-4.266 1.141t-3.094 3.094-1.141 4.266 1.141 4.266 3.094 3.094 4.266 1.141 4.266-1.141 3.094-3.094 1.141-4.266-1.141-4.266-3.094-3.094-4.266-1.141zM24 14q0 3.266-1.609 6.023t-4.367 4.367-6.023 1.609-6.023-1.609-4.367-4.367-1.609-6.023 1.609-6.023 4.367-4.367 6.023-1.609 6.023 1.609 4.367 4.367 1.609 6.023z" fill="#000000"></path>
</g>
<g transform="translate(660 82)">
	<path d="M14.203 21.797l1.594-1.594q0.297-0.297 0.297-0.703t-0.297-0.703l-4.797-4.797 4.797-4.797q0.297-0.297 0.297-0.703t-0.297-0.703l-1.594-1.594q-0.297-0.297-0.703-0.297t-0.703 0.297l-7.094 7.094q-0.297 0.297-0.297 0.703t0.297 0.703l7.094 7.094q0.297 0.297 0.703 0.297t0.703-0.297zM24 14q0 3.266-1.609 6.023t-4.367 4.367-6.023 1.609-6.023-1.609-4.367-4.367-1.609-6.023 1.609-6.023 4.367-4.367 6.023-1.609 6.023 1.609 4.367 4.367 1.609 6.023z" fill="#000000"></path>
</g>
<g transform="translate(0 126)">
	<path d="M11.203 21.797l7.094-7.094q0.297-0.297 0.297-0.703t-0.297-0.703l-7.094-7.094q-0.297-0.297-0.703-0.297t-0.703 0.297l-1.594 1.594q-0.297 0.297-0.297 0.703t0.297 0.703l4.797 4.797-4.797 4.797q-0.297 0.297-0.297 0.703t0.297 0.703l1.594 1.594q0.297 0.297 0.703 0.297t0.703-0.297zM24 14q0 3.266-1.609 6.023t-4.367 4.367-6.023 1.609-6.023-1.609-4.367-4.367-1.609-6.023 1.609-6.023 4.367-4.367 6.023-1.609 6.023 1.609 4.367 4.367 1.609 6.023z" fill="#000000"></path>
</g>
<g transform="translate(44 126)">
	<path d="M18.203 17.797l1.594-1.594q0.297-0.297 0.297-0.703t-0.297-0.703l-7.094-7.094q-0.297-0.297-0.703-0.297t-0.703 0.297l-7.094 7.094q-0.297 0.297-0.297 0.703t0.297 0.703l1.594 1.594q0.297 0.297 0.703 0.297t0.703-0.297l4.797-4.797 4.797 4.797q0.297 0.297 0.703 0.297t0.703-0.297zM24 14q0 3.266-1.609 6.023t-4.367 4.367-6.023 1.609-6.023-1.609-4.367-4.367-1.609-6.023 1.609-6.023 4.367-4.367 6.023-1.609 6.023 1.609 4.367 4.367 1.609 6.023z" fill="#000000"></path>
</g>
<g transform="translate(88 126)">
	<path d="M12.703 20.297l7.094-7.094q0.297-0.297 0.297-0.703t-0.297-0.703l-1.594-1.594q-0.297-0.297-0.703-0.297t-0.703 0.297l-4.797 4.797-4.797-4.797q-0.297-0.297-0.703-0.297t-0.703 0.297l-1.594 1.594q-0.297 0.297-0.297 0.703t0.297 0.703l7.094 7.094q0.297 0.297 0.703 0.297t0.703-0.297zM24 14q0 3.266-1.609 6.023t-4.367 4.367-6.023 1.609-6.023-1.609-4.367-4.367-1.609-6.023 1.609-6.023 4.367-4.367 6.023-1.609 6.023 1.609 4.367 4.367 1.609 6.023z" fill="#000000"></path>
</g>
<g transform="translate(132 126)">
	<path d="M32 24v2h-32v-24h2v22h30zM30 4.5v6.797q0 0.328-0.305 0.461t-0.555-0.117l-1.891-1.891-9.891 9.891q-0.156 0.156-0.359 0.156t-0.359-0.156l-3.641-3.641-6.5 6.5-3-3 9.141-9.141q0.156-0.156 0.359-0.156t0.359 0.156l3.641 3.641 7.25-7.25-1.891-1.891q-0.25-0.25-0.117-0.555t0.461-0.305h6.797q0.219 0 0.359 0.141t0.141 0.359z" fill="#000000"></path>
</g>
<g transform="translate(176 126)">
	<path d="M0 13q0-2.234 0.867-4.273t2.344-3.516 3.516-2.344 4.273-0.867 4.273 0.867 3.516 2.344 2.344 3.516 0.867 4.273q0 3.437-1.937 6.234l5.359 5.359q0.578 0.578 0.578 1.406 0 0.812-0.594 1.406t-1.406 0.594q-0.844 0-1.406-0.594l-5.359-5.344q-2.797 1.937-6.234 1.937-2.234 0-4.273-0.867t-3.516-2.344-2.344-3.516-0.867-4.273zM4 13q0 2.891 2.055 4.945t4.945 2.055 4.945-2.055 2.055-4.945-2.055-4.945-4.945-2.055-4.945 2.055-2.055 4.945z" fill="#000000"></path>
</g>
<g transform="translate(220 126)">
	<path d="M1.891 14.5q0-0.625 0.438-1.062l2.125-2.125q0.438-0.438 1.062-0.438t1.062 0.438l4.594 4.609 10.25-10.266q0.438-0.438 1.062-0.438t1.062 0.438l2.125 2.125q0.438 0.438 0.438 1.062t-0.438 1.062l-13.438 13.438q-0.438 0.438-1.062 0.438t-1.062-0.438l-7.781-7.781q-0.438-0.438-0.438-1.062z" fill="#000000"></path>
</g>
<g transform="translate(264 126)">
	<path d="M1.719 20.656q0-0.625 0.438-1.062l4.594-4.594-4.594-4.594q-0.438-0.438-0.438-1.062t0.438-1.062l2.125-2.125q0.438-0.438 1.062-0.438t1.062 0.438l4.594 4.594 4.594-4.594q0.438-0.438 1.062-0.438t1.062 0.438l2.125 2.125q0.438 0.438 0.438 1.062t-0.438 1.062l-4.594 4.594 4.594 4.594q0.438 0.438 0.438 1.062t-0.438 1.062l-2.125 2.125q-0.438 0.438-1.062 0.438t-1.062-0.438l-4.594-4.594-4.594 4.594q-0.438 0.438-1.062 0.438t-1.062-0.438l-2.125-2.125q-0.438-0.438-0.438-1.062z" fill="#000000"></path>
</g>
<g transform="translate(308 126)">
	<path d="M0 14q0-2.031 1.109-3.883t2.984-3.195 4.469-2.133 5.437-0.789q3.813 0 7.031 1.336t5.094 3.641 1.875 5.023-1.875 5.023-5.094 3.641-7.031 1.336q-1.094 0-2.266-0.125-3.094 2.734-7.187 3.781-0.766 0.219-1.781 0.344-0.266 0.031-0.477-0.141t-0.273-0.453v-0.016q-0.047-0.063-0.008-0.187t0.031-0.156 0.070-0.148l0.094-0.141t0.109-0.133 0.125-0.141q0.109-0.125 0.484-0.539t0.539-0.594 0.484-0.617 0.508-0.797 0.422-0.922 0.406-1.188q-2.453-1.391-3.867-3.437t-1.414-4.391z" fill="#000000"></path>
</g>
<g transform="translate(352 126)">
	<path d="M0 23.5v-19q0-1.031 0.734-1.766t1.766-0.734h25q1.031 0 1.766 0.734t0.734 1.766v19q0 1.031-0.734 1.766t-1.766 0.734h-25q-1.031 0-1.766-0.734t-0.734-1.766zM2 23.5q0 0.203 0.148 0.352t0.352 0.148h25q0.203 0 0.352-0.148t0.148-0.352v-19q0-0.203-0.148-0.352t-0.352-0.148h-25q-0.203 0-0.352 0.148t-0.148 0.352v19zM4 22v-6h4v6h-4zM10 22v-14h4v14h-4zM16 22v-10h4v10h-4zM22 22v-16h4v16h-4z" fill="#000000"></path>
</g>
<g transform="translate(396 126)">
	<path d="M0 23v-2q0-0.406 0.297-0.703t0.703-0.297h22q0.406 0 0.703 0.297t0.297 0.703v2q0 0.406-0.297 0.703t-0.703 0.297h-22q-0.406 0-0.703-0.297t-0.297-0.703zM0 15v-2q0-0.406 0.297-0.703t0.703-0.297h22q0.406 0 0.703 0.297t0.297 0.703v2q0 0.406-0.297 0.703t-0.703 0.297h-22q-0.406 0-0.703-0.297t-0.297-0.703zM0 7v-2q0-0.406 0.297-0.703t0.703-0.297h22q0.406 0 0.703 0.297t0.297 0.703v2q0 0.406-0.297 0.703t-0.703 0.297h-22q-0.406 0-0.703-0.297t-0.297-0.703z" fill="#000000"></path>
</g>
<g transform="translate(440 126)">
	<path d="M0 14q0-1.031 0.734-1.766t1.766-0.734 1.766 0.734 0.734 1.766-0.734 1.766-1.766 0.734-1.766-0.734-0.734-1.766zM2.75 7q0-1.141 0.805-1.945t1.945-0.805 1.945 0.805 0.805 1.945-0.805 1.945-1.945 0.805-1.945-0.805-0.805-1.945zM3.25 21q0-0.938 0.656-1.594t1.594-0.656q0.922 0 1.586 0.656t0.664 1.594-0.664 1.594-1.586 0.656q-0.938 0-1.594-0.656t-0.656-1.594zM9.5 4q0-1.25 0.875-2.125t2.125-0.875 2.125 0.875 0.875 2.125-0.875 2.125-2.125 0.875-2.125-0.875-0.875-2.125zM10.5 24q0-0.828 0.586-1.414t1.414-0.586 1.414 0.586 0.586 1.414-0.586 1.414-1.414 0.586-1.414-0.586-0.586-1.414zM17.75 21q0-0.719 0.516-1.234t1.234-0.516 1.234 0.516 0.516 1.234-0.516 1.234-1.234 0.516-1.234-0.516-0.516-1.234zM18.25 7q0-0.516 0.367-0.883t0.883-0.367 0.883 0.367 0.367 0.883-0.367 0.883-0.883 0.367-0.883-0.367-0.367-0.883zM21 14q0-0.625 0.438-1.062t1.062-0.438 1.062 0.438 0.438 1.062-0.438 1.062-1.062 0.438-1.062-0.438-0.438-1.062z" fill="#000000"></path>
</g>
<g transform="translate(484 126)">
	<path d="M0 14q0-3.266 1.609-6.023t4.367-4.367 6.023-1.609 6.023 1.609 4.367 4.367 1.609 6.023-1.609 6.023-4.367 4.367-6.023 1.609-6.023-1.609-4.367-4.367-1.609-6.023z" fill="#000000"></path>
</g>
<g transform="translate(528 126)">
	<path d="M0 13v-2q0-0.406 0.297-0.703t0.703-0.297 0.703 0.297 0.297 0.703v2q0 2.891 2.055 4.945t4.945 2.055 4.945-2.055 2.055-4.945v-2q0-0.406 0.297-0.703t0.703-0.297 0.703 0.297 0.297 0.703v2q0 3.453-2.305 6.008t-5.695 2.93v2.063h4q0.406 0 0.703 0.297t0.297 0.703-0.297 0.703-0.703 0.297h-10q-0.406 0-0.703-0.297t-0.297-0.703 0.297-0.703 0.703-0.297h4v-2.063q-3.391-0.375-5.695-2.93t-2.305-6.008zM4 13v-8q0-2.063 1.469-3.531t3.531-1.469 3.531 1.469 1.469 3.531v8q0 2.063-1.469 3.531t-3.531 1.469-3.531-1.469-1.469-3.531z" fill="#000000"></path>
</g>
<g transform="translate(572 126)">
	<path d="M0 14q0-2.078 1.461-3.539t3.539-1.461q1.969 0 3.406 1.344l5.625-2.812q-0.031-0.344-0.031-0.531 0-2.078 1.461-3.539t3.539-1.461 3.539 1.461 1.461 3.539-1.461 3.539-3.539 1.461q-1.969 0-3.406-1.344l-5.625 2.812q0.031 0.344 0.031 0.531t-0.031 0.531l5.625 2.812q1.437-1.344 3.406-1.344 2.078 0 3.539 1.461t1.461 3.539-1.461 3.539-3.539 1.461-3.539-1.461-1.461-3.539q0-0.187 0.031-0.531l-5.625-2.812q-1.437 1.344-3.406 1.344-2.078 0-3.539-1.461t-1.461-3.539z" fill="#000000"></path>
</g>

</svg>
