<?xml version="1.0" encoding="utf-8"?>
<!-- Generated by IcoMoon.io -->
<!DOCTYPE svg PUBLIC "-//W3C//DTD SVG 1.1//EN" "http://www.w3.org/Graphics/SVG/1.1/DTD/svg11.dtd">
<svg version="1.1" xmlns="http://www.w3.org/2000/svg" xmlns:xlink="http://www.w3.org/1999/xlink" width="22" height="22" viewBox="0 0 22 22">
<path d="M11.196 20.821q0-0.196-0.196-0.196-0.724 0-1.246-0.522t-0.522-1.246q0-0.196-0.196-0.196t-0.196 0.196q0 0.896 0.632 1.528t1.528 0.632q0.196 0 0.196-0.196zM21.214 17.286q0 0.638-0.467 1.105t-1.105 0.467h-5.5q0 1.301-0.921 2.222t-2.222 0.921-2.222-0.921-0.921-2.222h-5.5q-0.638 0-1.105-0.467t-0.467-1.105q0.614-0.516 1.117-1.080t1.044-1.467 0.915-1.946 0.614-2.529 0.239-3.192q0-1.866 1.436-3.468t3.769-1.946q-0.098-0.233-0.098-0.479 0-0.491 0.344-0.835t0.835-0.344 0.835 0.344 0.344 0.835q0 0.246-0.098 0.479 2.333 0.344 3.769 1.946t1.436 3.468q0 1.706 0.239 3.192t0.614 2.529 0.915 1.946 1.044 1.467 1.117 1.080z" fill="#000000"></path>
</svg>
