<?xml version="1.0" encoding="utf-8"?>
<!-- Generated by IcoMoon.io -->
<!DOCTYPE svg PUBLIC "-//W3C//DTD SVG 1.1//EN" "http://www.w3.org/Graphics/SVG/1.1/DTD/svg11.dtd">
<svg version="1.1" xmlns="http://www.w3.org/2000/svg" xmlns:xlink="http://www.w3.org/1999/xlink" width="32" height="32" viewBox="0 0 32 32">
<path fill="#000000" d="M16.286 30.286q0-0.286-0.286-0.286-1.054 0-1.813-0.759t-0.759-1.813q0-0.286-0.286-0.286t-0.286 0.286q0 1.304 0.92 2.223t2.223 0.92q0.286 0 0.286-0.286zM30.857 25.143q0 0.929-0.679 1.607t-1.607 0.679h-8q0 1.893-1.339 3.232t-3.232 1.339-3.232-1.339-1.339-3.232h-8q-0.929 0-1.607-0.679t-0.679-1.607q0.893-0.75 1.625-1.571t1.518-2.134 1.33-2.83 0.893-3.679 0.348-4.643q0-2.714 2.089-5.045t5.482-2.83q-0.143-0.339-0.143-0.696 0-0.714 0.5-1.214t1.214-0.5 1.214 0.5 0.5 1.214q0 0.357-0.143 0.696 3.393 0.5 5.482 2.83t2.089 5.045q0 2.482 0.348 4.643t0.893 3.679 1.33 2.83 1.518 2.134 1.625 1.571z"></path>
</svg>
