<?xml version="1.0" encoding="utf-8"?>
<!-- Generated by IcoMoon.io -->
<!DOCTYPE svg PUBLIC "-//W3C//DTD SVG 1.1//EN" "http://www.w3.org/Graphics/SVG/1.1/DTD/svg11.dtd">
<svg version="1.1" xmlns="http://www.w3.org/2000/svg" xmlns:xlink="http://www.w3.org/1999/xlink" width="24" height="22" viewBox="0 0 24 22">
<path d="M11.786 8.25q1.461 0 2.498 1.037t1.037 2.498-1.037 2.498-2.498 1.037-2.498-1.037-1.037-2.498 1.037-2.498 2.498-1.037zM20.429 3.143q1.301 0 2.222 0.921t0.921 2.222v11q0 1.301-0.921 2.222t-2.222 0.921h-17.286q-1.301 0-2.222-0.921t-0.921-2.222v-11q0-1.301 0.921-2.222t2.222-0.921h2.75l0.626-1.67q0.233-0.602 0.853-1.037t1.271-0.436h6.286q0.651 0 1.271 0.436t0.853 1.037l0.626 1.67h2.75zM11.786 17.286q2.271 0 3.886-1.614t1.614-3.886-1.614-3.886-3.886-1.614-3.886 1.614-1.614 3.886 1.614 3.886 3.886 1.614z" fill="#000000"></path>
</svg>
