<?xml version="1.0" encoding="utf-8"?>
<!-- Generated by IcoMoon.io -->
<!DOCTYPE svg PUBLIC "-//W3C//DTD SVG 1.1//EN" "http://www.w3.org/Graphics/SVG/1.1/DTD/svg11.dtd">
<svg version="1.1" xmlns="http://www.w3.org/2000/svg" xmlns:xlink="http://www.w3.org/1999/xlink" width="22" height="22" viewBox="0 0 22 22">
<path d="M15.763 9.011q0-0.344-0.221-0.565l-1.117-1.105q-0.233-0.233-0.552-0.233t-0.552 0.233l-5.009 4.997-2.775-2.775q-0.233-0.233-0.552-0.233t-0.552 0.233l-1.117 1.105q-0.221 0.221-0.221 0.565 0 0.331 0.221 0.552l4.444 4.444q0.233 0.233 0.552 0.233 0.331 0 0.565-0.233l6.666-6.666q0.221-0.221 0.221-0.552zM18.857 11q0 2.566-1.265 4.733t-3.431 3.431-4.733 1.265-4.733-1.265-3.431-3.431-1.265-4.733 1.265-4.733 3.431-3.431 4.733-1.265 4.733 1.265 3.431 3.431 1.265 4.733z" fill="#000000"></path>
</svg>
