<?xml version="1.0" encoding="utf-8"?>
<!-- Generated by IcoMoon.io -->
<!DOCTYPE svg PUBLIC "-//W3C//DTD SVG 1.1//EN" "http://www.w3.org/Graphics/SVG/1.1/DTD/svg11.dtd">
<svg version="1.1" xmlns="http://www.w3.org/2000/svg" xmlns:xlink="http://www.w3.org/1999/xlink" width="22" height="22" viewBox="0 0 22 22">
<path d="M8.802 17.126l5.574-5.574q0.233-0.233 0.233-0.552t-0.233-0.552l-5.574-5.574q-0.233-0.233-0.552-0.233t-0.552 0.233l-1.252 1.252q-0.233 0.233-0.233 0.552t0.233 0.552l3.769 3.769-3.769 3.769q-0.233 0.233-0.233 0.552t0.233 0.552l1.252 1.252q0.233 0.233 0.552 0.233t0.552-0.233zM18.857 11q0 2.566-1.265 4.733t-3.431 3.431-4.733 1.265-4.733-1.265-3.431-3.431-1.265-4.733 1.265-4.733 3.431-3.431 4.733-1.265 4.733 1.265 3.431 3.431 1.265 4.733z" fill="#000000"></path>
</svg>
