<?xml version="1.0" encoding="utf-8"?>
<!-- Generated by IcoMoon.io -->
<!DOCTYPE svg PUBLIC "-//W3C//DTD SVG 1.1//EN" "http://www.w3.org/Graphics/SVG/1.1/DTD/svg11.dtd">
<svg version="1.1" xmlns="http://www.w3.org/2000/svg" xmlns:xlink="http://www.w3.org/1999/xlink" width="22" height="22" viewBox="0 0 22 22">
<path d="M12.571 11q0-1.301-0.921-2.222t-2.222-0.921-2.222 0.921-0.921 2.222 0.921 2.222 2.222 0.921 2.222-0.921 0.921-2.222zM18.857 9.662v2.725q0 0.147-0.098 0.282t-0.246 0.16l-2.271 0.344q-0.233 0.663-0.479 1.117 0.43 0.614 1.314 1.694 0.123 0.147 0.123 0.307t-0.11 0.282q-0.331 0.454-1.215 1.326t-1.154 0.872q-0.147 0-0.319-0.11l-1.694-1.326q-0.54 0.282-1.117 0.467-0.196 1.67-0.356 2.283-0.086 0.344-0.442 0.344h-2.725q-0.172 0-0.301-0.104t-0.141-0.264l-0.344-2.259q-0.602-0.196-1.105-0.454l-1.731 1.314q-0.123 0.11-0.307 0.11-0.172 0-0.307-0.135-1.547-1.4-2.026-2.063-0.086-0.123-0.086-0.282 0-0.147 0.098-0.282 0.184-0.258 0.626-0.816t0.663-0.866q-0.331-0.614-0.503-1.215l-2.247-0.331q-0.16-0.025-0.258-0.153t-0.098-0.289v-2.725q0-0.147 0.098-0.282t0.233-0.16l2.283-0.344q0.172-0.565 0.479-1.129-0.491-0.7-1.314-1.694-0.123-0.147-0.123-0.295 0-0.123 0.11-0.282 0.319-0.442 1.209-1.32t1.16-0.878q0.16 0 0.319 0.123l1.694 1.314q0.54-0.282 1.117-0.467 0.196-1.67 0.356-2.283 0.086-0.344 0.442-0.344h2.725q0.172 0 0.301 0.104t0.141 0.264l0.344 2.259q0.602 0.196 1.105 0.454l1.743-1.314q0.11-0.11 0.295-0.11 0.16 0 0.307 0.123 1.584 1.461 2.026 2.087 0.086 0.098 0.086 0.27 0 0.147-0.098 0.282-0.184 0.258-0.626 0.816t-0.663 0.866q0.319 0.614 0.503 1.203l2.247 0.344q0.16 0.025 0.258 0.153t0.098 0.289z" fill="#000000"></path>
</svg>
