<?xml version="1.0" encoding="utf-8"?>
<!-- Generated by IcoMoon.io -->
<!DOCTYPE svg PUBLIC "-//W3C//DTD SVG 1.1//EN" "http://www.w3.org/Graphics/SVG/1.1/DTD/svg11.dtd">
<svg version="1.1" xmlns="http://www.w3.org/2000/svg" xmlns:xlink="http://www.w3.org/1999/xlink" width="22" height="22" viewBox="0 0 22 22">
<path d="M0 11q0-1.596 0.872-3.051t2.345-2.511 3.511-1.676 4.272-0.62q2.996 0 5.525 1.050t4.002 2.86 1.473 3.947-1.473 3.947-4.002 2.86-5.525 1.050q-0.859 0-1.78-0.098-2.431 2.148-5.647 2.971-0.602 0.172-1.4 0.27-0.209 0.025-0.374-0.11t-0.215-0.356v-0.012q-0.037-0.049-0.006-0.147t0.025-0.123 0.055-0.117l0.074-0.11t0.086-0.104 0.098-0.11q0.086-0.098 0.381-0.424t0.424-0.467 0.381-0.485 0.399-0.626 0.331-0.724 0.319-0.933q-1.927-1.093-3.039-2.701t-1.111-3.45z" fill="#000000"></path>
</svg>
