<?xml version="1.0" encoding="utf-8"?>
<!-- Generated by IcoMoon.io -->
<!DOCTYPE svg PUBLIC "-//W3C//DTD SVG 1.1//EN" "http://www.w3.org/Graphics/SVG/1.1/DTD/svg11.dtd">
<svg version="1.1" xmlns="http://www.w3.org/2000/svg" xmlns:xlink="http://www.w3.org/1999/xlink" width="22" height="22" viewBox="0 0 22 22">
<path d="M18.022 4.665q0.344 0.344 0.589 0.933t0.246 1.080v14.143q0 0.491-0.344 0.835t-0.835 0.344h-16.5q-0.491 0-0.835-0.344t-0.344-0.835v-19.643q0-0.491 0.344-0.835t0.835-0.344h11q0.491 0 1.080 0.246t0.933 0.589zM12.571 1.67v4.616h4.616q-0.123-0.356-0.27-0.503l-3.843-3.843q-0.147-0.147-0.503-0.27zM17.286 20.429v-12.571h-5.107q-0.491 0-0.835-0.344t-0.344-0.835v-5.107h-9.429v18.857h15.714zM9.429 9.429q0.638 0 1.105 0.467t0.467 1.105v4.714q0 0.638-0.467 1.105t-1.105 0.467h-4.714q-0.638 0-1.105-0.467t-0.467-1.105v-4.714q0-0.638 0.467-1.105t1.105-0.467h4.714zM15.469 9.453q0.246 0.098 0.246 0.368v7.071q0 0.27-0.246 0.368-0.098 0.025-0.147 0.025-0.172 0-0.282-0.11l-3.253-3.266v-1.105l3.253-3.266q0.11-0.11 0.282-0.11 0.049 0 0.147 0.025z" fill="#000000"></path>
</svg>
