<?xml version="1.0" encoding="utf-8"?>
<!-- Generated by IcoMoon.io -->
<!DOCTYPE svg PUBLIC "-//W3C//DTD SVG 1.1//EN" "http://www.w3.org/Graphics/SVG/1.1/DTD/svg11.dtd">
<svg version="1.1" xmlns="http://www.w3.org/2000/svg" xmlns:xlink="http://www.w3.org/1999/xlink" width="22" height="22" viewBox="0 0 22 22">
<path d="M18.022 4.665q0.344 0.344 0.589 0.933t0.246 1.080v14.143q0 0.491-0.344 0.835t-0.835 0.344h-16.5q-0.491 0-0.835-0.344t-0.344-0.835v-19.643q0-0.491 0.344-0.835t0.835-0.344h11q0.491 0 1.080 0.246t0.933 0.589zM12.571 1.67v4.616h4.616q-0.123-0.356-0.27-0.503l-3.843-3.843q-0.147-0.147-0.503-0.27zM17.286 20.429v-12.571h-5.107q-0.491 0-0.835-0.344t-0.344-0.835v-5.107h-9.429v18.857h15.714zM5.107 17.556v1.301h4.015v-1.301h-1.142v-2.050h1.682q0.933 0 1.449-0.184 0.823-0.282 1.307-1.068t0.485-1.792q0-0.994-0.454-1.731t-1.228-1.068q-0.589-0.233-1.596-0.233h-4.518v1.314h1.129v6.814h-1.129zM9.441 14.118h-1.461v-3.29h1.473q0.638 0 1.019 0.221 0.688 0.405 0.688 1.412 0 1.093-0.761 1.473-0.381 0.184-0.958 0.184z" fill="#000000"></path>
</svg>
