<?xml version="1.0" encoding="utf-8"?>
<!-- Generated by IcoMoon.io -->
<!DOCTYPE svg PUBLIC "-//W3C//DTD SVG 1.1//EN" "http://www.w3.org/Graphics/SVG/1.1/DTD/svg11.dtd">
<svg version="1.1" xmlns="http://www.w3.org/2000/svg" xmlns:xlink="http://www.w3.org/1999/xlink" width="22" height="22" viewBox="0 0 22 22">
<path d="M18.022 4.665q0.344 0.344 0.589 0.933t0.246 1.080v14.143q0 0.491-0.344 0.835t-0.835 0.344h-16.5q-0.491 0-0.835-0.344t-0.344-0.835v-19.643q0-0.491 0.344-0.835t0.835-0.344h11q0.491 0 1.080 0.246t0.933 0.589zM12.571 1.67v4.616h4.616q-0.123-0.356-0.27-0.503l-3.843-3.843q-0.147-0.147-0.503-0.27zM17.286 20.429v-12.571h-5.107q-0.491 0-0.835-0.344t-0.344-0.835v-5.107h-9.429v18.857h15.714zM10.975 13.148q0.405 0.319 1.031 0.688 0.724-0.086 1.436-0.086 1.805 0 2.173 0.602 0.196 0.27 0.025 0.638 0 0.012-0.012 0.025l-0.025 0.025v0.012q-0.074 0.467-0.872 0.467-0.589 0-1.412-0.246t-1.596-0.651q-2.713 0.295-4.813 1.019-1.878 3.217-2.971 3.217-0.184 0-0.344-0.086l-0.295-0.147q-0.012-0.012-0.074-0.061-0.123-0.123-0.074-0.442 0.11-0.491 0.688-1.123t1.621-1.185q0.172-0.11 0.282 0.074 0.025 0.025 0.025 0.049 0.638-1.044 1.314-2.419 0.835-1.67 1.277-3.217-0.295-1.007-0.374-1.958t0.080-1.565q0.135-0.491 0.516-0.491h0.27q0.282 0 0.43 0.184 0.221 0.258 0.11 0.835-0.025 0.074-0.049 0.098 0.012 0.037 0.012 0.098v0.368q-0.025 1.51-0.172 2.357 0.675 2.013 1.792 2.922zM3.904 18.194q0.638-0.295 1.682-1.94-0.626 0.491-1.074 1.031t-0.608 0.908zM8.79 6.9q-0.184 0.516-0.025 1.621 0.012-0.086 0.086-0.54 0-0.037 0.086-0.528 0.012-0.049 0.049-0.098-0.012-0.012-0.012-0.025t-0.006-0.018-0.006-0.018q-0.012-0.27-0.16-0.442 0 0.012-0.012 0.025v0.025zM7.268 15.015q1.657-0.663 3.487-0.994-0.025-0.012-0.16-0.117t-0.196-0.166q-0.933-0.823-1.559-2.161-0.331 1.056-1.019 2.419-0.368 0.688-0.552 1.019zM15.199 14.818q-0.295-0.295-1.719-0.295 0.933 0.344 1.522 0.344 0.172 0 0.221-0.012 0-0.012-0.025-0.037z" fill="#000000"></path>
</svg>
