<?xml version="1.0" encoding="utf-8"?>
<!-- Generated by IcoMoon.io -->
<!DOCTYPE svg PUBLIC "-//W3C//DTD SVG 1.1//EN" "http://www.w3.org/Graphics/SVG/1.1/DTD/svg11.dtd">
<svg version="1.1" xmlns="http://www.w3.org/2000/svg" xmlns:xlink="http://www.w3.org/1999/xlink" width="22" height="22" viewBox="0 0 22 22">
<path d="M18.022 4.665q0.344 0.344 0.589 0.933t0.246 1.080v14.143q0 0.491-0.344 0.835t-0.835 0.344h-16.5q-0.491 0-0.835-0.344t-0.344-0.835v-19.643q0-0.491 0.344-0.835t0.835-0.344h11q0.491 0 1.080 0.246t0.933 0.589zM12.571 1.67v4.616h4.616q-0.123-0.356-0.27-0.503l-3.843-3.843q-0.147-0.147-0.503-0.27zM17.286 20.429v-12.571h-5.107q-0.491 0-0.835-0.344t-0.344-0.835v-5.107h-9.429v18.857h15.714zM7.612 10.435q0.246 0.098 0.246 0.368v6.679q0 0.27-0.246 0.368-0.098 0.025-0.147 0.025-0.147 0-0.282-0.11l-2.038-2.050h-1.608q-0.172 0-0.282-0.11t-0.11-0.282v-2.357q0-0.172 0.11-0.282t0.282-0.11h1.608l2.038-2.050q0.196-0.184 0.43-0.086zM12.731 18.894q0.381 0 0.614-0.295 1.584-1.952 1.584-4.456t-1.584-4.456q-0.196-0.258-0.528-0.295t-0.577 0.172q-0.258 0.209-0.289 0.534t0.178 0.583q1.228 1.51 1.228 3.462t-1.228 3.462q-0.209 0.258-0.178 0.583t0.289 0.522q0.221 0.184 0.491 0.184zM10.141 17.077q0.331 0 0.577-0.246 1.068-1.142 1.068-2.689t-1.068-2.689q-0.221-0.233-0.552-0.246t-0.565 0.209-0.246 0.546 0.221 0.571q0.638 0.7 0.638 1.608t-0.638 1.608q-0.233 0.246-0.221 0.571t0.246 0.546q0.246 0.209 0.54 0.209z" fill="#000000"></path>
</svg>
