<?xml version="1.0" encoding="utf-8"?>
<!-- Generated by IcoMoon.io -->
<!DOCTYPE svg PUBLIC "-//W3C//DTD SVG 1.1//EN" "http://www.w3.org/Graphics/SVG/1.1/DTD/svg11.dtd">
<svg version="1.1" xmlns="http://www.w3.org/2000/svg" xmlns:xlink="http://www.w3.org/1999/xlink" width="22" height="22" viewBox="0 0 22 22">
<path d="M7.857 4.714v-1.571h-1.571v1.571h1.571zM9.429 6.286v-1.571h-1.571v1.571h1.571zM7.857 7.857v-1.571h-1.571v1.571h1.571zM9.429 9.429v-1.571h-1.571v1.571h1.571zM18.022 4.665q0.344 0.344 0.589 0.933t0.246 1.080v14.143q0 0.491-0.344 0.835t-0.835 0.344h-16.5q-0.491 0-0.835-0.344t-0.344-0.835v-19.643q0-0.491 0.344-0.835t0.835-0.344h11q0.491 0 1.080 0.246t0.933 0.589zM12.571 1.67v4.616h4.616q-0.123-0.356-0.27-0.503l-3.843-3.843q-0.147-0.147-0.503-0.27zM17.286 20.429v-12.571h-5.107q-0.491 0-0.835-0.344t-0.344-0.835v-5.107h-1.571v1.571h-1.571v-1.571h-6.286v18.857h15.714zM9.588 11.577l1.314 4.285q0.098 0.331 0.098 0.638 0 1.019-0.89 1.688t-2.253 0.669-2.253-0.669-0.89-1.688q0-0.307 0.098-0.638 0.258-0.773 1.473-4.862v-1.571h1.571v1.571h0.97q0.27 0 0.479 0.16t0.282 0.417zM7.857 17.286q0.651 0 1.111-0.233t0.46-0.552-0.46-0.552-1.111-0.233-1.111 0.233-0.46 0.552 0.46 0.552 1.111 0.233z" fill="#000000"></path>
</svg>
