<?xml version="1.0" encoding="utf-8"?>
<!-- Generated by IcoMoon.io -->
<!DOCTYPE svg PUBLIC "-//W3C//DTD SVG 1.1//EN" "http://www.w3.org/Graphics/SVG/1.1/DTD/svg11.dtd">
<svg version="1.1" xmlns="http://www.w3.org/2000/svg" xmlns:xlink="http://www.w3.org/1999/xlink" width="22" height="22" viewBox="0 0 22 22">
<path d="M18.022 4.665q0.344 0.344 0.589 0.933t0.246 1.080v14.143q0 0.491-0.344 0.835t-0.835 0.344h-16.5q-0.491 0-0.835-0.344t-0.344-0.835v-19.643q0-0.491 0.344-0.835t0.835-0.344h11q0.491 0 1.080 0.246t0.933 0.589zM12.571 1.67v4.616h4.616q-0.123-0.356-0.27-0.503l-3.843-3.843q-0.147-0.147-0.503-0.27zM17.286 20.429v-12.571h-5.107q-0.491 0-0.835-0.344t-0.344-0.835v-5.107h-9.429v18.857h15.714zM5.267 17.556v1.301h3.45v-1.301h-0.921l1.265-1.977q0.061-0.086 0.123-0.203t0.092-0.166 0.043-0.049h0.025q0.012 0.049 0.061 0.123 0.025 0.049 0.055 0.092t0.074 0.098 0.080 0.104l1.314 1.977h-0.933v1.301h3.573v-1.301h-0.835l-2.357-3.352 2.394-3.462h0.823v-1.314h-3.425v1.314h0.908l-1.265 1.952q-0.049 0.086-0.123 0.203t-0.11 0.166l-0.025 0.037h-0.025q-0.012-0.049-0.061-0.123-0.074-0.135-0.209-0.282l-1.301-1.952h0.933v-1.314h-3.56v1.314h0.835l2.32 3.339-2.382 3.474h-0.835z" fill="#000000"></path>
</svg>
