<?xml version="1.0" encoding="utf-8"?>
<!-- Generated by IcoMoon.io -->
<!DOCTYPE svg PUBLIC "-//W3C//DTD SVG 1.1//EN" "http://www.w3.org/Graphics/SVG/1.1/DTD/svg11.dtd">
<svg version="1.1" xmlns="http://www.w3.org/2000/svg" xmlns:xlink="http://www.w3.org/1999/xlink" width="22" height="22" viewBox="0 0 22 22">
<path d="M18.022 4.665q0.344 0.344 0.589 0.933t0.246 1.080v14.143q0 0.491-0.344 0.835t-0.835 0.344h-16.5q-0.491 0-0.835-0.344t-0.344-0.835v-19.643q0-0.491 0.344-0.835t0.835-0.344h11q0.491 0 1.080 0.246t0.933 0.589zM12.571 1.67v4.616h4.616q-0.123-0.356-0.27-0.503l-3.843-3.843q-0.147-0.147-0.503-0.27zM17.286 20.429v-12.571h-5.107q-0.491 0-0.835-0.344t-0.344-0.835v-5.107h-9.429v18.857h15.714zM2.86 9.429v1.314h0.859l2.013 8.115h1.952l1.571-5.954q0.086-0.246 0.123-0.565 0.025-0.196 0.025-0.295h0.049l0.037 0.295q0.012 0.037 0.043 0.246t0.068 0.319l1.571 5.954h1.952l2.013-8.115h0.859v-1.314h-3.683v1.314h1.105l-1.215 5.377q-0.061 0.246-0.086 0.565l-0.025 0.258h-0.049l-0.037-0.258q-0.012-0.061-0.049-0.258t-0.061-0.307l-1.768-6.691h-1.4l-1.768 6.691q-0.025 0.11-0.055 0.301t-0.043 0.264l-0.049 0.258h-0.049l-0.025-0.258q-0.025-0.319-0.086-0.565l-1.215-5.377h1.105v-1.314h-3.683z" fill="#000000"></path>
</svg>
