<?xml version="1.0" encoding="utf-8"?>
<!-- Generated by IcoMoon.io -->
<!DOCTYPE svg PUBLIC "-//W3C//DTD SVG 1.1//EN" "http://www.w3.org/Graphics/SVG/1.1/DTD/svg11.dtd">
<svg version="1.1" xmlns="http://www.w3.org/2000/svg" xmlns:xlink="http://www.w3.org/1999/xlink" width="24" height="22" viewBox="0 0 24 22">
<path d="M7.28 11q-1.989 0.061-3.253 1.571h-1.645q-1.007 0-1.694-0.497t-0.688-1.455q0-4.334 1.522-4.334 0.074 0 0.534 0.258t1.197 0.522 1.461 0.264q0.823 0 1.633-0.282-0.061 0.454-0.061 0.81 0 1.706 0.994 3.143zM20.429 18.82q0 1.473-0.896 2.326t-2.382 0.853h-10.73q-1.485 0-2.382-0.853t-0.896-2.326q0-0.651 0.043-1.271t0.172-1.338 0.325-1.332 0.528-1.197 0.761-0.994 1.050-0.657 1.369-0.246q0.123 0 0.528 0.264t0.896 0.589 1.314 0.589 1.657 0.264 1.657-0.264 1.314-0.589 0.896-0.589 0.528-0.264q0.749 0 1.369 0.246t1.050 0.657 0.761 0.994 0.528 1.197 0.325 1.332 0.172 1.338 0.043 1.271zM7.857 3.143q0 1.301-0.921 2.222t-2.222 0.921-2.222-0.921-0.921-2.222 0.921-2.222 2.222-0.921 2.222 0.921 0.921 2.222zM16.5 7.857q0 1.952-1.381 3.333t-3.333 1.381-3.333-1.381-1.381-3.333 1.381-3.333 3.333-1.381 3.333 1.381 1.381 3.333zM23.571 10.619q0 0.958-0.688 1.455t-1.694 0.497h-1.645q-1.265-1.51-3.253-1.571 0.994-1.436 0.994-3.143 0-0.356-0.061-0.81 0.81 0.282 1.633 0.282 0.724 0 1.461-0.264t1.197-0.522 0.534-0.258q1.522 0 1.522 4.334zM22 3.143q0 1.301-0.921 2.222t-2.222 0.921-2.222-0.921-0.921-2.222 0.921-2.222 2.222-0.921 2.222 0.921 0.921 2.222z" fill="#000000"></path>
</svg>
