<?xml version="1.0" encoding="utf-8"?>
<!-- Generated by IcoMoon.io -->
<!DOCTYPE svg PUBLIC "-//W3C//DTD SVG 1.1//EN" "http://www.w3.org/Graphics/SVG/1.1/DTD/svg11.dtd">
<svg version="1.1" xmlns="http://www.w3.org/2000/svg" xmlns:xlink="http://www.w3.org/1999/xlink" width="20" height="22" viewBox="0 0 20 22">
<path d="M17.286 12.179v5.893q0 0.319-0.233 0.552t-0.552 0.233h-4.714v-4.714h-3.143v4.714h-4.714q-0.319 0-0.552-0.233t-0.233-0.552v-5.893q0-0.012 0.006-0.037t0.006-0.037l7.059-5.819 7.059 5.819q0.012 0.025 0.012 0.074zM20.023 11.331l-0.761 0.908q-0.098 0.11-0.258 0.135h-0.037q-0.16 0-0.258-0.086l-8.496-7.084-8.496 7.084q-0.147 0.098-0.295 0.086-0.16-0.025-0.258-0.135l-0.761-0.908q-0.098-0.123-0.086-0.289t0.135-0.264l8.827-7.354q0.393-0.319 0.933-0.319t0.933 0.319l2.996 2.504v-2.394q0-0.172 0.11-0.282t0.282-0.11h2.357q0.172 0 0.282 0.11t0.11 0.282v5.009l2.689 2.234q0.123 0.098 0.135 0.264t-0.086 0.289z" fill="#000000"></path>
</svg>
