<?xml version="1.0" encoding="utf-8"?>
<!-- Generated by IcoMoon.io -->
<!DOCTYPE svg PUBLIC "-//W3C//DTD SVG 1.1//EN" "http://www.w3.org/Graphics/SVG/1.1/DTD/svg11.dtd">
<svg version="1.1" xmlns="http://www.w3.org/2000/svg" xmlns:xlink="http://www.w3.org/1999/xlink" width="37" height="32" viewBox="0 0 37 32">
<path fill="#000000" d="M36.571 27.429v2.286h-36.571v-27.429h2.286v25.143h34.286zM34.286 5.143v7.768q0 0.375-0.348 0.527t-0.634-0.134l-2.161-2.161-11.304 11.304q-0.179 0.179-0.411 0.179t-0.411-0.179l-4.161-4.161-7.429 7.429-3.429-3.429 10.446-10.446q0.179-0.179 0.411-0.179t0.411 0.179l4.161 4.161 8.286-8.286-2.161-2.161q-0.286-0.286-0.134-0.634t0.527-0.348h7.768q0.25 0 0.411 0.161t0.161 0.411z"></path>
</svg>
