<?xml version="1.0" encoding="utf-8"?>
<!-- Generated by IcoMoon.io -->
<!DOCTYPE svg PUBLIC "-//W3C//DTD SVG 1.1//EN" "http://www.w3.org/Graphics/SVG/1.1/DTD/svg11.dtd">
<svg version="1.1" xmlns="http://www.w3.org/2000/svg" xmlns:xlink="http://www.w3.org/1999/xlink" width="25" height="22" viewBox="0 0 25 22">
<path d="M25.143 18.857v1.571h-25.143v-18.857h1.571v17.286h23.571zM23.571 3.536v5.34q0 0.258-0.239 0.362t-0.436-0.092l-1.485-1.485-7.771 7.771q-0.123 0.123-0.282 0.123t-0.282-0.123l-2.86-2.86-5.107 5.107-2.357-2.357 7.182-7.182q0.123-0.123 0.282-0.123t0.282 0.123l2.86 2.86 5.696-5.696-1.485-1.485q-0.196-0.196-0.092-0.436t0.362-0.239h5.34q0.172 0 0.282 0.11t0.11 0.282z" fill="#000000"></path>
</svg>
