<?xml version="1.0" encoding="utf-8"?>
<!-- Generated by IcoMoon.io -->
<!DOCTYPE svg PUBLIC "-//W3C//DTD SVG 1.1//EN" "http://www.w3.org/Graphics/SVG/1.1/DTD/svg11.dtd">
<svg version="1.1" xmlns="http://www.w3.org/2000/svg" xmlns:xlink="http://www.w3.org/1999/xlink" width="34" height="32" viewBox="0 0 34 32">
<path fill="rgb(68, 68, 68)" d="M13.811 26.186c-7.178 0-13.018-5.84-13.018-13.017s5.84-13.018 13.018-13.018c7.178 0 13.017 5.84 13.017 13.018s-5.84 13.017-13.017 13.017v0zM13.805 1.802c-6.265 0-11.361 5.096-11.361 11.361 0 6.263 5.096 11.359 11.361 11.359 6.263 0 11.359-5.096 11.359-11.359 0-6.265-5.096-11.361-11.359-11.361zM29.834 31.573c0.318 0.318 0.734 0.476 1.15 0.476 0.415 0 0.831-0.158 1.149-0.476 0.635-0.634 0.635-1.665 0-2.299l-7.579-7.355c-0.635-0.635-1.664-0.635-2.299 0-0.635 0.634-0.635 1.665 0 2.299l7.579 7.355z"></path>
</svg>
