<!-- Generated by IcoMoon.io -->
<svg version="1.1" xmlns="http://www.w3.org/2000/svg" width="29" height="28" viewBox="0 0 29 28">
<title>magnifying-glass</title>
<path fill="#444" d="M12.084 22.913c-6.281 0-11.391-5.11-11.391-11.39s5.11-11.391 11.391-11.391c6.281 0 11.39 5.11 11.39 11.391s-5.11 11.39-11.39 11.39v0zM12.079 1.577c-5.482 0-9.941 4.459-9.941 9.941 0 5.48 4.459 9.939 9.941 9.939 5.48 0 9.939-4.459 9.939-9.939 0-5.482-4.459-9.941-9.939-9.941zM26.105 27.627c0.278 0.278 0.642 0.416 1.006 0.416s0.727-0.138 1.005-0.416c0.556-0.555 0.556-1.457 0-2.012l-6.631-6.436c-0.556-0.556-1.456-0.556-2.012 0s-0.556 1.457 0 2.012l6.631 6.436z"></path>
</svg>
