<?xml version="1.0" encoding="utf-8"?>
<!-- Generated by IcoMoon.io -->
<!DOCTYPE svg PUBLIC "-//W3C//DTD SVG 1.1//EN" "http://www.w3.org/Graphics/SVG/1.1/DTD/svg11.dtd">
<svg version="1.1" xmlns="http://www.w3.org/2000/svg" xmlns:xlink="http://www.w3.org/1999/xlink" width="23" height="22" viewBox="0 0 23 22">
<path d="M9.495 18.003c-4.935 0-8.95-4.015-8.95-8.949s4.015-8.95 8.95-8.95c4.935 0 8.949 4.015 8.949 8.95s-4.015 8.949-8.949 8.949v0zM9.491 1.239c-4.307 0-7.81 3.503-7.81 7.81s3.503 7.81 7.81 7.81c4.306 0 7.81-3.503 7.81-7.81s-3.503-7.81-7.81-7.81zM20.511 21.707c0.218 0.218 0.504 0.327 0.791 0.327s0.572-0.109 0.79-0.327c0.437-0.436 0.437-1.145 0-1.58l-5.21-5.057c-0.437-0.437-1.144-0.437-1.58 0s-0.437 1.145 0 1.58l5.21 5.057z" fill="rgb(68, 68, 68)"></path>
</svg>
