<!-- Generated by IcoMoon.io -->
<svg version="1.1" xmlns="http://www.w3.org/2000/svg" width="6" height="28" viewBox="0 0 6 28">
<title>menu-toggle</title>
<path fill="#444" d="M3.182 6.462c1.757 0 3.182-1.446 3.182-3.231s-1.425-3.231-3.182-3.231c-1.757 0-3.182 1.446-3.182 3.231s1.425 3.231 3.182 3.231zM3.182 17.231c1.757 0 3.182-1.446 3.182-3.231s-1.425-3.231-3.182-3.231c-1.757 0-3.182 1.446-3.182 3.231s1.425 3.231 3.182 3.231zM3.182 28c1.757 0 3.182-1.446 3.182-3.231s-1.425-3.231-3.182-3.231c-1.757 0-3.182 1.446-3.182 3.231s1.425 3.231 3.182 3.231z"></path>
</svg>
