<?xml version="1.0" encoding="utf-8"?>
<!-- Generated by IcoMoon.io -->
<!DOCTYPE svg PUBLIC "-//W3C//DTD SVG 1.1//EN" "http://www.w3.org/Graphics/SVG/1.1/DTD/svg11.dtd">
<svg version="1.1" xmlns="http://www.w3.org/2000/svg" xmlns:xlink="http://www.w3.org/1999/xlink" width="7" height="32" viewBox="0 0 7 32">
<path fill="rgb(68, 68, 68)" d="M3.636 7.385c2.008 0 3.636-1.653 3.636-3.692s-1.628-3.692-3.636-3.692c-2.008 0-3.636 1.653-3.636 3.692s1.628 3.692 3.636 3.692zM3.636 19.692c2.008 0 3.636-1.653 3.636-3.692s-1.628-3.692-3.636-3.692c-2.008 0-3.636 1.653-3.636 3.692s1.628 3.692 3.636 3.692zM3.636 32c2.008 0 3.636-1.653 3.636-3.692s-1.628-3.692-3.636-3.692c-2.008 0-3.636 1.653-3.636 3.692s1.628 3.692 3.636 3.692z"></path>
</svg>
