<?xml version="1.0" encoding="utf-8"?>
<!-- Generated by IcoMoon.io -->
<!DOCTYPE svg PUBLIC "-//W3C//DTD SVG 1.1//EN" "http://www.w3.org/Graphics/SVG/1.1/DTD/svg11.dtd">
<svg version="1.1" xmlns="http://www.w3.org/2000/svg" xmlns:xlink="http://www.w3.org/1999/xlink" width="14" height="22" viewBox="0 0 14 22">
<path d="M0 10.214v-1.571q0-0.319 0.233-0.552t0.552-0.233 0.552 0.233 0.233 0.552v1.571q0 2.271 1.614 3.886t3.886 1.614 3.886-1.614 1.614-3.886v-1.571q0-0.319 0.233-0.552t0.552-0.233 0.552 0.233 0.233 0.552v1.571q0 2.713-1.811 4.72t-4.475 2.302v1.621h3.143q0.319 0 0.552 0.233t0.233 0.552-0.233 0.552-0.552 0.233h-7.857q-0.319 0-0.552-0.233t-0.233-0.552 0.233-0.552 0.552-0.233h3.143v-1.621q-2.664-0.295-4.475-2.302t-1.811-4.72zM3.143 10.214v-6.286q0-1.621 1.154-2.775t2.775-1.154 2.775 1.154 1.154 2.775v6.286q0 1.621-1.154 2.775t-2.775 1.154-2.775-1.154-1.154-2.775z" fill="#000000"></path>
</svg>
