<!-- Generated by IcoMoon.io -->
<svg version="1.1" xmlns="http://www.w3.org/2000/svg" width="28" height="28" viewBox="0 0 28 28">
<title>navicon</title>
<path d="M0 23v-2q0-0.406 0.297-0.703t0.703-0.297h22q0.406 0 0.703 0.297t0.297 0.703v2q0 0.406-0.297 0.703t-0.703 0.297h-22q-0.406 0-0.703-0.297t-0.297-0.703zM0 15v-2q0-0.406 0.297-0.703t0.703-0.297h22q0.406 0 0.703 0.297t0.297 0.703v2q0 0.406-0.297 0.703t-0.703 0.297h-22q-0.406 0-0.703-0.297t-0.297-0.703zM0 7v-2q0-0.406 0.297-0.703t0.703-0.297h22q0.406 0 0.703 0.297t0.297 0.703v2q0 0.406-0.297 0.703t-0.703 0.297h-22q-0.406 0-0.703-0.297t-0.297-0.703z"></path>
</svg>
