<?xml version="1.0" encoding="utf-8"?>
<!-- Generated by IcoMoon.io -->
<!DOCTYPE svg PUBLIC "-//W3C//DTD SVG 1.1//EN" "http://www.w3.org/Graphics/SVG/1.1/DTD/svg11.dtd">
<svg version="1.1" xmlns="http://www.w3.org/2000/svg" xmlns:xlink="http://www.w3.org/1999/xlink" width="30" height="22" viewBox="0 0 30 22">
<path d="M26.551 8.474c0.002-0.286 0.006-0.513 0.011-0.641 0.006-0.146-0.046-0.287-0.146-0.392s-0.235-0.163-0.379-0.162c-0.407 0.003-2.713 0.009-4.528 0.009-0.549 0-1.055-0.001-1.448-0.003-0.197-0.001-0.366-0.002-0.498-0.003s-0.23-0.003-0.273-0.004c-0.193-0.007-0.363 0.096-0.458 0.253-0.070 0.097-0.111 0.217-0.103 0.345 0 0.001 0.001 0.018 0.001 0.040 0.002 0.081 0.003 0.249 0.005 0.468s0.001 0.495 0.001 0.8c0 1.398-0.007 3.443-0.007 3.941 0 0.089-0.002 0.152-0.005 0.212s-0.006 0.122-0.006 0.196c0 0.099 0.007 0.211 0.023 0.352 0.030 0.261 0.242 0.459 0.499 0.468 0.729 0.025 1.586 0.027 2.305 0.027h0.011c0.305 0 0.82 0.008 1.397 0.017s1.22 0.017 1.791 0.017c0.271 0 0.527-0.002 0.753-0.007s0.423-0.012 0.583-0.025c0.271-0.021 0.481-0.251 0.482-0.529 0-0.027 0-0.058 0-0.091 0-0.714-0.016-2.751-0.016-4.276 0-0.379 0.002-0.727 0.005-1.014v0zM25.476 13.346c-0.215 0.004-0.465 0.006-0.732 0.006-0.561 0-1.2-0.008-1.776-0.016-0.577-0.009-1.090-0.017-1.411-0.017h-0.011c-0.556 0-1.191-0.002-1.778-0.014 0.002-0.051 0.003-0.11 0.003-0.179 0-0.493 0.007-2.541 0.007-3.941 0-0.323 0-0.608-0.001-0.837 0.422 0.003 1.041 0.004 1.734 0.004 1.412 0 3.115-0.004 4-0.008-0.001 0.040-0.001 0.078-0.002 0.119-0.002 0.291-0.003 0.642-0.003 1.024 0 1.294 0.011 2.948 0.015 3.856-0.015 0-0.028 0.001-0.044 0.001v0z" fill="rgb(68, 68, 68)"></path>
<path d="M29.771 5.037c-0.005-0.279-0.219-0.506-0.492-0.522-1.483-0.082-2.981-0.134-4.484-0.165l-1.558-3.999c-0.054-0.138-0.163-0.248-0.298-0.301s-0.289-0.045-0.419 0.021c0 0-0.028 0.014-0.083 0.042-0.411 0.208-2.288 1.154-4.331 2.101-1.021 0.473-2.084 0.947-3.022 1.327-0.469 0.19-0.906 0.357-1.288 0.489s-0.711 0.227-0.95 0.275c-0.080 0.016-0.15 0.052-0.212 0.099-2.414 0.039-4.803 0.077-7.138 0.077h-0.118c-0.093 0-0.179 0.027-0.254 0.071-0.012 0.007-0.025 0.012-0.037 0.020-0.001 0.001-0.002 0.003-0.003 0.003-0.137 0.096-0.226 0.256-0.226 0.439 0 0.966 0.004 1.962 0.011 2.971-0.077-0.003-0.155 0.011-0.23 0.046-1.315 0.615-2.631 1.224-3.952 1.819-0.008 0.004-0.015 0.009-0.023 0.013-0.017 0.009-0.032 0.018-0.048 0.027-0.014 0.009-0.027 0.019-0.041 0.030s-0.026 0.022-0.037 0.033c-0.013 0.012-0.025 0.025-0.036 0.039-0.010 0.012-0.020 0.025-0.029 0.038-0.010 0.014-0.019 0.029-0.027 0.044s-0.015 0.030-0.022 0.045c-0.007 0.015-0.013 0.030-0.018 0.047s-0.010 0.033-0.014 0.050c-0.004 0.016-0.007 0.034-0.009 0.051-0.002 0.016-0.003 0.033-0.004 0.049-0.001 0.019 0 0.038 0.001 0.058 0 0.009-0 0.017 0 0.027 0.111 0.912 0.444 1.825 0.822 2.702 0.379 0.876 0.808 1.717 1.13 2.45 0.406 0.926 0.906 1.952 1.41 2.971 0.495 1.001 0.994 1.994 1.41 2.872 0.014 0.283 0.242 0.506 0.52 0.506 8.523 0 23.766-0.007 23.766-0.007 0.139 0 0.272-0.057 0.37-0.158s0.152-0.237 0.151-0.379c-0 0.001-0.097-11.377-0.186-16.319v0zM16.873 3.935c2.2-0.965 4.585-2.145 5.604-2.656l1.188 3.052c-0.929-0.013-1.86-0.019-2.792-0.019-1.66 0-3.322 0.018-4.977 0.041 0.318-0.133 0.645-0.273 0.977-0.419v0zM3.282 15.118c-0.34-0.776-0.767-1.61-1.128-2.445-0.3-0.693-0.551-1.384-0.678-2.020 1.137-0.515 2.27-1.038 3.4-1.566 0.032 3.361 0.099 6.802 0.187 9.749-0.13-0.263-0.262-0.527-0.392-0.792-0.502-1.015-0.996-2.029-1.389-2.926v0zM6.172 20.838c-0.155-4.26-0.266-10.146-0.273-15.295 4.873-0.009 9.942-0.167 14.975-0.167 2.644 0 5.277 0.045 7.865 0.178 0.041 2.492 0.084 6.27 0.117 9.508 0.018 1.731 0.032 3.307 0.043 4.451 0.005 0.551 0.009 1 0.012 1.319h-0.147c-2.967 0.001-15.084 0.006-22.592 0.006v0z" fill="rgb(68, 68, 68)"></path>
<path d="M8.383 8.852h8.688c0.288 0 0.521-0.238 0.521-0.532s-0.233-0.532-0.521-0.532h-8.688c-0.288 0-0.521 0.238-0.521 0.532s0.233 0.532 0.521 0.532v0z" fill="rgb(68, 68, 68)"></path>
<path d="M17.466 10.601c0-0.293-0.233-0.531-0.521-0.531-2.528 0-5.303 0.127-8.066 0.126-0.288 0-0.521 0.238-0.521 0.533 0 0.293 0.233 0.531 0.521 0.531 2.793 0 5.572-0.127 8.066-0.127 0.288-0 0.521-0.238 0.521-0.532v0z" fill="rgb(68, 68, 68)"></path>
<path d="M16.574 12.35c-2.529 0-5.304 0.127-8.068 0.127-0.288 0-0.521 0.238-0.521 0.532s0.233 0.532 0.521 0.532c2.795-0 5.572-0.127 8.068-0.127 0.288 0 0.521-0.239 0.521-0.533s-0.233-0.532-0.521-0.532v0z" fill="rgb(68, 68, 68)"></path>
<path d="M25.758 15.391c-2.26 0-5.258 0.030-8.177 0.030-1.896 0-3.758-0.013-5.359-0.054-0.801-0.021-1.535-0.049-2.175-0.085s-1.183-0.083-1.597-0.139c-0.285-0.039-0.547 0.167-0.584 0.459s0.164 0.558 0.449 0.596c0.454 0.061 1.019 0.108 1.673 0.146 1.963 0.114 4.741 0.141 7.593 0.141 2.926 0 5.927-0.029 8.177-0.029 0.287 0 0.52-0.238 0.52-0.533s-0.233-0.531-0.52-0.531v0z" fill="rgb(68, 68, 68)"></path>
<path d="M25.758 18.052c-5.191 0-17.38 0.127-17.381 0.127-0.288 0.003-0.518 0.243-0.515 0.537s0.238 0.53 0.526 0.526c0 0 0.19-0.002 0.534-0.006 2.403-0.024 12.305-0.12 16.836-0.12 0.287 0 0.52-0.238 0.52-0.532s-0.233-0.532-0.52-0.532v0z" fill="rgb(68, 68, 68)"></path>
</svg>
