<?xml version="1.0" encoding="utf-8"?>
<!-- Generated by IcoMoon.io -->
<!DOCTYPE svg PUBLIC "-//W3C//DTD SVG 1.1//EN" "http://www.w3.org/Graphics/SVG/1.1/DTD/svg11.dtd">
<svg version="1.1" xmlns="http://www.w3.org/2000/svg" xmlns:xlink="http://www.w3.org/1999/xlink" width="44" height="32" viewBox="0 0 44 32">
<path fill="rgb(68, 68, 68)" d="M38.62 12.326c0.003-0.416 0.009-0.746 0.016-0.932 0.009-0.212-0.067-0.417-0.212-0.57s-0.342-0.238-0.551-0.236c-0.593 0.004-3.946 0.014-6.586 0.014-0.799 0-1.534-0.001-2.107-0.004-0.286-0.001-0.532-0.003-0.724-0.004-0.192-0.002-0.334-0.004-0.397-0.006-0.281-0.010-0.528 0.14-0.666 0.367-0.102 0.141-0.161 0.315-0.15 0.502 0 0.001 0.001 0.026 0.002 0.058 0.002 0.118 0.005 0.362 0.007 0.681 0.001 0.32 0.001 0.719 0.001 1.164 0 2.034-0.011 5.007-0.011 5.732 0 0.13-0.004 0.221-0.007 0.308-0.004 0.089-0.008 0.177-0.008 0.285 0 0.143 0.010 0.306 0.034 0.513 0.044 0.38 0.351 0.668 0.726 0.681 1.060 0.037 2.307 0.040 3.352 0.040h0.016c0.444 0 1.193 0.012 2.032 0.024 0.84 0.012 1.774 0.025 2.605 0.025 0.395 0 0.766-0.003 1.096-0.010s0.615-0.017 0.847-0.036c0.394-0.031 0.7-0.366 0.701-0.769 0.001-0.040 0.001-0.084 0.001-0.132 0-1.039-0.023-4.001-0.023-6.22 0.001-0.551 0.003-1.057 0.007-1.474v0zM37.056 19.413c-0.313 0.006-0.676 0.009-1.064 0.009-0.817 0-1.746-0.012-2.584-0.023-0.84-0.013-1.586-0.025-2.053-0.025h-0.016c-0.809 0-1.733-0.003-2.586-0.020 0.002-0.074 0.004-0.159 0.004-0.26 0-0.717 0.011-3.696 0.011-5.732 0-0.47 0-0.885-0.002-1.217 0.614 0.004 1.514 0.006 2.522 0.006 2.054 0 4.531-0.006 5.818-0.011-0.001 0.058-0.002 0.113-0.002 0.174-0.004 0.423-0.005 0.934-0.005 1.49 0 1.882 0.016 4.288 0.021 5.609-0.021 0.001-0.041 0.001-0.064 0.002v0z"></path>
<path fill="rgb(68, 68, 68)" d="M43.303 7.327c-0.007-0.406-0.319-0.737-0.716-0.759-2.158-0.119-4.336-0.194-6.523-0.241l-2.266-5.817c-0.078-0.201-0.237-0.361-0.434-0.438s-0.42-0.065-0.609 0.031c0 0-0.041 0.021-0.121 0.062-0.597 0.303-3.328 1.679-6.3 3.055-1.486 0.688-3.031 1.377-4.395 1.93-0.682 0.277-1.318 0.519-1.874 0.711s-1.035 0.33-1.382 0.399c-0.116 0.024-0.219 0.076-0.308 0.145-3.511 0.057-6.986 0.111-10.383 0.111h-0.172c-0.135 0-0.26 0.039-0.37 0.103-0.017 0.010-0.037 0.018-0.054 0.029-0.002 0.002-0.003 0.004-0.005 0.004-0.199 0.14-0.329 0.373-0.329 0.638 0 1.405 0.006 2.854 0.016 4.321-0.112-0.004-0.226 0.016-0.335 0.067-1.913 0.894-3.827 1.78-5.748 2.646-0.012 0.006-0.022 0.014-0.033 0.019-0.024 0.013-0.047 0.026-0.070 0.040-0.020 0.014-0.040 0.028-0.059 0.043s-0.037 0.031-0.054 0.049c-0.019 0.018-0.036 0.037-0.052 0.057-0.015 0.018-0.029 0.037-0.043 0.056-0.014 0.021-0.028 0.042-0.040 0.064-0.012 0.021-0.022 0.043-0.033 0.066s-0.019 0.044-0.026 0.068c-0.008 0.023-0.014 0.048-0.020 0.073s-0.010 0.049-0.013 0.074c-0.003 0.023-0.005 0.047-0.005 0.071-0.001 0.028 0 0.056 0.002 0.084 0.001 0.013-0.001 0.025 0.001 0.039 0.162 1.327 0.646 2.654 1.196 3.93 0.551 1.274 1.176 2.498 1.643 3.564 0.59 1.347 1.318 2.839 2.051 4.321 0.72 1.455 1.445 2.9 2.051 4.177 0.020 0.412 0.351 0.735 0.756 0.735 12.397 0 34.568-0.010 34.568-0.010 0.203 0 0.395-0.082 0.538-0.23s0.221-0.345 0.22-0.551c-0.001 0.001-0.142-16.548-0.271-23.737v0zM24.542 5.724c3.199-1.404 6.669-3.12 8.151-3.863l1.728 4.439c-1.351-0.018-2.706-0.027-4.061-0.027-2.415 0-4.832 0.026-7.239 0.060 0.463-0.194 0.938-0.398 1.421-0.609v0zM4.773 21.99c-0.495-1.128-1.115-2.342-1.64-3.556-0.437-1.007-0.801-2.013-0.986-2.938 1.655-0.75 3.302-1.51 4.946-2.278 0.046 4.889 0.144 9.894 0.272 14.181-0.189-0.383-0.381-0.767-0.571-1.152-0.731-1.476-1.449-2.952-2.021-4.257v0zM8.977 30.31c-0.225-6.196-0.387-14.758-0.398-22.247 7.088-0.013 14.461-0.243 21.781-0.243 3.846 0 7.675 0.065 11.44 0.259 0.060 3.625 0.122 9.119 0.171 13.83 0.026 2.518 0.047 4.81 0.063 6.474 0.007 0.801 0.013 1.454 0.017 1.918h-0.213c-4.315 0.001-21.94 0.008-32.861 0.009v0z"></path>
<path fill="rgb(68, 68, 68)" d="M12.193 12.875h12.636c0.418 0 0.758-0.346 0.758-0.774s-0.339-0.774-0.758-0.774h-12.636c-0.418 0-0.758 0.346-0.758 0.774 0 0.426 0.339 0.774 0.758 0.774v0z"></path>
<path fill="rgb(68, 68, 68)" d="M25.405 15.419c0-0.426-0.339-0.773-0.758-0.773-3.677 0-7.714 0.184-11.733 0.183-0.418 0-0.758 0.346-0.758 0.775 0 0.426 0.339 0.773 0.758 0.773 4.063 0 8.104-0.185 11.733-0.185 0.419-0.001 0.758-0.346 0.758-0.774v0z"></path>
<path fill="rgb(68, 68, 68)" d="M24.107 17.963c-3.679 0.001-7.714 0.185-11.735 0.185-0.418 0-0.758 0.346-0.758 0.774s0.339 0.774 0.758 0.774c4.065-0.001 8.105-0.185 11.735-0.184 0.418 0 0.758-0.347 0.758-0.775s-0.339-0.774-0.758-0.774v0z"></path>
<path fill="rgb(68, 68, 68)" d="M37.466 22.386c-3.287 0-7.648 0.043-11.894 0.043-2.758 0-5.467-0.018-7.795-0.079-1.165-0.030-2.233-0.071-3.163-0.124s-1.721-0.121-2.322-0.202c-0.415-0.056-0.795 0.243-0.85 0.667s0.238 0.811 0.653 0.867c0.661 0.089 1.482 0.157 2.434 0.212 2.855 0.166 6.895 0.206 11.044 0.206 4.255 0 8.62-0.042 11.894-0.042 0.418 0 0.757-0.346 0.757-0.775s-0.339-0.773-0.757-0.773v0z"></path>
<path fill="rgb(68, 68, 68)" d="M37.466 26.258c-7.551 0-25.279 0.184-25.281 0.184-0.418 0.004-0.754 0.354-0.75 0.782s0.347 0.77 0.765 0.766c0.001 0 0.277-0.003 0.776-0.009 3.495-0.035 17.898-0.175 24.489-0.175 0.418 0 0.757-0.346 0.757-0.774s-0.339-0.774-0.757-0.774v0z"></path>
</svg>
