<!-- Generated by IcoMoon.io -->
<svg version="1.1" xmlns="http://www.w3.org/2000/svg" width="39" height="28" viewBox="0 0 39 28">
<title>newspaper</title>
<path fill="#444" d="M33.792 10.785c0.003-0.364 0.008-0.653 0.014-0.815 0.008-0.185-0.059-0.365-0.186-0.499s-0.3-0.208-0.482-0.206c-0.518 0.003-3.453 0.012-5.763 0.012-0.699 0-1.342-0.001-1.843-0.003-0.251-0.001-0.466-0.003-0.633-0.004-0.168-0.002-0.292-0.004-0.348-0.005-0.246-0.009-0.462 0.123-0.583 0.321-0.089 0.123-0.141 0.276-0.131 0.439 0 0.001 0.001 0.023 0.002 0.051 0.002 0.103 0.004 0.317 0.006 0.596 0.001 0.28 0.001 0.629 0.001 1.018 0 1.78-0.009 4.381-0.009 5.015 0 0.114-0.003 0.193-0.006 0.27-0.003 0.078-0.007 0.155-0.007 0.249 0 0.125 0.008 0.268 0.030 0.449 0.038 0.332 0.307 0.585 0.636 0.596 0.928 0.032 2.018 0.035 2.933 0.035h0.014c0.389 0 1.044 0.011 1.778 0.021 0.735 0.011 1.552 0.022 2.279 0.022 0.345 0 0.67-0.003 0.959-0.009s0.538-0.015 0.742-0.031c0.345-0.027 0.612-0.32 0.613-0.673 0.001-0.035 0.001-0.074 0.001-0.115 0-0.909-0.021-3.501-0.021-5.443 0.001-0.482 0.003-0.925 0.006-1.29v0zM32.424 16.986c-0.274 0.005-0.592 0.008-0.931 0.008-0.715 0-1.527-0.011-2.261-0.020-0.735-0.011-1.388-0.022-1.796-0.022h-0.014c-0.708 0-1.516-0.003-2.263-0.018 0.002-0.065 0.004-0.139 0.004-0.228 0-0.627 0.009-3.234 0.009-5.015 0-0.411 0-0.774-0.002-1.065 0.537 0.003 1.325 0.005 2.207 0.005 1.797 0 3.964-0.005 5.091-0.010-0.001 0.051-0.002 0.099-0.002 0.152-0.003 0.37-0.004 0.817-0.004 1.304 0 1.647 0.014 3.752 0.018 4.908-0.018 0.001-0.036 0.001-0.056 0.002v0z"></path>
<path fill="#444" d="M37.89 6.411c-0.006-0.355-0.279-0.645-0.627-0.664-1.888-0.104-3.794-0.17-5.707-0.211l-1.982-5.090c-0.069-0.176-0.208-0.316-0.38-0.383s-0.368-0.057-0.533 0.027c0 0-0.036 0.018-0.106 0.054-0.523 0.265-2.912 1.469-5.512 2.673-1.3 0.602-2.652 1.205-3.846 1.689-0.596 0.242-1.153 0.454-1.64 0.622s-0.906 0.289-1.209 0.349c-0.102 0.021-0.191 0.067-0.269 0.127-3.072 0.050-6.113 0.097-9.085 0.097h-0.15c-0.118 0-0.228 0.034-0.324 0.090-0.015 0.009-0.032 0.016-0.047 0.025-0.002 0.002-0.003 0.003-0.004 0.004-0.174 0.123-0.288 0.326-0.288 0.558 0 1.229 0.005 2.497 0.014 3.781-0.098-0.003-0.198 0.014-0.293 0.059-1.674 0.782-3.349 1.558-5.030 2.315-0.011 0.005-0.020 0.012-0.029 0.017-0.021 0.011-0.041 0.023-0.061 0.035-0.018 0.012-0.035 0.025-0.052 0.038s-0.033 0.027-0.047 0.043c-0.016 0.016-0.032 0.032-0.045 0.050-0.013 0.016-0.025 0.032-0.037 0.049-0.013 0.018-0.024 0.037-0.035 0.056-0.011 0.018-0.020 0.038-0.028 0.058s-0.016 0.039-0.023 0.059c-0.007 0.020-0.013 0.042-0.017 0.064s-0.009 0.043-0.012 0.065c-0.003 0.020-0.004 0.041-0.005 0.062-0.001 0.024 0 0.049 0.002 0.073 0.001 0.011-0.001 0.022 0.001 0.034 0.142 1.161 0.565 2.322 1.046 3.439 0.483 1.115 1.029 2.186 1.438 3.118 0.516 1.179 1.153 2.484 1.795 3.781 0.63 1.273 1.265 2.537 1.794 3.655 0.017 0.361 0.307 0.643 0.661 0.643 10.848 0 30.247-0.009 30.247-0.009 0.177 0 0.346-0.072 0.471-0.201s0.194-0.302 0.193-0.482c-0.001 0.001-0.124-14.48-0.237-20.77v0zM21.475 5.008c2.799-1.229 5.836-2.73 7.133-3.38l1.512 3.884c-1.182-0.016-2.367-0.024-3.554-0.024-2.113 0-4.228 0.023-6.335 0.053 0.405-0.17 0.821-0.348 1.244-0.533v0zM4.176 19.241c-0.433-0.987-0.976-2.049-1.435-3.112-0.382-0.881-0.701-1.761-0.863-2.571 1.448-0.656 2.89-1.321 4.328-1.993 0.041 4.278 0.126 8.657 0.238 12.408-0.166-0.335-0.333-0.671-0.499-1.008-0.639-1.292-1.268-2.583-1.768-3.725v0zM7.855 26.521c-0.197-5.422-0.339-12.913-0.348-19.466 6.202-0.011 12.653-0.213 19.059-0.213 3.365 0 6.716 0.057 10.010 0.227 0.053 3.172 0.107 7.979 0.149 12.101 0.023 2.203 0.041 4.209 0.055 5.665 0.006 0.701 0.011 1.272 0.015 1.678h-0.187c-3.776 0.001-19.198 0.007-28.753 0.008v0z"></path>
<path fill="#444" d="M10.669 11.266h11.057c0.366 0 0.663-0.303 0.663-0.677s-0.296-0.677-0.663-0.677h-11.057c-0.366 0-0.663 0.303-0.663 0.677 0 0.373 0.297 0.677 0.663 0.677v0z"></path>
<path fill="#444" d="M22.23 13.492c0-0.373-0.296-0.676-0.663-0.676-3.218 0-6.75 0.161-10.266 0.16-0.366 0-0.663 0.303-0.663 0.678 0 0.373 0.297 0.676 0.663 0.676 3.555 0 7.091-0.162 10.266-0.162 0.367-0.001 0.663-0.303 0.663-0.677v0z"></path>
<path fill="#444" d="M21.094 15.718c-3.219 0.001-6.75 0.162-10.268 0.162-0.366 0-0.663 0.303-0.663 0.677s0.297 0.677 0.663 0.677c3.557-0.001 7.092-0.162 10.268-0.161 0.366 0 0.663-0.304 0.663-0.678s-0.297-0.677-0.663-0.677v0z"></path>
<path fill="#444" d="M32.783 19.588c-2.876 0-6.692 0.038-10.407 0.038-2.413 0-4.783-0.016-6.821-0.069-1.019-0.026-1.954-0.062-2.768-0.109s-1.506-0.106-2.032-0.177c-0.363-0.049-0.696 0.213-0.744 0.584s0.208 0.71 0.571 0.759c0.578 0.078 1.296 0.137 2.13 0.186 2.498 0.145 6.033 0.18 9.664 0.18 3.723 0 7.543-0.037 10.407-0.037 0.365 0 0.662-0.303 0.662-0.678s-0.296-0.676-0.662-0.676v0z"></path>
<path fill="#444" d="M32.783 22.976c-6.607 0-22.12 0.161-22.121 0.161-0.366 0.004-0.66 0.31-0.656 0.684s0.303 0.674 0.67 0.67c0.001 0 0.242-0.003 0.679-0.008 3.058-0.031 15.661-0.153 21.428-0.153 0.365 0 0.662-0.303 0.662-0.677s-0.296-0.677-0.662-0.677v0z"></path>
</svg>
