<!-- Generated by IcoMoon.io -->
<svg version="1.1" xmlns="http://www.w3.org/2000/svg" width="28" height="28" viewBox="0 0 28 28">
<title>notification</title>
<path fill="#444" d="M8.27 27.885c-0.243 0-0.473-0.115-0.627-0.314l-3.793-4.872h-2.547c-0.628 0-1.14-0.542-1.14-1.21v-20.107c0-0.667 0.511-1.21 1.14-1.21h25.395c0.628 0 1.14 0.543 1.14 1.21v20.107c0 0.668-0.511 1.21-1.14 1.21h-14.007l-3.793 4.872c-0.155 0.198-0.385 0.314-0.627 0.314v0zM3.898 21.233c0.628 0 0.741 0.159 0.962 0.362l3.41 4.305 3.076-4.305c0.217-0.216 0.5-0.362 0.963-0.362h14.235v-19.717h-25.088v19.717h2.442zM16.33 16.456c-0.363 0-0.691-0.253-0.825-0.641l-1.687-4.879-1.354 3.887c-0.121 0.347-0.4 0.59-0.725 0.632-0.327 0.045-0.644-0.124-0.83-0.431l-1.531-2.529-1.378 1.898c-0.313 0.431-0.873 0.49-1.25 0.133s-0.429-0.998-0.116-1.429l2.126-2.927c0.177-0.244 0.443-0.385 0.722-0.365 0.277 0.014 0.533 0.175 0.691 0.436l1.254 2.072 1.569-4.504c0.134-0.386 0.461-0.639 0.825-0.639h0.001c0.364 0.001 0.69 0.255 0.824 0.641l1.576 4.559 1.727-6.471c0.106-0.398 0.415-0.682 0.778-0.715 0.358-0.034 0.707 0.19 0.868 0.565l1.885 4.39c0.216 0.503 0.034 1.111-0.406 1.358s-0.972 0.038-1.188-0.464l-0.894-2.084-1.812 6.791c-0.11 0.412-0.436 0.7-0.814 0.717-0.012 0.001-0.024 0.001-0.036 0.001v0z"></path>
</svg>
