<?xml version="1.0" encoding="utf-8"?>
<!-- Generated by IcoMoon.io -->
<!DOCTYPE svg PUBLIC "-//W3C//DTD SVG 1.1//EN" "http://www.w3.org/Graphics/SVG/1.1/DTD/svg11.dtd">
<svg version="1.1" xmlns="http://www.w3.org/2000/svg" xmlns:xlink="http://www.w3.org/1999/xlink" width="22" height="22" viewBox="0 0 22 22">
<path d="M6.498 21.91c-0.191 0-0.371-0.090-0.493-0.246l-2.98-3.828h-2.001c-0.494 0-0.895-0.426-0.895-0.951v-15.798c0-0.524 0.402-0.951 0.895-0.951h19.953c0.494 0 0.895 0.426 0.895 0.951v15.798c0 0.524-0.402 0.951-0.895 0.951h-11.005l-2.98 3.828c-0.122 0.156-0.302 0.246-0.493 0.246v0zM3.062 16.683c0.494 0 0.582 0.125 0.756 0.284l2.679 3.383 2.416-3.383c0.17-0.17 0.393-0.284 0.757-0.284h11.185v-15.492h-19.712v15.492h1.918zM12.831 12.93c-0.285 0-0.543-0.199-0.648-0.504l-1.326-3.834-1.064 3.054c-0.095 0.273-0.314 0.464-0.569 0.497-0.257 0.035-0.506-0.097-0.652-0.339l-1.203-1.987-1.083 1.491c-0.246 0.339-0.686 0.385-0.982 0.104s-0.337-0.784-0.091-1.122l1.67-2.3c0.139-0.192 0.348-0.303 0.567-0.287 0.218 0.011 0.419 0.138 0.543 0.343l0.986 1.628 1.233-3.539c0.106-0.303 0.362-0.502 0.648-0.502h0.001c0.286 0 0.542 0.2 0.648 0.504l1.238 3.582 1.357-5.085c0.083-0.313 0.326-0.536 0.611-0.562 0.282-0.027 0.556 0.149 0.682 0.444l1.481 3.449c0.169 0.395 0.027 0.873-0.319 1.067s-0.764 0.030-0.933-0.365l-0.703-1.637-1.424 5.335c-0.086 0.324-0.343 0.55-0.639 0.564-0.009 0-0.019 0.001-0.028 0.001v0z" fill="rgb(68, 68, 68)"></path>
</svg>
