<?xml version="1.0" encoding="utf-8"?>
<!-- Generated by IcoMoon.io -->
<!DOCTYPE svg PUBLIC "-//W3C//DTD SVG 1.1//EN" "http://www.w3.org/Graphics/SVG/1.1/DTD/svg11.dtd">
<svg version="1.1" xmlns="http://www.w3.org/2000/svg" xmlns:xlink="http://www.w3.org/1999/xlink" width="32" height="32" viewBox="0 0 32 32">
<path fill="rgb(68, 68, 68)" d="M9.452 31.868c-0.278 0-0.54-0.132-0.717-0.358l-4.335-5.568h-2.911c-0.718 0-1.302-0.62-1.302-1.383v-22.98c0-0.762 0.584-1.383 1.302-1.383h29.023c0.718 0 1.302 0.62 1.302 1.383v22.98c0 0.763-0.584 1.383-1.302 1.383h-16.008l-4.335 5.568c-0.177 0.227-0.44 0.358-0.717 0.358v0zM4.454 24.267c0.718 0 0.846 0.182 1.1 0.413l3.897 4.92 3.515-4.92c0.248-0.247 0.572-0.413 1.101-0.413h16.269v-22.533h-28.672v22.533h2.79zM18.663 18.807c-0.415 0-0.79-0.289-0.943-0.733l-1.928-5.576-1.547 4.443c-0.138 0.397-0.457 0.675-0.828 0.723-0.373 0.051-0.736-0.142-0.949-0.492l-1.75-2.89-1.575 2.169c-0.358 0.493-0.998 0.56-1.429 0.152s-0.49-1.14-0.133-1.633l2.429-3.345c0.203-0.279 0.507-0.44 0.825-0.418 0.317 0.016 0.609 0.2 0.79 0.499l1.433 2.369 1.793-5.148c0.154-0.441 0.527-0.731 0.943-0.731h0.001c0.416 0.001 0.789 0.291 0.942 0.733l1.801 5.21 1.974-7.396c0.121-0.455 0.474-0.779 0.889-0.818 0.41-0.039 0.808 0.217 0.992 0.645l2.154 5.017c0.247 0.574 0.039 1.269-0.464 1.552-0.504 0.281-1.111 0.044-1.358-0.53l-1.022-2.381-2.071 7.761c-0.126 0.471-0.499 0.8-0.93 0.82-0.013 0.001-0.027 0.001-0.041 0.001v0z"></path>
</svg>
