<?xml version="1.0" encoding="utf-8"?>
<!-- Generated by IcoMoon.io -->
<!DOCTYPE svg PUBLIC "-//W3C//DTD SVG 1.1//EN" "http://www.w3.org/Graphics/SVG/1.1/DTD/svg11.dtd">
<svg version="1.1" xmlns="http://www.w3.org/2000/svg" xmlns:xlink="http://www.w3.org/1999/xlink" width="22" height="22" viewBox="0 0 22 22">
<path d="M6.877 22.059c0.031-2.313 1.922-4.186 4.253-4.186s4.222 1.873 4.253 4.186h4.725c0 0 0.001 0.018 0.001 0.008 0-4.929-4.007-8.907-8.95-8.907s-8.95 3.968-8.95 8.897c0 0.010 0.001 0.002 0.001 0.002h4.667zM11.16 12.51c2.093 0 3.79-1.692 3.79-3.779s-1.697-3.779-3.79-3.779c-2.093 0-3.79 1.692-3.79 3.779s1.697 3.779 3.79 3.779z" fill="#000000"></path>
</svg>
