<?xml version="1.0" encoding="utf-8"?>
<!-- Generated by IcoMoon.io -->
<!DOCTYPE svg PUBLIC "-//W3C//DTD SVG 1.1//EN" "http://www.w3.org/Graphics/SVG/1.1/DTD/svg11.dtd">
<svg version="1.1" xmlns="http://www.w3.org/2000/svg" xmlns:xlink="http://www.w3.org/1999/xlink" width="32" height="32" viewBox="0 0 32 32">
<path fill="#000000" d="M28.912 29.697v0c0.935-0.645 1.55-1.727 1.55-2.954 0-0.046-0.001-0.091-0.003-0.137h-0.017c-0.003-0.253-0.034-0.5-0.088-0.738-0.385-1.54-1.762-2.683-3.404-2.705v-0.067c-0.029-0.001-0.058-0.001-0.088-0.001-0.429 0-0.84 0.075-1.22 0.212v0c1.64 1.746 2.8 3.944 3.27 6.39zM26.95 32.144h-4.679c-0.046-3.365-2.796-6.089-6.187-6.089s-6.141 2.724-6.187 6.089h-4.749v2.107c0 0 0.007 0.001-0.001 0.001-4.135 0-7.463-3.373-7.463-7.533 0-1.778 0.609-3.412 1.63-4.7 1.378-1.753 3.53-2.877 5.947-2.877 1.766 0 3.389 0.601 4.674 1.609v0c1.842-0.99 3.951-1.551 6.193-1.551 2.203 0 4.279 0.543 6.098 1.503 1.274-0.979 2.875-1.562 4.613-1.562 2.417 0 4.569 1.124 5.947 2.877 1.021 1.288 1.63 2.922 1.63 4.7 0 4.16-3.329 7.533-7.463 7.533-0.008-0-0.001-0.001-0.001-0.001v-2.107zM3.322 29.787c0.453-2.463 1.605-4.678 3.244-6.438-0.411-0.164-0.86-0.254-1.33-0.254-0.029 0-0.059 0-0.088 0.001v0.067c-1.642 0.022-3.019 1.165-3.404 2.705-0.054 0.238-0.084 0.485-0.088 0.738h-0.017c-0.002 0.045-0.003 0.091-0.003 0.137 0 1.286 0.675 2.412 1.686 3.043v0zM16.119 18.126c3.045 0 5.513-2.461 5.513-5.497s-2.468-5.497-5.513-5.497c-3.045 0-5.513 2.461-5.513 5.497s2.468 5.497 5.513 5.497zM5.627 18.196c1.53 0 2.77-1.233 2.77-2.755s-1.24-2.755-2.77-2.755c-1.53 0-2.77 1.233-2.77 2.755s1.24 2.755 2.77 2.755zM26.655 18.196c1.53 0 2.77-1.233 2.77-2.755s-1.24-2.755-2.77-2.755c-1.53 0-2.77 1.233-2.77 2.755s1.24 2.755 2.77 2.755z"></path>
</svg>
