<?xml version="1.0" encoding="utf-8"?>
<!-- Generated by IcoMoon.io -->
<!DOCTYPE svg PUBLIC "-//W3C//DTD SVG 1.1//EN" "http://www.w3.org/Graphics/SVG/1.1/DTD/svg11.dtd">
<svg version="1.1" xmlns="http://www.w3.org/2000/svg" xmlns:xlink="http://www.w3.org/1999/xlink" width="32" height="32" viewBox="0 0 32 32">
<path fill="#000000" d="M10.003 32.085c0.046-3.365 2.796-6.089 6.187-6.089s6.141 2.724 6.187 6.089h6.873c0 0 0.001 0.026 0.001 0.012 0-7.17-5.829-12.955-13.018-12.955s-13.019 5.772-13.019 12.941c0 0.014 0.001 0.002 0.001 0.002h6.788zM16.233 18.196c3.045 0 5.513-2.461 5.513-5.497s-2.468-5.497-5.513-5.497c-3.045 0-5.513 2.461-5.513 5.497s2.468 5.497 5.513 5.497z"></path>
</svg>
