<!-- Generated by IcoMoon.io -->
<svg version="1.1" xmlns="http://www.w3.org/2000/svg" width="28" height="28" viewBox="0 0 28 28">
<title>placeholder-community</title>
<path d="M25.298 25.985v0c0.818-0.564 1.356-1.511 1.356-2.585 0-0.040-0.001-0.080-0.002-0.12h-0.015c-0.003-0.221-0.029-0.437-0.077-0.646-0.337-1.347-1.542-2.347-2.979-2.367v-0.059c-0.026-0.001-0.051-0.001-0.077-0.001-0.375 0-0.735 0.066-1.068 0.186v0c1.435 1.527 2.45 3.451 2.862 5.591zM23.581 28.126h-4.094c-0.040-2.944-2.447-5.328-5.413-5.328s-5.374 2.384-5.413 5.328h-4.156v1.844c0 0 0.006 0-0.001 0.001-3.618 0-6.53-2.951-6.53-6.591 0-1.556 0.533-2.985 1.426-4.113 1.206-1.534 3.089-2.517 5.204-2.517 1.545 0 2.966 0.526 4.089 1.408v0c1.611-0.866 3.457-1.357 5.419-1.357 1.928 0 3.744 0.475 5.336 1.315 1.115-0.857 2.516-1.366 4.036-1.366 2.115 0 3.998 0.983 5.204 2.517 0.893 1.127 1.426 2.557 1.426 4.113 0 3.64-2.913 6.591-6.53 6.591-0.007-0-0.001-0.001-0.001-0.001v-1.844zM2.907 26.063c0.397-2.155 1.405-4.093 2.838-5.633-0.36-0.143-0.753-0.222-1.164-0.222-0.026 0-0.051 0-0.077 0.001v0.059c-1.437 0.020-2.642 1.020-2.979 2.367-0.047 0.208-0.074 0.424-0.077 0.646h-0.015c-0.001 0.040-0.002 0.080-0.002 0.12 0 1.125 0.59 2.111 1.475 2.663v0zM14.104 15.86c2.664 0 4.824-2.154 4.824-4.81s-2.16-4.81-4.824-4.81c-2.664 0-4.824 2.154-4.824 4.81s2.16 4.81 4.824 4.81zM4.924 15.922c1.339 0 2.424-1.079 2.424-2.41s-1.085-2.41-2.424-2.41c-1.339 0-2.424 1.079-2.424 2.41s1.085 2.41 2.424 2.41zM23.324 15.922c1.339 0 2.424-1.079 2.424-2.41s-1.085-2.41-2.424-2.41c-1.339 0-2.424 1.079-2.424 2.41s1.085 2.41 2.424 2.41z"></path>
</svg>
