<!-- Generated by IcoMoon.io -->
<svg version="1.1" xmlns="http://www.w3.org/2000/svg" width="28" height="28" viewBox="0 0 28 28">
<title>placeholder-user</title>
<path d="M8.753 28.075c0.040-2.944 2.446-5.328 5.413-5.328s5.373 2.384 5.413 5.328h6.014c0 0 0.001 0.023 0.001 0.010 0-6.274-5.1-11.336-11.391-11.336s-11.391 5.050-11.391 11.324c0 0.013 0.001 0.002 0.001 0.002h5.94zM14.204 15.922c2.664 0 4.824-2.154 4.824-4.81s-2.16-4.81-4.824-4.81c-2.664 0-4.824 2.154-4.824 4.81s2.16 4.81 4.824 4.81z"></path>
</svg>
