<?xml version="1.0" encoding="utf-8"?>
<!-- Generated by IcoMoon.io -->
<!DOCTYPE svg PUBLIC "-//W3C//DTD SVG 1.1//EN" "http://www.w3.org/Graphics/SVG/1.1/DTD/svg11.dtd">
<svg version="1.1" xmlns="http://www.w3.org/2000/svg" xmlns:xlink="http://www.w3.org/1999/xlink" width="22" height="22" viewBox="0 0 22 22">
<path d="M19.877 20.417v0c0.643-0.443 1.065-1.187 1.065-2.031 0-0.031-0.001-0.063-0.002-0.094h-0.012c-0.002-0.174-0.023-0.344-0.060-0.507-0.265-1.059-1.212-1.844-2.341-1.86v-0.046c-0.020-0-0.040-0.001-0.060-0.001-0.295 0-0.577 0.052-0.839 0.146v0c1.127 1.2 1.925 2.712 2.248 4.393zM18.528 22.099h-3.217c-0.032-2.313-1.922-4.186-4.253-4.186s-4.222 1.873-4.253 4.186h-3.265v1.449c0 0 0.005 0-0.001 0-2.843 0-5.131-2.319-5.131-5.179 0-1.222 0.419-2.346 1.121-3.231 0.948-1.205 2.427-1.978 4.089-1.978 1.214 0 2.33 0.413 3.213 1.106v0c1.266-0.68 2.716-1.066 4.258-1.066 1.515 0 2.942 0.374 4.192 1.034 0.876-0.673 1.976-1.074 3.171-1.074 1.662 0 3.141 0.773 4.089 1.978 0.702 0.886 1.121 2.009 1.121 3.231 0 2.86-2.288 5.179-5.131 5.179-0.006-0-0.001-0-0.001-0v-1.449zM2.284 20.478c0.312-1.693 1.104-3.216 2.23-4.426-0.283-0.113-0.591-0.175-0.914-0.175-0.020 0-0.040 0-0.060 0.001v0.046c-1.129 0.015-2.076 0.801-2.341 1.86-0.037 0.164-0.058 0.333-0.060 0.507h-0.012c-0.001 0.031-0.002 0.063-0.002 0.094 0 0.884 0.464 1.658 1.159 2.092v0zM11.082 12.462c2.093 0 3.79-1.692 3.79-3.779s-1.697-3.779-3.79-3.779c-2.093 0-3.79 1.692-3.79 3.779s1.697 3.779 3.79 3.779zM3.868 12.51c1.052 0 1.904-0.848 1.904-1.894s-0.853-1.894-1.904-1.894c-1.052 0-1.904 0.848-1.904 1.894s0.853 1.894 1.904 1.894zM18.326 12.51c1.052 0 1.904-0.848 1.904-1.894s-0.853-1.894-1.904-1.894c-1.052 0-1.904 0.848-1.904 1.894s0.853 1.894 1.904 1.894z" fill="#000000"></path>
</svg>
