<?xml version="1.0" encoding="utf-8"?>
<!-- Generated by IcoMoon.io -->
<!DOCTYPE svg PUBLIC "-//W3C//DTD SVG 1.1//EN" "http://www.w3.org/Graphics/SVG/1.1/DTD/svg11.dtd">
<svg version="1.1" xmlns="http://www.w3.org/2000/svg" xmlns:xlink="http://www.w3.org/1999/xlink" width="22" height="22" viewBox="0 0 22 22">
<path d="M14.929 11.786v-1.571q0-0.319-0.233-0.552t-0.552-0.233h-3.143v-3.143q0-0.319-0.233-0.552t-0.552-0.233h-1.571q-0.319 0-0.552 0.233t-0.233 0.552v3.143h-3.143q-0.319 0-0.552 0.233t-0.233 0.552v1.571q0 0.319 0.233 0.552t0.552 0.233h3.143v3.143q0 0.319 0.233 0.552t0.552 0.233h1.571q0.319 0 0.552-0.233t0.233-0.552v-3.143h3.143q0.319 0 0.552-0.233t0.233-0.552zM18.857 11q0 2.566-1.265 4.733t-3.431 3.431-4.733 1.265-4.733-1.265-3.431-3.431-1.265-4.733 1.265-4.733 3.431-3.431 4.733-1.265 4.733 1.265 3.431 3.431 1.265 4.733z" fill="#000000"></path>
</svg>
