<?xml version="1.0" encoding="utf-8"?>
<!-- Generated by IcoMoon.io -->
<!DOCTYPE svg PUBLIC "-//W3C//DTD SVG 1.1//EN" "http://www.w3.org/Graphics/SVG/1.1/DTD/svg11.dtd">
<svg version="1.1" xmlns="http://www.w3.org/2000/svg" xmlns:xlink="http://www.w3.org/1999/xlink" width="22" height="22" viewBox="0 0 22 22">
<path d="M11 16.893v-2.357q0-0.172-0.11-0.282t-0.282-0.11h-2.357q-0.172 0-0.282 0.11t-0.11 0.282v2.357q0 0.172 0.11 0.282t0.282 0.11h2.357q0.172 0 0.282-0.11t0.11-0.282zM14.143 8.643q0-1.080-0.681-2.001t-1.7-1.424-2.087-0.503q-2.983 0-4.555 2.615-0.184 0.295 0.098 0.516l1.621 1.228q0.086 0.074 0.233 0.074 0.196 0 0.307-0.147 0.651-0.835 1.056-1.129 0.417-0.295 1.056-0.295 0.589 0 1.050 0.319t0.46 0.724q0 0.467-0.246 0.749t-0.835 0.552q-0.773 0.344-1.418 1.062t-0.645 1.541v0.442q0 0.172 0.11 0.282t0.282 0.11h2.357q0.172 0 0.282-0.11t0.11-0.282q0-0.233 0.264-0.608t0.669-0.608q0.393-0.221 0.602-0.35t0.565-0.43 0.546-0.589 0.344-0.743 0.153-0.994zM18.857 11q0 2.566-1.265 4.733t-3.431 3.431-4.733 1.265-4.733-1.265-3.431-3.431-1.265-4.733 1.265-4.733 3.431-3.431 4.733-1.265 4.733 1.265 3.431 3.431 1.265 4.733z" fill="#000000"></path>
</svg>
