<?xml version="1.0" encoding="utf-8"?>
<!-- Generated by IcoMoon.io -->
<!DOCTYPE svg PUBLIC "-//W3C//DTD SVG 1.1//EN" "http://www.w3.org/Graphics/SVG/1.1/DTD/svg11.dtd">
<svg version="1.1" xmlns="http://www.w3.org/2000/svg" xmlns:xlink="http://www.w3.org/1999/xlink" width="20" height="22" viewBox="0 0 20 22">
<path d="M0 10.214q0-1.756 0.681-3.358t1.842-2.762 2.762-1.842 3.358-0.681 3.358 0.681 2.762 1.842 1.842 2.762 0.681 3.358q0 2.701-1.522 4.898l4.211 4.211q0.454 0.454 0.454 1.105 0 0.638-0.467 1.105t-1.105 0.467q-0.663 0-1.105-0.467l-4.211-4.199q-2.198 1.522-4.898 1.522-1.756 0-3.358-0.681t-2.762-1.842-1.842-2.762-0.681-3.358zM3.143 10.214q0 2.271 1.614 3.886t3.886 1.614 3.886-1.614 1.614-3.886-1.614-3.886-3.886-1.614-3.886 1.614-1.614 3.886z" fill="#000000"></path>
</svg>
