<?xml version="1.0" encoding="utf-8"?>
<!-- Generated by IcoMoon.io -->
<!DOCTYPE svg PUBLIC "-//W3C//DTD SVG 1.1//EN" "http://www.w3.org/Graphics/SVG/1.1/DTD/svg11.dtd">
<svg version="1.1" xmlns="http://www.w3.org/2000/svg" xmlns:xlink="http://www.w3.org/1999/xlink" width="22" height="22" viewBox="0 0 22 22">
<path d="M0 11q0-1.633 1.148-2.781t2.781-1.148q1.547 0 2.676 1.056l4.42-2.21q-0.025-0.27-0.025-0.417 0-1.633 1.148-2.781t2.781-1.148 2.781 1.148 1.148 2.781-1.148 2.781-2.781 1.148q-1.547 0-2.676-1.056l-4.42 2.21q0.025 0.27 0.025 0.417t-0.025 0.417l4.42 2.21q1.129-1.056 2.676-1.056 1.633 0 2.781 1.148t1.148 2.781-1.148 2.781-2.781 1.148-2.781-1.148-1.148-2.781q0-0.147 0.025-0.417l-4.42-2.21q-1.129 1.056-2.676 1.056-1.633 0-2.781-1.148t-1.148-2.781z" fill="#000000"></path>
</svg>
