<?xml version="1.0" encoding="utf-8"?>
<!-- Generated by IcoMoon.io -->
<!DOCTYPE svg PUBLIC "-//W3C//DTD SVG 1.1//EN" "http://www.w3.org/Graphics/SVG/1.1/DTD/svg11.dtd">
<svg version="1.1" xmlns="http://www.w3.org/2000/svg" xmlns:xlink="http://www.w3.org/1999/xlink" width="19" height="22" viewBox="0 0 19 22">
<path d="M0 11q0-0.81 0.577-1.387t1.387-0.577 1.387 0.577 0.577 1.387-0.577 1.387-1.387 0.577-1.387-0.577-0.577-1.387zM2.161 5.5q0-0.896 0.632-1.528t1.528-0.632 1.528 0.632 0.632 1.528-0.632 1.528-1.528 0.632-1.528-0.632-0.632-1.528zM2.554 16.5q0-0.737 0.516-1.252t1.252-0.516q0.724 0 1.246 0.516t0.522 1.252-0.522 1.252-1.246 0.516q-0.737 0-1.252-0.516t-0.516-1.252zM7.464 3.143q0-0.982 0.688-1.67t1.67-0.688 1.67 0.688 0.688 1.67-0.688 1.67-1.67 0.688-1.67-0.688-0.688-1.67zM8.25 18.857q0-0.651 0.46-1.111t1.111-0.46 1.111 0.46 0.46 1.111-0.46 1.111-1.111 0.46-1.111-0.46-0.46-1.111zM13.946 16.5q0-0.565 0.405-0.97t0.97-0.405 0.97 0.405 0.405 0.97-0.405 0.97-0.97 0.405-0.97-0.405-0.405-0.97zM14.339 5.5q0-0.405 0.289-0.694t0.694-0.289 0.694 0.289 0.289 0.694-0.289 0.694-0.694 0.289-0.694-0.289-0.289-0.694zM16.5 11q0-0.491 0.344-0.835t0.835-0.344 0.835 0.344 0.344 0.835-0.344 0.835-0.835 0.344-0.835-0.344-0.344-0.835z" fill="#000000"></path>
</svg>
