<?xml version="1.0" encoding="utf-8"?>
<!-- Generated by IcoMoon.io -->
<!DOCTYPE svg PUBLIC "-//W3C//DTD SVG 1.1//EN" "http://www.w3.org/Graphics/SVG/1.1/DTD/svg11.dtd">
<svg version="1.1" xmlns="http://www.w3.org/2000/svg" xmlns:xlink="http://www.w3.org/1999/xlink" width="28" height="32" viewBox="0 0 28 32">
<path fill="#000000" d="M0 16q0-1.179 0.839-2.018t2.018-0.839 2.018 0.839 0.839 2.018-0.839 2.018-2.018 0.839-2.018-0.839-0.839-2.018zM3.143 8q0-1.304 0.92-2.223t2.223-0.92 2.223 0.92 0.92 2.223-0.92 2.223-2.223 0.92-2.223-0.92-0.92-2.223zM3.714 24q0-1.071 0.75-1.821t1.821-0.75q1.054 0 1.813 0.75t0.759 1.821-0.759 1.821-1.813 0.75q-1.071 0-1.821-0.75t-0.75-1.821zM10.857 4.571q0-1.429 1-2.429t2.429-1 2.429 1 1 2.429-1 2.429-2.429 1-2.429-1-1-2.429zM12 27.429q0-0.946 0.67-1.616t1.616-0.67 1.616 0.67 0.67 1.616-0.67 1.616-1.616 0.67-1.616-0.67-0.67-1.616zM20.286 24q0-0.821 0.589-1.411t1.411-0.589 1.411 0.589 0.589 1.411-0.589 1.411-1.411 0.589-1.411-0.589-0.589-1.411zM20.857 8q0-0.589 0.42-1.009t1.009-0.42 1.009 0.42 0.42 1.009-0.42 1.009-1.009 0.42-1.009-0.42-0.42-1.009zM24 16q0-0.714 0.5-1.214t1.214-0.5 1.214 0.5 0.5 1.214-0.5 1.214-1.214 0.5-1.214-0.5-0.5-1.214z"></path>
</svg>
