<?xml version="1.0" encoding="utf-8"?>
<!-- Generated by IcoMoon.io -->
<!DOCTYPE svg PUBLIC "-//W3C//DTD SVG 1.1//EN" "http://www.w3.org/Graphics/SVG/1.1/DTD/svg11.dtd">
<svg version="1.1" xmlns="http://www.w3.org/2000/svg" xmlns:xlink="http://www.w3.org/1999/xlink" width="20" height="22" viewBox="0 0 20 22">
<path d="M20.429 7.943q0 0.27-0.319 0.589l-4.456 4.346 1.056 6.138q0.012 0.086 0.012 0.246 0 0.258-0.129 0.436t-0.374 0.178q-0.233 0-0.491-0.147l-5.512-2.897-5.512 2.897q-0.27 0.147-0.491 0.147-0.258 0-0.387-0.178t-0.129-0.436q0-0.074 0.025-0.246l1.056-6.138-4.469-4.346q-0.307-0.331-0.307-0.589 0-0.454 0.687-0.565l6.163-0.896 2.762-5.586q0.233-0.503 0.602-0.503t0.602 0.503l2.762 5.586 6.163 0.896q0.688 0.11 0.688 0.565z" fill="#000000"></path>
</svg>
