<?xml version="1.0" encoding="utf-8"?>
<!-- Generated by IcoMoon.io -->
<!DOCTYPE svg PUBLIC "-//W3C//DTD SVG 1.1//EN" "http://www.w3.org/Graphics/SVG/1.1/DTD/svg11.dtd">
<svg version="1.1" xmlns="http://www.w3.org/2000/svg" xmlns:xlink="http://www.w3.org/1999/xlink" width="22" height="22" viewBox="0 0 22 22">
<path d="M3.143 16.5q0-0.319-0.233-0.552t-0.552-0.233-0.552 0.233-0.233 0.552 0.233 0.552 0.552 0.233 0.552-0.233 0.233-0.552zM17.286 9.429q0-0.626-0.479-1.099t-1.093-0.473h-4.321q0-0.712 0.589-1.958t0.589-1.97q0-1.203-0.393-1.78t-1.571-0.577q-0.319 0.319-0.467 1.044t-0.374 1.541-0.73 1.344q-0.27 0.282-0.945 1.117-0.049 0.061-0.282 0.368t-0.387 0.503-0.424 0.522-0.491 0.54-0.473 0.436-0.491 0.331-0.436 0.11h-0.393v7.857h0.393q0.16 0 0.387 0.037t0.405 0.080 0.467 0.135 0.43 0.141 0.436 0.153 0.356 0.129q2.59 0.896 4.199 0.896h1.485q2.357 0 2.357-2.050 0-0.319-0.061-0.688 0.368-0.196 0.583-0.645t0.215-0.902-0.221-0.847q0.651-0.614 0.651-1.461 0-0.307-0.123-0.681t-0.307-0.583q0.393-0.012 0.657-0.577t0.264-0.994zM18.857 9.416q0 1.093-0.602 2.001 0.11 0.405 0.11 0.847 0 0.945-0.467 1.768 0.037 0.258 0.037 0.528 0 1.24-0.737 2.185 0.012 1.706-1.044 2.695t-2.787 0.988h-1.584q-1.179 0-2.326-0.276t-2.658-0.804q-1.424-0.491-1.694-0.491h-3.536q-0.651 0-1.111-0.46t-0.46-1.111v-7.857q0-0.651 0.46-1.111t1.111-0.46h3.364q0.442-0.295 1.682-1.903 0.712-0.921 1.314-1.571 0.295-0.307 0.436-1.050t0.374-1.553 0.761-1.326q0.479-0.454 1.105-0.454 1.031 0 1.854 0.399t1.252 1.246 0.43 2.283q0 1.142-0.589 2.357h2.161q1.277 0 2.21 0.933t0.933 2.198z" fill="#000000"></path>
</svg>
