<?xml version="1.0" encoding="utf-8"?>
<!-- Generated by IcoMoon.io -->
<!DOCTYPE svg PUBLIC "-//W3C//DTD SVG 1.1//EN" "http://www.w3.org/Graphics/SVG/1.1/DTD/svg11.dtd">
<svg version="1.1" xmlns="http://www.w3.org/2000/svg" xmlns:xlink="http://www.w3.org/1999/xlink" width="22" height="22" viewBox="0 0 22 22">
<path d="M14.106 13.775q0-0.319-0.233-0.552l-2.222-2.222 2.222-2.222q0.233-0.233 0.233-0.552 0-0.331-0.233-0.565l-1.105-1.105q-0.233-0.233-0.565-0.233-0.319 0-0.552 0.233l-2.222 2.222-2.222-2.222q-0.233-0.233-0.552-0.233-0.331 0-0.565 0.233l-1.105 1.105q-0.233 0.233-0.233 0.565 0 0.319 0.233 0.552l2.222 2.222-2.222 2.222q-0.233 0.233-0.233 0.552 0 0.331 0.233 0.565l1.105 1.105q0.233 0.233 0.565 0.233 0.319 0 0.552-0.233l2.222-2.222 2.222 2.222q0.233 0.233 0.552 0.233 0.331 0 0.565-0.233l1.105-1.105q0.233-0.233 0.233-0.565zM18.857 11q0 2.566-1.265 4.733t-3.431 3.431-4.733 1.265-4.733-1.265-3.431-3.431-1.265-4.733 1.265-4.733 3.431-3.431 4.733-1.265 4.733 1.265 3.431 3.431 1.265 4.733z" fill="#000000"></path>
</svg>
