<?xml version="1.0" encoding="utf-8"?>
<!-- Generated by IcoMoon.io -->
<!DOCTYPE svg PUBLIC "-//W3C//DTD SVG 1.1//EN" "http://www.w3.org/Graphics/SVG/1.1/DTD/svg11.dtd">
<svg version="1.1" xmlns="http://www.w3.org/2000/svg" xmlns:xlink="http://www.w3.org/1999/xlink" width="32" height="32" viewBox="0 0 32 32">
<path fill="#000000" d="M19.589 19.268l-2.607 2.607q-0.179 0.179-0.411 0.179t-0.411-0.179l-2.446-2.446-2.446 2.446q-0.179 0.179-0.411 0.179t-0.411-0.179l-2.607-2.607q-0.179-0.179-0.179-0.411t0.179-0.411l2.446-2.446-2.446-2.446q-0.179-0.179-0.179-0.411t0.179-0.411l2.607-2.607q0.179-0.179 0.411-0.179t0.411 0.179l2.446 2.446 2.446-2.446q0.179-0.179 0.411-0.179t0.411 0.179l2.607 2.607q0.179 0.179 0.179 0.411t-0.179 0.411l-2.446 2.446 2.446 2.446q0.179 0.179 0.179 0.411t-0.179 0.411zM23.429 16q0-2.643-1.304-4.875t-3.536-3.536-4.875-1.304-4.875 1.304-3.536 3.536-1.304 4.875 1.304 4.875 3.536 3.536 4.875 1.304 4.875-1.304 3.536-3.536 1.304-4.875zM27.429 16q0 3.732-1.839 6.884t-4.991 4.991-6.884 1.839-6.884-1.839-4.991-4.991-1.839-6.884 1.839-6.884 4.991-4.991 6.884-1.839 6.884 1.839 4.991 4.991 1.839 6.884z"></path>
</svg>
