<?xml version="1.0" encoding="utf-8"?>
<!-- Generated by IcoMoon.io -->
<!DOCTYPE svg PUBLIC "-//W3C//DTD SVG 1.1//EN" "http://www.w3.org/Graphics/SVG/1.1/DTD/svg11.dtd">
<svg version="1.1" xmlns="http://www.w3.org/2000/svg" xmlns:xlink="http://www.w3.org/1999/xlink" width="22" height="22" viewBox="0 0 22 22">
<path d="M13.468 13.247l-1.792 1.792q-0.123 0.123-0.282 0.123t-0.282-0.123l-1.682-1.682-1.682 1.682q-0.123 0.123-0.282 0.123t-0.282-0.123l-1.792-1.792q-0.123-0.123-0.123-0.282t0.123-0.282l1.682-1.682-1.682-1.682q-0.123-0.123-0.123-0.282t0.123-0.282l1.792-1.792q0.123-0.123 0.282-0.123t0.282 0.123l1.682 1.682 1.682-1.682q0.123-0.123 0.282-0.123t0.282 0.123l1.792 1.792q0.123 0.123 0.123 0.282t-0.123 0.282l-1.682 1.682 1.682 1.682q0.123 0.123 0.123 0.282t-0.123 0.282zM16.107 11q0-1.817-0.896-3.352t-2.431-2.431-3.352-0.896-3.352 0.896-2.431 2.431-0.896 3.352 0.896 3.352 2.431 2.431 3.352 0.896 3.352-0.896 2.431-2.431 0.896-3.352zM18.857 11q0 2.566-1.265 4.733t-3.431 3.431-4.733 1.265-4.733-1.265-3.431-3.431-1.265-4.733 1.265-4.733 3.431-3.431 4.733-1.265 4.733 1.265 3.431 3.431 1.265 4.733z" fill="#000000"></path>
</svg>
