<?xml version="1.0" encoding="utf-8"?>
<!-- Generated by IcoMoon.io -->
<!DOCTYPE svg PUBLIC "-//W3C//DTD SVG 1.1//EN" "http://www.w3.org/Graphics/SVG/1.1/DTD/svg11.dtd">
<svg version="1.1" xmlns="http://www.w3.org/2000/svg" xmlns:xlink="http://www.w3.org/1999/xlink" width="17" height="22" viewBox="0 0 17 22">
<path d="M1.35 16.23q0-0.491 0.344-0.835l3.609-3.609-3.609-3.609q-0.344-0.344-0.344-0.835t0.344-0.835l1.67-1.67q0.344-0.344 0.835-0.344t0.835 0.344l3.609 3.609 3.609-3.609q0.344-0.344 0.835-0.344t0.835 0.344l1.67 1.67q0.344 0.344 0.344 0.835t-0.344 0.835l-3.609 3.609 3.609 3.609q0.344 0.344 0.344 0.835t-0.344 0.835l-1.67 1.67q-0.344 0.344-0.835 0.344t-0.835-0.344l-3.609-3.609-3.609 3.609q-0.344 0.344-0.835 0.344t-0.835-0.344l-1.67-1.67q-0.344-0.344-0.344-0.835z" fill="#000000"></path>
</svg>
