<?xml version="1.0" encoding="utf-8"?>
<!-- Generated by IcoMoon.io -->
<!DOCTYPE svg PUBLIC "-//W3C//DTD SVG 1.1//EN" "http://www.w3.org/Graphics/SVG/1.1/DTD/svg11.dtd">
<svg version="1.1" xmlns="http://www.w3.org/2000/svg" xmlns:xlink="http://www.w3.org/1999/xlink" width="17" height="22" viewBox="0 0 17 22">
<path d="M17.286 17.249q0 1.473-0.896 2.326t-2.382 0.853h-10.73q-1.485 0-2.382-0.853t-0.896-2.326q0-0.651 0.043-1.271t0.172-1.338 0.325-1.332 0.528-1.197 0.761-0.994 1.050-0.657 1.369-0.246q0.11 0 0.516 0.264t0.915 0.589 1.326 0.589 1.639 0.264 1.639-0.264 1.326-0.589 0.915-0.589 0.516-0.264q0.749 0 1.369 0.246t1.050 0.657 0.761 0.994 0.528 1.197 0.325 1.332 0.172 1.338 0.043 1.271zM13.357 6.286q0 1.952-1.381 3.333t-3.333 1.381-3.333-1.381-1.381-3.333 1.381-3.333 3.333-1.381 3.333 1.381 1.381 3.333z" fill="#000000"></path>
</svg>
